G75*
%MOIN*%
%OFA0B0*%
%FSLAX24Y24*%
%IPPOS*%
%LPD*%
%AMOC8*
5,1,8,0,0,1.08239X$1,22.5*
%
%ADD10C,0.0000*%
%ADD11C,0.0040*%
%ADD12C,0.0110*%
%ADD13C,0.0080*%
%ADD14C,0.0060*%
%ADD15C,0.0050*%
%ADD16R,0.0300X0.7300*%
%ADD17R,0.0200X1.2200*%
%ADD18C,0.0100*%
%ADD19C,0.0120*%
D10*
X003680Y000100D02*
X003680Y039470D01*
X043050Y039470D01*
X043050Y000100D01*
X003680Y000100D01*
X004036Y022850D02*
X004038Y022889D01*
X004044Y022928D01*
X004054Y022966D01*
X004067Y023003D01*
X004084Y023038D01*
X004104Y023072D01*
X004128Y023103D01*
X004155Y023132D01*
X004184Y023158D01*
X004216Y023181D01*
X004250Y023201D01*
X004286Y023217D01*
X004323Y023229D01*
X004362Y023238D01*
X004401Y023243D01*
X004440Y023244D01*
X004479Y023241D01*
X004518Y023234D01*
X004555Y023223D01*
X004592Y023209D01*
X004627Y023191D01*
X004660Y023170D01*
X004691Y023145D01*
X004719Y023118D01*
X004744Y023088D01*
X004766Y023055D01*
X004785Y023021D01*
X004800Y022985D01*
X004812Y022947D01*
X004820Y022909D01*
X004824Y022870D01*
X004824Y022830D01*
X004820Y022791D01*
X004812Y022753D01*
X004800Y022715D01*
X004785Y022679D01*
X004766Y022645D01*
X004744Y022612D01*
X004719Y022582D01*
X004691Y022555D01*
X004660Y022530D01*
X004627Y022509D01*
X004592Y022491D01*
X004555Y022477D01*
X004518Y022466D01*
X004479Y022459D01*
X004440Y022456D01*
X004401Y022457D01*
X004362Y022462D01*
X004323Y022471D01*
X004286Y022483D01*
X004250Y022499D01*
X004216Y022519D01*
X004184Y022542D01*
X004155Y022568D01*
X004128Y022597D01*
X004104Y022628D01*
X004084Y022662D01*
X004067Y022697D01*
X004054Y022734D01*
X004044Y022772D01*
X004038Y022811D01*
X004036Y022850D01*
X004036Y026350D02*
X004038Y026389D01*
X004044Y026428D01*
X004054Y026466D01*
X004067Y026503D01*
X004084Y026538D01*
X004104Y026572D01*
X004128Y026603D01*
X004155Y026632D01*
X004184Y026658D01*
X004216Y026681D01*
X004250Y026701D01*
X004286Y026717D01*
X004323Y026729D01*
X004362Y026738D01*
X004401Y026743D01*
X004440Y026744D01*
X004479Y026741D01*
X004518Y026734D01*
X004555Y026723D01*
X004592Y026709D01*
X004627Y026691D01*
X004660Y026670D01*
X004691Y026645D01*
X004719Y026618D01*
X004744Y026588D01*
X004766Y026555D01*
X004785Y026521D01*
X004800Y026485D01*
X004812Y026447D01*
X004820Y026409D01*
X004824Y026370D01*
X004824Y026330D01*
X004820Y026291D01*
X004812Y026253D01*
X004800Y026215D01*
X004785Y026179D01*
X004766Y026145D01*
X004744Y026112D01*
X004719Y026082D01*
X004691Y026055D01*
X004660Y026030D01*
X004627Y026009D01*
X004592Y025991D01*
X004555Y025977D01*
X004518Y025966D01*
X004479Y025959D01*
X004440Y025956D01*
X004401Y025957D01*
X004362Y025962D01*
X004323Y025971D01*
X004286Y025983D01*
X004250Y025999D01*
X004216Y026019D01*
X004184Y026042D01*
X004155Y026068D01*
X004128Y026097D01*
X004104Y026128D01*
X004084Y026162D01*
X004067Y026197D01*
X004054Y026234D01*
X004044Y026272D01*
X004038Y026311D01*
X004036Y026350D01*
D11*
X003950Y029239D02*
X004333Y029239D01*
X004410Y029316D01*
X004410Y029469D01*
X004333Y029546D01*
X003950Y029546D01*
X004026Y029699D02*
X004103Y029699D01*
X004180Y029776D01*
X004180Y029929D01*
X004257Y030006D01*
X004333Y030006D01*
X004410Y029929D01*
X004410Y029776D01*
X004333Y029699D01*
X004026Y029699D02*
X003950Y029776D01*
X003950Y029929D01*
X004026Y030006D01*
X003950Y030160D02*
X003950Y030390D01*
X004026Y030467D01*
X004103Y030467D01*
X004180Y030390D01*
X004180Y030160D01*
X004180Y030390D02*
X004257Y030467D01*
X004333Y030467D01*
X004410Y030390D01*
X004410Y030160D01*
X003950Y030160D01*
X008853Y025098D02*
X009160Y025098D01*
X008930Y025098D02*
X008930Y024791D01*
X008853Y024791D02*
X008700Y024944D01*
X008853Y025098D01*
X008853Y024791D02*
X009160Y024791D01*
X009083Y024637D02*
X009160Y024561D01*
X009160Y024407D01*
X009083Y024330D01*
X008776Y024330D01*
X008700Y024407D01*
X008700Y024561D01*
X008776Y024637D01*
X008776Y024177D02*
X008930Y024177D01*
X009007Y024100D01*
X009007Y023870D01*
X009160Y023870D02*
X008700Y023870D01*
X008700Y024100D01*
X008776Y024177D01*
X009007Y024023D02*
X009160Y024177D01*
X010226Y032370D02*
X010573Y032370D01*
X010660Y032457D01*
X010660Y032630D01*
X010573Y032717D01*
X010400Y032717D01*
X010400Y032543D01*
X010226Y032370D02*
X010140Y032457D01*
X010140Y032630D01*
X010226Y032717D01*
X010140Y032886D02*
X010660Y033233D01*
X010140Y033233D01*
X010140Y033401D02*
X010140Y033662D01*
X010226Y033748D01*
X010573Y033748D01*
X010660Y033662D01*
X010660Y033401D01*
X010140Y033401D01*
X010140Y032886D02*
X010660Y032886D01*
X010487Y034370D02*
X010140Y034370D01*
X010487Y034370D02*
X010660Y034543D01*
X010487Y034717D01*
X010140Y034717D01*
X010226Y034886D02*
X010573Y034886D01*
X010660Y034972D01*
X010660Y035146D01*
X010573Y035233D01*
X010573Y035401D02*
X010660Y035488D01*
X010660Y035662D01*
X010573Y035748D01*
X010226Y035748D02*
X010140Y035662D01*
X010140Y035488D01*
X010226Y035401D01*
X010573Y035401D01*
X010226Y035233D02*
X010140Y035146D01*
X010140Y034972D01*
X010226Y034886D01*
D12*
X007068Y037905D02*
X006635Y037905D01*
X006851Y037905D02*
X006851Y038556D01*
X006635Y038339D01*
X006369Y038556D02*
X005935Y038122D01*
X006043Y038230D02*
X006369Y037905D01*
X005935Y037905D02*
X005935Y038556D01*
X005669Y038556D02*
X005669Y037905D01*
X005235Y037905D02*
X005235Y038556D01*
X005452Y038339D01*
X005669Y038556D01*
X016735Y038556D02*
X016735Y037905D01*
X016735Y038122D02*
X017060Y038122D01*
X017169Y038230D01*
X017169Y038447D01*
X017060Y038556D01*
X016735Y038556D01*
X016952Y038122D02*
X017169Y037905D01*
X017435Y038013D02*
X017435Y038230D01*
X017543Y038339D01*
X017760Y038339D01*
X017869Y038230D01*
X017869Y038122D01*
X017435Y038122D01*
X017435Y038013D02*
X017543Y037905D01*
X017760Y037905D01*
X018243Y038013D02*
X018351Y037905D01*
X018243Y038013D02*
X018243Y038447D01*
X018135Y038339D02*
X018351Y038339D01*
X018601Y038339D02*
X018601Y037905D01*
X018601Y038122D02*
X018818Y038339D01*
X018926Y038339D01*
X019184Y038230D02*
X019184Y038013D01*
X019293Y037905D01*
X019510Y037905D01*
X019618Y038013D01*
X019618Y038230D01*
X019510Y038339D01*
X019293Y038339D01*
X019184Y038230D01*
X019884Y037905D02*
X020209Y037905D01*
X020318Y038013D01*
X020318Y038447D01*
X020209Y038556D01*
X019884Y038556D01*
X019884Y037905D01*
X020584Y038013D02*
X020584Y038230D01*
X020692Y038339D01*
X020909Y038339D01*
X021018Y038230D01*
X021018Y038122D01*
X020584Y038122D01*
X020584Y038013D02*
X020692Y037905D01*
X020909Y037905D01*
X021284Y037905D02*
X021609Y037905D01*
X021717Y038013D01*
X021717Y038230D01*
X021609Y038339D01*
X021284Y038339D01*
X021284Y037688D01*
X021983Y038013D02*
X022092Y037905D01*
X022309Y037905D01*
X022417Y038013D01*
X022417Y038230D01*
X022309Y038339D01*
X022092Y038339D01*
X021983Y038230D01*
X021983Y038013D01*
X022683Y038339D02*
X022900Y038339D01*
X022792Y038447D02*
X022792Y038013D01*
X022900Y037905D01*
X023150Y037905D02*
X023258Y037905D01*
X023258Y038013D01*
X023150Y038013D01*
X023150Y037905D01*
X023500Y037905D02*
X023500Y038339D01*
X023825Y038339D01*
X023933Y038230D01*
X023933Y037905D01*
X024200Y038013D02*
X024200Y038230D01*
X024308Y038339D01*
X024525Y038339D01*
X024633Y038230D01*
X024633Y038122D01*
X024200Y038122D01*
X024200Y038013D02*
X024308Y037905D01*
X024525Y037905D01*
X025008Y038013D02*
X025116Y037905D01*
X025008Y038013D02*
X025008Y038447D01*
X025116Y038339D02*
X024899Y038339D01*
X026765Y038230D02*
X027199Y038230D01*
X028865Y038122D02*
X029190Y038122D01*
X029299Y038230D01*
X029299Y038447D01*
X029190Y038556D01*
X028865Y038556D01*
X028865Y037905D01*
X029565Y037905D02*
X029565Y038556D01*
X029890Y038556D01*
X029998Y038447D01*
X029998Y038230D01*
X029890Y038122D01*
X029565Y038122D01*
X029781Y038122D02*
X029998Y037905D01*
X030264Y038013D02*
X030373Y037905D01*
X030590Y037905D01*
X030698Y038013D01*
X030698Y038447D01*
X030590Y038556D01*
X030373Y038556D01*
X030264Y038447D01*
X030264Y038013D01*
X030964Y038556D02*
X031398Y038556D01*
X031181Y038556D02*
X031181Y037905D01*
X031664Y038013D02*
X031772Y037905D01*
X031989Y037905D01*
X032098Y038013D01*
X032098Y038447D01*
X031989Y038556D01*
X031772Y038556D01*
X031664Y038447D01*
X031664Y038013D01*
X032364Y037905D02*
X032689Y037905D01*
X032798Y038013D01*
X032798Y038122D01*
X032689Y038230D01*
X032364Y038230D01*
X032364Y037905D02*
X032364Y038556D01*
X032689Y038556D01*
X032798Y038447D01*
X032798Y038339D01*
X032689Y038230D01*
X033064Y038013D02*
X033172Y037905D01*
X033389Y037905D01*
X033497Y038013D01*
X033497Y038447D01*
X033389Y038556D01*
X033172Y038556D01*
X033064Y038447D01*
X033064Y038013D01*
X033763Y037905D02*
X033763Y038339D01*
X033980Y038556D01*
X034197Y038339D01*
X034197Y037905D01*
X034463Y037905D02*
X034463Y038556D01*
X034788Y038556D01*
X034897Y038447D01*
X034897Y038230D01*
X034788Y038122D01*
X034463Y038122D01*
X034680Y038122D02*
X034897Y037905D01*
X035163Y037905D02*
X035488Y037905D01*
X035597Y038013D01*
X035597Y038447D01*
X035488Y038556D01*
X035163Y038556D01*
X035163Y037905D01*
X034197Y038230D02*
X033763Y038230D01*
D13*
X010570Y031820D02*
X010290Y031820D01*
X010430Y031680D02*
X010430Y031960D01*
X010570Y031499D02*
X010290Y031499D01*
X010220Y031429D01*
X010220Y031219D01*
X010640Y031219D01*
X010640Y031429D01*
X010570Y031499D01*
X010430Y030960D02*
X010430Y030680D01*
X010570Y030499D02*
X010290Y030499D01*
X010220Y030429D01*
X010220Y030219D01*
X010640Y030219D01*
X010640Y030429D01*
X010570Y030499D01*
X010430Y029710D02*
X010430Y029430D01*
X010290Y029570D02*
X010570Y029570D01*
X010430Y028710D02*
X010430Y028430D01*
X010037Y012554D02*
X009830Y012554D01*
X009726Y012450D01*
X009726Y012347D01*
X009830Y012140D01*
X009519Y012140D01*
X009519Y012554D01*
X010037Y012554D02*
X010140Y012450D01*
X010140Y012243D01*
X010037Y012140D01*
X010037Y011554D02*
X009623Y011554D01*
X009519Y011450D01*
X009519Y011243D01*
X009623Y011140D01*
X009726Y011140D01*
X009830Y011243D01*
X009830Y011554D01*
X010037Y011554D02*
X010140Y011450D01*
X010140Y011243D01*
X010037Y011140D01*
X009830Y010554D02*
X009830Y010140D01*
X009519Y010450D01*
X010140Y010450D01*
X010037Y009554D02*
X010140Y009450D01*
X010140Y009243D01*
X010037Y009140D01*
X009933Y009140D01*
X009830Y009243D01*
X009830Y009450D01*
X009933Y009554D01*
X010037Y009554D01*
X009830Y009450D02*
X009726Y009554D01*
X009623Y009554D01*
X009519Y009450D01*
X009519Y009243D01*
X009623Y009140D01*
X009726Y009140D01*
X009830Y009243D01*
X009933Y008554D02*
X009830Y008450D01*
X009830Y008347D01*
X009830Y008450D02*
X009726Y008554D01*
X009623Y008554D01*
X009519Y008450D01*
X009519Y008243D01*
X009623Y008140D01*
X010037Y008140D02*
X010140Y008243D01*
X010140Y008450D01*
X010037Y008554D01*
X009933Y008554D01*
X009623Y007554D02*
X010037Y007140D01*
X010140Y007140D01*
X009519Y007140D02*
X009519Y007554D01*
X009623Y007554D01*
X009623Y006554D02*
X009519Y006450D01*
X009519Y006243D01*
X009623Y006140D01*
X009623Y006554D02*
X009726Y006554D01*
X010140Y006140D01*
X010140Y006554D01*
X010037Y005554D02*
X009933Y005554D01*
X009830Y005450D01*
X009830Y005140D01*
X010037Y005140D01*
X010140Y005243D01*
X010140Y005450D01*
X010037Y005554D01*
X009623Y005347D02*
X009830Y005140D01*
X009623Y005347D02*
X009519Y005554D01*
X010140Y004554D02*
X010140Y004140D01*
X010140Y004347D02*
X009519Y004347D01*
X009726Y004140D01*
D14*
X002780Y002000D02*
X002580Y002000D01*
X002580Y014200D01*
X002780Y014200D01*
X002780Y012200D01*
X002980Y012200D01*
X002980Y012150D01*
X003930Y012150D01*
X003960Y012148D01*
X003990Y012143D01*
X004019Y012134D01*
X004046Y012121D01*
X004072Y012106D01*
X004096Y012087D01*
X004117Y012066D01*
X004136Y012042D01*
X004151Y012016D01*
X004164Y011989D01*
X004173Y011960D01*
X004178Y011930D01*
X004180Y011900D01*
X004180Y011850D02*
X004180Y014200D01*
X008230Y014200D01*
X008430Y014000D01*
X008430Y012050D01*
X008230Y011850D01*
X004180Y011850D01*
X004180Y011750D01*
X004480Y011750D01*
X004480Y004450D01*
X004180Y004450D01*
X004180Y011750D01*
X002780Y012200D02*
X002780Y004000D01*
X002980Y004000D01*
X002980Y004050D01*
X003930Y004050D01*
X003960Y004052D01*
X003990Y004057D01*
X004019Y004066D01*
X004046Y004079D01*
X004072Y004094D01*
X004096Y004113D01*
X004117Y004134D01*
X004136Y004158D01*
X004151Y004184D01*
X004164Y004211D01*
X004173Y004240D01*
X004178Y004270D01*
X004180Y004300D01*
X004180Y004350D02*
X008230Y004350D01*
X008430Y004150D01*
X008430Y002250D01*
X008180Y002000D01*
X004180Y002000D01*
X002780Y002000D01*
X002780Y004000D01*
X002580Y004650D02*
X002578Y004680D01*
X002573Y004710D01*
X002564Y004739D01*
X002551Y004766D01*
X002536Y004792D01*
X002517Y004816D01*
X002496Y004837D01*
X002472Y004856D01*
X002446Y004871D01*
X002419Y004884D01*
X002390Y004893D01*
X002360Y004898D01*
X002330Y004900D01*
X000330Y004900D01*
X000304Y004902D01*
X000278Y004907D01*
X000253Y004915D01*
X000230Y004927D01*
X000208Y004941D01*
X000189Y004959D01*
X000171Y004978D01*
X000157Y005000D01*
X000145Y005023D01*
X000137Y005048D01*
X000132Y005074D01*
X000130Y005100D01*
X000130Y011100D01*
X000132Y011126D01*
X000137Y011152D01*
X000145Y011177D01*
X000157Y011200D01*
X000171Y011222D01*
X000189Y011241D01*
X000208Y011259D01*
X000230Y011273D01*
X000253Y011285D01*
X000278Y011293D01*
X000304Y011298D01*
X000330Y011300D01*
X002330Y011300D01*
X002360Y011302D01*
X002390Y011307D01*
X002419Y011316D01*
X002446Y011329D01*
X002472Y011344D01*
X002496Y011363D01*
X002517Y011384D01*
X002536Y011408D01*
X002551Y011434D01*
X002564Y011461D01*
X002573Y011490D01*
X002578Y011520D01*
X002580Y011550D01*
X002780Y014200D02*
X004180Y014200D01*
X004211Y014421D02*
X004461Y014421D01*
X004461Y015350D01*
X005861Y015350D01*
X006161Y015350D01*
X005861Y015350D02*
X005861Y014500D01*
X007711Y014500D01*
X007711Y015350D01*
X007261Y015350D01*
X007711Y015350D02*
X007711Y021350D01*
X007261Y021350D01*
X007711Y021350D02*
X007711Y022200D01*
X009261Y021800D01*
X007711Y022200D02*
X005861Y022200D01*
X005861Y021350D01*
X006161Y021350D01*
X005861Y021350D02*
X004461Y021350D01*
X004461Y022314D01*
X004211Y022314D01*
X004211Y022297D01*
X004011Y022297D01*
X004011Y022314D01*
X003711Y022314D01*
X003711Y014421D01*
X004011Y014421D01*
X004051Y014426D01*
X004251Y014426D01*
X004211Y014421D01*
X007711Y014500D02*
X009211Y014900D01*
X009211Y017100D02*
X009211Y017600D01*
X010111Y017600D01*
X010111Y019100D01*
X009261Y019100D01*
X009261Y019600D01*
X004180Y004450D02*
X004180Y004350D01*
X004180Y002000D01*
X014460Y001464D02*
X014460Y001130D01*
X014460Y001380D02*
X014794Y001380D01*
X014794Y001464D02*
X014794Y001130D01*
X014794Y001464D02*
X014627Y001630D01*
X014460Y001464D01*
X015460Y001380D02*
X015710Y001380D01*
X015794Y001297D01*
X015794Y001213D01*
X015710Y001130D01*
X015460Y001130D01*
X015460Y001630D01*
X015710Y001630D01*
X015794Y001547D01*
X015794Y001464D01*
X015710Y001380D01*
X016460Y001213D02*
X016543Y001130D01*
X016710Y001130D01*
X016794Y001213D01*
X016460Y001213D02*
X016460Y001547D01*
X016543Y001630D01*
X016710Y001630D01*
X016794Y001547D01*
X017460Y001630D02*
X017460Y001130D01*
X017710Y001130D01*
X017794Y001213D01*
X017794Y001547D01*
X017710Y001630D01*
X017460Y001630D01*
X018460Y001630D02*
X018460Y001130D01*
X018794Y001130D01*
X018627Y001380D02*
X018460Y001380D01*
X018460Y001630D02*
X018794Y001630D01*
X019460Y001630D02*
X019460Y001130D01*
X019460Y001380D02*
X019627Y001380D01*
X019460Y001630D02*
X019794Y001630D01*
X020460Y001547D02*
X020460Y001213D01*
X020543Y001130D01*
X020710Y001130D01*
X020794Y001213D01*
X020794Y001380D01*
X020627Y001380D01*
X020794Y001547D02*
X020710Y001630D01*
X020543Y001630D01*
X020460Y001547D01*
X021460Y001630D02*
X021460Y001130D01*
X021460Y001380D02*
X021794Y001380D01*
X021794Y001630D02*
X021794Y001130D01*
X022460Y001130D02*
X022627Y001130D01*
X022543Y001130D02*
X022543Y001630D01*
X022460Y001630D02*
X022627Y001630D01*
X023460Y001213D02*
X023543Y001130D01*
X023627Y001130D01*
X023710Y001213D01*
X023710Y001630D01*
X023627Y001630D02*
X023794Y001630D01*
X024460Y001630D02*
X024460Y001130D01*
X024460Y001297D02*
X024794Y001630D01*
X024543Y001380D02*
X024794Y001130D01*
X025460Y001130D02*
X025460Y001630D01*
X025460Y001130D02*
X025794Y001130D01*
X026460Y001130D02*
X026460Y001630D01*
X026627Y001464D01*
X026794Y001630D01*
X026794Y001130D01*
X027460Y001130D02*
X027460Y001630D01*
X027794Y001130D01*
X027794Y001630D01*
X028460Y001547D02*
X028460Y001213D01*
X028543Y001130D01*
X028710Y001130D01*
X028794Y001213D01*
X028794Y001547D01*
X028710Y001630D01*
X028543Y001630D01*
X028460Y001547D01*
X029460Y001630D02*
X029460Y001130D01*
X029460Y001297D02*
X029710Y001297D01*
X029794Y001380D01*
X029794Y001547D01*
X029710Y001630D01*
X029460Y001630D01*
X030460Y001547D02*
X030543Y001630D01*
X030710Y001630D01*
X030794Y001547D01*
X030794Y001213D01*
X030710Y001130D01*
X030543Y001130D01*
X030460Y001213D01*
X030460Y001547D01*
X030627Y001297D02*
X030794Y001130D01*
X031460Y001130D02*
X031460Y001630D01*
X031710Y001630D01*
X031794Y001547D01*
X031794Y001380D01*
X031710Y001297D01*
X031460Y001297D01*
X031627Y001297D02*
X031794Y001130D01*
X032460Y001213D02*
X032543Y001130D01*
X032710Y001130D01*
X032794Y001213D01*
X032794Y001297D01*
X032710Y001380D01*
X032543Y001380D01*
X032460Y001464D01*
X032460Y001547D01*
X032543Y001630D01*
X032710Y001630D01*
X032794Y001547D01*
X033460Y001630D02*
X033794Y001630D01*
X033627Y001630D02*
X033627Y001130D01*
X034460Y001213D02*
X034460Y001630D01*
X034794Y001630D02*
X034794Y001213D01*
X034710Y001130D01*
X034543Y001130D01*
X034460Y001213D01*
X035460Y001297D02*
X035627Y001130D01*
X035794Y001297D01*
X035794Y001630D01*
X035460Y001630D02*
X035460Y001297D01*
X036460Y001130D02*
X036627Y001297D01*
X036794Y001130D01*
X036794Y001630D01*
X036460Y001630D02*
X036460Y001130D01*
X037460Y001130D02*
X037794Y001630D01*
X037460Y001630D02*
X037794Y001130D01*
X038460Y001547D02*
X038460Y001630D01*
X038460Y001547D02*
X038627Y001380D01*
X038627Y001130D01*
X038627Y001380D02*
X038794Y001547D01*
X038794Y001630D01*
X039793Y003380D02*
X039710Y003463D01*
X039793Y003380D02*
X039960Y003380D01*
X040044Y003463D01*
X040044Y003547D01*
X039960Y003630D01*
X039877Y003630D01*
X039960Y003630D02*
X040044Y003714D01*
X040044Y003797D01*
X039960Y003880D01*
X039793Y003880D01*
X039710Y003797D01*
X040226Y003630D02*
X040559Y003630D01*
X040476Y003380D02*
X040476Y003880D01*
X040226Y003630D01*
X040309Y004380D02*
X040226Y004463D01*
X040309Y004380D02*
X040476Y004380D01*
X040559Y004463D01*
X040559Y004547D01*
X040476Y004630D01*
X040392Y004630D01*
X040476Y004630D02*
X040559Y004714D01*
X040559Y004797D01*
X040476Y004880D01*
X040309Y004880D01*
X040226Y004797D01*
X040044Y004797D02*
X040044Y004714D01*
X039960Y004630D01*
X040044Y004547D01*
X040044Y004463D01*
X039960Y004380D01*
X039793Y004380D01*
X039710Y004463D01*
X039877Y004630D02*
X039960Y004630D01*
X040044Y004797D02*
X039960Y004880D01*
X039793Y004880D01*
X039710Y004797D01*
X039793Y005380D02*
X039710Y005463D01*
X039793Y005380D02*
X039960Y005380D01*
X040044Y005463D01*
X040044Y005547D01*
X039960Y005630D01*
X039877Y005630D01*
X039960Y005630D02*
X040044Y005714D01*
X040044Y005797D01*
X039960Y005880D01*
X039793Y005880D01*
X039710Y005797D01*
X040226Y005797D02*
X040309Y005880D01*
X040476Y005880D01*
X040559Y005797D01*
X040559Y005714D01*
X040226Y005380D01*
X040559Y005380D01*
X040559Y006380D02*
X040226Y006380D01*
X040392Y006380D02*
X040392Y006880D01*
X040226Y006714D01*
X040044Y006714D02*
X040044Y006797D01*
X039960Y006880D01*
X039793Y006880D01*
X039710Y006797D01*
X039877Y006630D02*
X039960Y006630D01*
X040044Y006547D01*
X040044Y006463D01*
X039960Y006380D01*
X039793Y006380D01*
X039710Y006463D01*
X039960Y006630D02*
X040044Y006714D01*
X039960Y007380D02*
X039793Y007380D01*
X039710Y007463D01*
X039877Y007630D02*
X039960Y007630D01*
X040044Y007547D01*
X040044Y007463D01*
X039960Y007380D01*
X039960Y007630D02*
X040044Y007714D01*
X040044Y007797D01*
X039960Y007880D01*
X039793Y007880D01*
X039710Y007797D01*
X040226Y007797D02*
X040226Y007463D01*
X040559Y007797D01*
X040559Y007463D01*
X040476Y007380D01*
X040309Y007380D01*
X040226Y007463D01*
X040226Y007797D02*
X040309Y007880D01*
X040476Y007880D01*
X040559Y007797D01*
X040476Y008380D02*
X040559Y008463D01*
X040559Y008797D01*
X040476Y008880D01*
X040309Y008880D01*
X040226Y008797D01*
X040226Y008714D01*
X040309Y008630D01*
X040559Y008630D01*
X040476Y008380D02*
X040309Y008380D01*
X040226Y008463D01*
X040044Y008380D02*
X039710Y008380D01*
X040044Y008714D01*
X040044Y008797D01*
X039960Y008880D01*
X039793Y008880D01*
X039710Y008797D01*
X039710Y009380D02*
X040044Y009714D01*
X040044Y009797D01*
X039960Y009880D01*
X039793Y009880D01*
X039710Y009797D01*
X039710Y009380D02*
X040044Y009380D01*
X040226Y009463D02*
X040226Y009547D01*
X040309Y009630D01*
X040476Y009630D01*
X040559Y009547D01*
X040559Y009463D01*
X040476Y009380D01*
X040309Y009380D01*
X040226Y009463D01*
X040309Y009630D02*
X040226Y009714D01*
X040226Y009797D01*
X040309Y009880D01*
X040476Y009880D01*
X040559Y009797D01*
X040559Y009714D01*
X040476Y009630D01*
X040226Y010380D02*
X040226Y010463D01*
X040559Y010797D01*
X040559Y010880D01*
X040226Y010880D01*
X040044Y010797D02*
X039960Y010880D01*
X039793Y010880D01*
X039710Y010797D01*
X040044Y010797D02*
X040044Y010714D01*
X039710Y010380D01*
X040044Y010380D01*
X040044Y011380D02*
X039710Y011380D01*
X040044Y011714D01*
X040044Y011797D01*
X039960Y011880D01*
X039793Y011880D01*
X039710Y011797D01*
X040226Y011630D02*
X040226Y011463D01*
X040309Y011380D01*
X040476Y011380D01*
X040559Y011463D01*
X040559Y011547D01*
X040476Y011630D01*
X040226Y011630D01*
X040392Y011797D01*
X040559Y011880D01*
X040476Y012380D02*
X040309Y012380D01*
X040226Y012463D01*
X040226Y012630D02*
X040392Y012714D01*
X040476Y012714D01*
X040559Y012630D01*
X040559Y012463D01*
X040476Y012380D01*
X040226Y012630D02*
X040226Y012880D01*
X040559Y012880D01*
X040476Y013380D02*
X040476Y013880D01*
X040226Y013630D01*
X040559Y013630D01*
X040044Y013714D02*
X039710Y013380D01*
X040044Y013380D01*
X040044Y013714D02*
X040044Y013797D01*
X039960Y013880D01*
X039793Y013880D01*
X039710Y013797D01*
X039710Y014380D02*
X040044Y014714D01*
X040044Y014797D01*
X039960Y014880D01*
X039793Y014880D01*
X039710Y014797D01*
X039710Y014380D02*
X040044Y014380D01*
X040226Y014463D02*
X040309Y014380D01*
X040476Y014380D01*
X040559Y014463D01*
X040559Y014547D01*
X040476Y014630D01*
X040392Y014630D01*
X040476Y014630D02*
X040559Y014714D01*
X040559Y014797D01*
X040476Y014880D01*
X040309Y014880D01*
X040226Y014797D01*
X040226Y015380D02*
X040559Y015714D01*
X040559Y015797D01*
X040476Y015880D01*
X040309Y015880D01*
X040226Y015797D01*
X040044Y015797D02*
X039960Y015880D01*
X039793Y015880D01*
X039710Y015797D01*
X040044Y015797D02*
X040044Y015714D01*
X039710Y015380D01*
X040044Y015380D01*
X040226Y015380D02*
X040559Y015380D01*
X040559Y016380D02*
X040226Y016380D01*
X040392Y016380D02*
X040392Y016880D01*
X040226Y016714D01*
X040044Y016714D02*
X039710Y016380D01*
X040044Y016380D01*
X040044Y016714D02*
X040044Y016797D01*
X039960Y016880D01*
X039793Y016880D01*
X039710Y016797D01*
X039710Y017380D02*
X040044Y017714D01*
X040044Y017797D01*
X039960Y017880D01*
X039793Y017880D01*
X039710Y017797D01*
X039710Y017380D02*
X040044Y017380D01*
X040226Y017463D02*
X040559Y017797D01*
X040559Y017463D01*
X040476Y017380D01*
X040309Y017380D01*
X040226Y017463D01*
X040226Y017797D01*
X040309Y017880D01*
X040476Y017880D01*
X040559Y017797D01*
X040476Y018380D02*
X040559Y018463D01*
X040559Y018797D01*
X040476Y018880D01*
X040309Y018880D01*
X040226Y018797D01*
X040226Y018714D01*
X040309Y018630D01*
X040559Y018630D01*
X040476Y018380D02*
X040309Y018380D01*
X040226Y018463D01*
X040044Y018380D02*
X039710Y018380D01*
X039877Y018380D02*
X039877Y018880D01*
X039710Y018714D01*
X039710Y019380D02*
X040044Y019380D01*
X039877Y019380D02*
X039877Y019880D01*
X039710Y019714D01*
X040226Y019714D02*
X040226Y019797D01*
X040309Y019880D01*
X040476Y019880D01*
X040559Y019797D01*
X040559Y019714D01*
X040476Y019630D01*
X040309Y019630D01*
X040226Y019714D01*
X040309Y019630D02*
X040226Y019547D01*
X040226Y019463D01*
X040309Y019380D01*
X040476Y019380D01*
X040559Y019463D01*
X040559Y019547D01*
X040476Y019630D01*
X040226Y020380D02*
X040226Y020463D01*
X040559Y020797D01*
X040559Y020880D01*
X040226Y020880D01*
X039877Y020880D02*
X039877Y020380D01*
X039710Y020380D02*
X040044Y020380D01*
X039710Y020714D02*
X039877Y020880D01*
X039877Y021380D02*
X039877Y021880D01*
X039710Y021714D01*
X039710Y021380D02*
X040044Y021380D01*
X040226Y021463D02*
X040309Y021380D01*
X040476Y021380D01*
X040559Y021463D01*
X040559Y021547D01*
X040476Y021630D01*
X040226Y021630D01*
X040226Y021463D01*
X040226Y021630D02*
X040392Y021797D01*
X040559Y021880D01*
X040476Y022380D02*
X040309Y022380D01*
X040226Y022463D01*
X040226Y022630D02*
X040392Y022714D01*
X040476Y022714D01*
X040559Y022630D01*
X040559Y022463D01*
X040476Y022380D01*
X040226Y022630D02*
X040226Y022880D01*
X040559Y022880D01*
X039877Y022880D02*
X039877Y022380D01*
X039710Y022380D02*
X040044Y022380D01*
X039710Y022714D02*
X039877Y022880D01*
X039877Y023380D02*
X039877Y023880D01*
X039710Y023714D01*
X039710Y023380D02*
X040044Y023380D01*
X040226Y023630D02*
X040476Y023880D01*
X040476Y023380D01*
X040559Y023630D02*
X040226Y023630D01*
X040309Y024380D02*
X040226Y024463D01*
X040309Y024380D02*
X040476Y024380D01*
X040559Y024463D01*
X040559Y024547D01*
X040476Y024630D01*
X040392Y024630D01*
X040476Y024630D02*
X040559Y024714D01*
X040559Y024797D01*
X040476Y024880D01*
X040309Y024880D01*
X040226Y024797D01*
X039877Y024880D02*
X039877Y024380D01*
X039710Y024380D02*
X040044Y024380D01*
X039710Y024714D02*
X039877Y024880D01*
X039877Y025380D02*
X039877Y025880D01*
X039710Y025714D01*
X039710Y025380D02*
X040044Y025380D01*
X040226Y025380D02*
X040559Y025714D01*
X040559Y025797D01*
X040476Y025880D01*
X040309Y025880D01*
X040226Y025797D01*
X040226Y025380D02*
X040559Y025380D01*
X040559Y026380D02*
X040226Y026380D01*
X040392Y026380D02*
X040392Y026880D01*
X040226Y026714D01*
X040044Y026380D02*
X039710Y026380D01*
X039877Y026380D02*
X039877Y026880D01*
X039710Y026714D01*
X039710Y027380D02*
X040044Y027380D01*
X039877Y027380D02*
X039877Y027880D01*
X039710Y027714D01*
X040226Y027797D02*
X040226Y027463D01*
X040559Y027797D01*
X040559Y027463D01*
X040476Y027380D01*
X040309Y027380D01*
X040226Y027463D01*
X040226Y027797D02*
X040309Y027880D01*
X040476Y027880D01*
X040559Y027797D01*
X039960Y028380D02*
X040044Y028463D01*
X040044Y028797D01*
X039960Y028880D01*
X039793Y028880D01*
X039710Y028797D01*
X039710Y028714D01*
X039793Y028630D01*
X040044Y028630D01*
X039960Y028380D02*
X039793Y028380D01*
X039710Y028463D01*
X039793Y029380D02*
X039710Y029463D01*
X039710Y029547D01*
X039793Y029630D01*
X039960Y029630D01*
X040044Y029547D01*
X040044Y029463D01*
X039960Y029380D01*
X039793Y029380D01*
X039793Y029630D02*
X039710Y029714D01*
X039710Y029797D01*
X039793Y029880D01*
X039960Y029880D01*
X040044Y029797D01*
X040044Y029714D01*
X039960Y029630D01*
X039710Y030380D02*
X039710Y030463D01*
X040044Y030797D01*
X040044Y030880D01*
X039710Y030880D01*
X039793Y031380D02*
X039960Y031380D01*
X040044Y031463D01*
X040044Y031547D01*
X039960Y031630D01*
X039710Y031630D01*
X039710Y031463D01*
X039793Y031380D01*
X039710Y031630D02*
X039877Y031797D01*
X040044Y031880D01*
X039960Y032380D02*
X039793Y032380D01*
X039710Y032463D01*
X039710Y032630D02*
X039877Y032714D01*
X039960Y032714D01*
X040044Y032630D01*
X040044Y032463D01*
X039960Y032380D01*
X039710Y032630D02*
X039710Y032880D01*
X040044Y032880D01*
X039960Y033380D02*
X039960Y033880D01*
X039710Y033630D01*
X040044Y033630D01*
X039960Y034380D02*
X039793Y034380D01*
X039710Y034463D01*
X039877Y034630D02*
X039960Y034630D01*
X040044Y034547D01*
X040044Y034463D01*
X039960Y034380D01*
X039960Y034630D02*
X040044Y034714D01*
X040044Y034797D01*
X039960Y034880D01*
X039793Y034880D01*
X039710Y034797D01*
X039710Y035380D02*
X040044Y035714D01*
X040044Y035797D01*
X039960Y035880D01*
X039793Y035880D01*
X039710Y035797D01*
X039710Y035380D02*
X040044Y035380D01*
X040044Y036380D02*
X039710Y036380D01*
X039877Y036380D02*
X039877Y036880D01*
X039710Y036714D01*
X039793Y012880D02*
X039710Y012797D01*
X039793Y012880D02*
X039960Y012880D01*
X040044Y012797D01*
X040044Y012714D01*
X039710Y012380D01*
X040044Y012380D01*
D15*
X039180Y012100D02*
X039180Y007100D01*
X039180Y002100D01*
X034180Y002100D01*
X034180Y007100D01*
X039180Y007100D01*
X034180Y007100D01*
X034180Y012100D01*
X039180Y012100D01*
X034180Y012100D01*
X034180Y017100D01*
X039180Y017100D01*
X039180Y012100D01*
X034180Y012100D02*
X034180Y007100D01*
X034180Y002100D01*
X029180Y002100D01*
X029180Y007100D01*
X034180Y007100D01*
X029180Y007100D01*
X029180Y012100D01*
X034180Y012100D01*
X029180Y012100D01*
X029180Y017100D01*
X034180Y017100D01*
X034180Y022100D01*
X039180Y022100D01*
X039180Y017100D01*
X034180Y017100D01*
X034180Y012100D01*
X029180Y012100D02*
X029180Y007100D01*
X029180Y002100D01*
X024180Y002100D01*
X024180Y007100D01*
X029180Y007100D01*
X024180Y007100D01*
X024180Y012100D01*
X029180Y012100D01*
X024180Y012100D01*
X024180Y017100D01*
X029180Y017100D01*
X029180Y022100D01*
X034180Y022100D01*
X034180Y027100D01*
X039180Y027100D01*
X039180Y022100D01*
X034180Y022100D01*
X034180Y017100D01*
X029180Y017100D01*
X029180Y012100D01*
X024180Y012100D02*
X024180Y007100D01*
X024180Y002100D01*
X019180Y002100D01*
X019180Y007100D01*
X024180Y007100D01*
X019180Y007100D01*
X019180Y012100D01*
X024180Y012100D01*
X019180Y012100D01*
X019180Y017100D01*
X024180Y017100D01*
X024180Y022100D01*
X029180Y022100D01*
X029180Y027100D01*
X034180Y027100D01*
X034180Y032100D01*
X039180Y032100D01*
X039180Y027100D01*
X034180Y027100D01*
X034180Y022100D01*
X029180Y022100D01*
X029180Y017100D01*
X024180Y017100D01*
X024180Y012100D01*
X019180Y012100D02*
X019180Y007100D01*
X019180Y002100D01*
X014180Y002100D01*
X014180Y007100D01*
X019180Y007100D01*
X014180Y007100D01*
X014180Y012100D01*
X019180Y012100D01*
X014180Y012100D01*
X014180Y017100D01*
X019180Y017100D01*
X019180Y022100D01*
X024180Y022100D01*
X024180Y027100D01*
X029180Y027100D01*
X029180Y032100D01*
X034180Y032100D01*
X034180Y037100D01*
X039180Y037100D01*
X039180Y032100D01*
X034180Y032100D01*
X034180Y027100D01*
X029180Y027100D01*
X029180Y022100D01*
X024180Y022100D01*
X024180Y017100D01*
X019180Y017100D01*
X019180Y012100D01*
X019180Y017100D02*
X014180Y017100D01*
X014180Y022100D01*
X019180Y022100D01*
X019180Y027100D01*
X024180Y027100D01*
X024180Y032100D01*
X029180Y032100D01*
X029180Y037100D01*
X034180Y037100D01*
X034180Y032100D01*
X029180Y032100D01*
X029180Y027100D01*
X024180Y027100D01*
X024180Y022100D01*
X019180Y022100D01*
X019180Y017100D01*
X019180Y022100D02*
X014180Y022100D01*
X014180Y027100D01*
X019180Y027100D01*
X019180Y032100D01*
X024180Y032100D01*
X024180Y037100D01*
X029180Y037100D01*
X029180Y032100D01*
X024180Y032100D01*
X024180Y027100D01*
X019180Y027100D01*
X019180Y022100D01*
X019180Y027100D02*
X014180Y027100D01*
X014180Y032100D01*
X019180Y032100D01*
X019180Y037100D01*
X024180Y037100D01*
X024180Y032100D01*
X019180Y032100D01*
X019180Y027100D01*
X019180Y032100D02*
X014180Y032100D01*
X014180Y037100D01*
X019180Y037100D01*
X019180Y032100D01*
X008430Y026600D02*
X008430Y022600D01*
X004930Y022600D01*
X004430Y023350D02*
X004430Y023600D01*
X000430Y023600D01*
X000430Y025600D01*
X004430Y025600D01*
X004430Y025850D01*
X004430Y025600D02*
X004430Y023600D01*
X004930Y026600D02*
X008430Y026600D01*
X009486Y021465D02*
X009486Y021165D01*
X009711Y021165D01*
X009636Y021315D01*
X009636Y021390D01*
X009711Y021465D01*
X009861Y021465D01*
X009936Y021390D01*
X009936Y021240D01*
X009861Y021165D01*
X008286Y020590D02*
X008286Y020440D01*
X008211Y020365D01*
X008061Y020515D02*
X008061Y020590D01*
X008136Y020665D01*
X008211Y020665D01*
X008286Y020590D01*
X008061Y020590D02*
X007986Y020665D01*
X007911Y020665D01*
X007836Y020590D01*
X007836Y020440D01*
X007911Y020365D01*
X007911Y019365D02*
X007836Y019290D01*
X007836Y019140D01*
X007911Y019065D01*
X007911Y019365D02*
X007986Y019365D01*
X008286Y019065D01*
X008286Y019365D01*
X008286Y016215D02*
X008286Y015915D01*
X008286Y016065D02*
X007836Y016065D01*
X007986Y015915D01*
X009486Y015290D02*
X009711Y015065D01*
X009711Y015365D01*
X009936Y015290D02*
X009486Y015290D01*
X007830Y011175D02*
X007680Y011175D01*
X007605Y011100D01*
X007605Y011025D01*
X007680Y010875D01*
X007455Y010875D01*
X007455Y011175D01*
X007830Y011175D02*
X007905Y011100D01*
X007905Y010950D01*
X007830Y010875D01*
X006905Y010950D02*
X006905Y011100D01*
X006830Y011175D01*
X006530Y011175D01*
X006455Y011100D01*
X006455Y010950D01*
X006530Y010875D01*
X006605Y010875D01*
X006680Y010950D01*
X006680Y011175D01*
X006905Y010950D02*
X006830Y010875D01*
X006830Y005425D02*
X006755Y005425D01*
X006680Y005350D01*
X006680Y005125D01*
X006830Y005125D01*
X006905Y005200D01*
X006905Y005350D01*
X006830Y005425D01*
X006530Y005275D02*
X006680Y005125D01*
X006530Y005275D02*
X006455Y005425D01*
X007455Y005275D02*
X007605Y005125D01*
X007455Y005275D02*
X007905Y005275D01*
X007905Y005125D02*
X007905Y005425D01*
X002448Y033789D02*
X002448Y037332D01*
X008196Y037332D01*
D16*
X004330Y008100D03*
D17*
X002680Y008100D03*
D18*
X000934Y027777D02*
X000934Y032423D01*
D19*
X000930Y032500D02*
X004030Y032500D01*
X005830Y032500D02*
X007330Y032500D01*
X007330Y027700D01*
X005830Y027700D01*
X004030Y027700D02*
X000930Y027700D01*
M02*
