G75*
%MOIN*%
%OFA0B0*%
%FSLAX24Y24*%
%IPPOS*%
%LPD*%
%AMOC8*
5,1,8,0,0,1.08239X$1,22.5*
%
%ADD10C,0.0000*%
%ADD11C,0.0080*%
%ADD12C,0.1890*%
%ADD13OC8,0.0660*%
%ADD14C,0.2000*%
%ADD15C,0.2300*%
%ADD16C,0.0560*%
%ADD17C,0.0780*%
%ADD18OC8,0.0860*%
%ADD19C,0.1500*%
%ADD20C,0.0660*%
%ADD21C,0.1181*%
%ADD22C,0.0160*%
D10*
X003680Y000100D02*
X003680Y039470D01*
X043050Y039470D01*
X043050Y000100D01*
X003680Y000100D01*
X004036Y022850D02*
X004038Y022889D01*
X004044Y022928D01*
X004054Y022966D01*
X004067Y023003D01*
X004084Y023038D01*
X004104Y023072D01*
X004128Y023103D01*
X004155Y023132D01*
X004184Y023158D01*
X004216Y023181D01*
X004250Y023201D01*
X004286Y023217D01*
X004323Y023229D01*
X004362Y023238D01*
X004401Y023243D01*
X004440Y023244D01*
X004479Y023241D01*
X004518Y023234D01*
X004555Y023223D01*
X004592Y023209D01*
X004627Y023191D01*
X004660Y023170D01*
X004691Y023145D01*
X004719Y023118D01*
X004744Y023088D01*
X004766Y023055D01*
X004785Y023021D01*
X004800Y022985D01*
X004812Y022947D01*
X004820Y022909D01*
X004824Y022870D01*
X004824Y022830D01*
X004820Y022791D01*
X004812Y022753D01*
X004800Y022715D01*
X004785Y022679D01*
X004766Y022645D01*
X004744Y022612D01*
X004719Y022582D01*
X004691Y022555D01*
X004660Y022530D01*
X004627Y022509D01*
X004592Y022491D01*
X004555Y022477D01*
X004518Y022466D01*
X004479Y022459D01*
X004440Y022456D01*
X004401Y022457D01*
X004362Y022462D01*
X004323Y022471D01*
X004286Y022483D01*
X004250Y022499D01*
X004216Y022519D01*
X004184Y022542D01*
X004155Y022568D01*
X004128Y022597D01*
X004104Y022628D01*
X004084Y022662D01*
X004067Y022697D01*
X004054Y022734D01*
X004044Y022772D01*
X004038Y022811D01*
X004036Y022850D01*
X004036Y026350D02*
X004038Y026389D01*
X004044Y026428D01*
X004054Y026466D01*
X004067Y026503D01*
X004084Y026538D01*
X004104Y026572D01*
X004128Y026603D01*
X004155Y026632D01*
X004184Y026658D01*
X004216Y026681D01*
X004250Y026701D01*
X004286Y026717D01*
X004323Y026729D01*
X004362Y026738D01*
X004401Y026743D01*
X004440Y026744D01*
X004479Y026741D01*
X004518Y026734D01*
X004555Y026723D01*
X004592Y026709D01*
X004627Y026691D01*
X004660Y026670D01*
X004691Y026645D01*
X004719Y026618D01*
X004744Y026588D01*
X004766Y026555D01*
X004785Y026521D01*
X004800Y026485D01*
X004812Y026447D01*
X004820Y026409D01*
X004824Y026370D01*
X004824Y026330D01*
X004820Y026291D01*
X004812Y026253D01*
X004800Y026215D01*
X004785Y026179D01*
X004766Y026145D01*
X004744Y026112D01*
X004719Y026082D01*
X004691Y026055D01*
X004660Y026030D01*
X004627Y026009D01*
X004592Y025991D01*
X004555Y025977D01*
X004518Y025966D01*
X004479Y025959D01*
X004440Y025956D01*
X004401Y025957D01*
X004362Y025962D01*
X004323Y025971D01*
X004286Y025983D01*
X004250Y025999D01*
X004216Y026019D01*
X004184Y026042D01*
X004155Y026068D01*
X004128Y026097D01*
X004104Y026128D01*
X004084Y026162D01*
X004067Y026197D01*
X004054Y026234D01*
X004044Y026272D01*
X004038Y026311D01*
X004036Y026350D01*
D11*
X019363Y037940D02*
X019466Y038043D01*
X019466Y038457D01*
X019363Y038354D02*
X019570Y038354D01*
X019801Y038250D02*
X019801Y038147D01*
X020214Y038147D01*
X020214Y038250D02*
X020111Y038354D01*
X019904Y038354D01*
X019801Y038250D01*
X019904Y037940D02*
X020111Y037940D01*
X020214Y038043D01*
X020214Y038250D01*
X020445Y038250D02*
X020445Y037940D01*
X020445Y038250D02*
X020549Y038354D01*
X020859Y038354D01*
X020859Y037940D01*
X021078Y037940D02*
X021181Y037940D01*
X021181Y038043D01*
X021078Y038043D01*
X021078Y037940D01*
X021404Y037940D02*
X021507Y038043D01*
X021507Y038457D01*
X021404Y038354D02*
X021611Y038354D01*
X021842Y038250D02*
X021945Y038354D01*
X022152Y038354D01*
X022255Y038250D01*
X022255Y038043D01*
X022152Y037940D01*
X021945Y037940D01*
X021842Y038043D01*
X021842Y038250D01*
X022486Y038250D02*
X022486Y038043D01*
X022590Y037940D01*
X022900Y037940D01*
X022900Y037733D02*
X022900Y038354D01*
X022590Y038354D01*
X022486Y038250D01*
X023131Y038250D02*
X023131Y038147D01*
X023544Y038147D01*
X023544Y038250D02*
X023441Y038354D01*
X023234Y038354D01*
X023131Y038250D01*
X023234Y037940D02*
X023441Y037940D01*
X023544Y038043D01*
X023544Y038250D01*
X023775Y038043D02*
X023879Y037940D01*
X024189Y037940D01*
X024189Y038561D01*
X023879Y038561D01*
X023775Y038457D01*
X023775Y038043D01*
X024420Y038043D02*
X024523Y037940D01*
X024730Y037940D01*
X024834Y038043D01*
X024834Y038250D01*
X024730Y038354D01*
X024523Y038354D01*
X024420Y038250D01*
X024420Y038043D01*
X025060Y038354D02*
X025164Y038354D01*
X025371Y038147D01*
X025371Y037940D02*
X025371Y038354D01*
X025594Y038354D02*
X025800Y038354D01*
X025697Y038457D02*
X025697Y038043D01*
X025594Y037940D01*
X026031Y038147D02*
X026445Y038147D01*
X026445Y038250D02*
X026341Y038354D01*
X026135Y038354D01*
X026031Y038250D01*
X026031Y038147D01*
X026135Y037940D02*
X026341Y037940D01*
X026445Y038043D01*
X026445Y038250D01*
X026676Y038250D02*
X026779Y038147D01*
X027089Y038147D01*
X026883Y038147D02*
X026676Y037940D01*
X026676Y038250D02*
X026676Y038457D01*
X026779Y038561D01*
X027089Y038561D01*
X027089Y037940D01*
D12*
X007837Y035639D03*
X006656Y033789D03*
X005515Y035639D03*
D13*
X005997Y030592D03*
X006784Y030592D03*
X006784Y029608D03*
X005997Y029608D03*
X007680Y010260D03*
X007680Y009180D03*
X006680Y008640D03*
X006680Y007560D03*
X007680Y007020D03*
X007680Y005940D03*
X006680Y006480D03*
X007680Y008100D03*
X006680Y009720D03*
D14*
X007180Y013030D03*
X007180Y003170D03*
D15*
X011180Y002100D03*
X041180Y002100D03*
X041180Y037600D03*
X011180Y037600D03*
D16*
X011180Y035600D03*
X011180Y034600D03*
X011180Y033600D03*
X011180Y032600D03*
X011180Y031600D03*
X011180Y030600D03*
X011180Y029600D03*
X011180Y028600D03*
X012180Y028600D03*
X012180Y029600D03*
X013180Y029600D03*
X013180Y028600D03*
X013180Y030600D03*
X013180Y031600D03*
X012180Y031600D03*
X012180Y030600D03*
X012180Y032600D03*
X012180Y033600D03*
X013180Y033600D03*
X013180Y032600D03*
X013180Y034600D03*
X013180Y035600D03*
X012180Y035600D03*
X012180Y034600D03*
X012180Y024600D03*
X013180Y024600D03*
X011180Y024600D03*
X011180Y020350D03*
X011180Y019350D03*
X011180Y018350D03*
X011180Y017350D03*
X011180Y016350D03*
X012180Y016350D03*
X012180Y017350D03*
X013180Y017350D03*
X013180Y016350D03*
X013180Y018350D03*
X013180Y019350D03*
X012180Y019350D03*
X012180Y018350D03*
X012180Y020350D03*
X013180Y020350D03*
X013180Y012100D03*
X013180Y011100D03*
X012180Y011100D03*
X012180Y012100D03*
X011180Y012100D03*
X011180Y011100D03*
X011180Y010100D03*
X011180Y009100D03*
X011180Y008100D03*
X011180Y007100D03*
X011180Y006100D03*
X011180Y005100D03*
X011180Y004100D03*
X012180Y004100D03*
X012180Y005100D03*
X013180Y005100D03*
X013180Y004100D03*
X013180Y006100D03*
X013180Y007100D03*
X012180Y007100D03*
X012180Y006100D03*
X012180Y008100D03*
X012180Y009100D03*
X013180Y009100D03*
X013180Y008100D03*
X013180Y010100D03*
X012180Y010100D03*
D17*
X009062Y018350D02*
X008282Y018350D01*
D18*
X009593Y016350D03*
X008633Y015350D03*
X004711Y016350D03*
X004711Y017350D03*
X004711Y019350D03*
X004711Y020350D03*
X008633Y021311D03*
X009593Y020350D03*
D19*
X004930Y027730D03*
X004930Y032470D03*
D20*
X014680Y032600D03*
X014680Y033600D03*
X015680Y033600D03*
X015680Y032600D03*
X016680Y032600D03*
X016680Y033600D03*
X017680Y033600D03*
X017680Y032600D03*
X017680Y031600D03*
X017680Y030600D03*
X016680Y030600D03*
X016680Y031600D03*
X015680Y031600D03*
X015680Y030600D03*
X014680Y030600D03*
X014680Y031600D03*
X014680Y029600D03*
X014680Y028600D03*
X015680Y028600D03*
X015680Y029600D03*
X016680Y029600D03*
X016680Y028600D03*
X017680Y028600D03*
X017680Y029600D03*
X018680Y029600D03*
X018680Y028600D03*
X019680Y028600D03*
X019680Y029600D03*
X020680Y029600D03*
X020680Y028600D03*
X020680Y027600D03*
X020680Y026600D03*
X019680Y026600D03*
X019680Y027600D03*
X018680Y027600D03*
X018680Y026600D03*
X018680Y025600D03*
X018680Y024600D03*
X019680Y024600D03*
X019680Y025600D03*
X020680Y025600D03*
X020680Y024600D03*
X020680Y023600D03*
X020680Y022600D03*
X019680Y022600D03*
X019680Y023600D03*
X018680Y023600D03*
X018680Y022600D03*
X018680Y021600D03*
X018680Y020600D03*
X019680Y020600D03*
X019680Y021600D03*
X020680Y021600D03*
X020680Y020600D03*
X020680Y019600D03*
X020680Y018600D03*
X019680Y018600D03*
X019680Y019600D03*
X018680Y019600D03*
X018680Y018600D03*
X018680Y017600D03*
X019680Y017600D03*
X020680Y017600D03*
X020680Y016600D03*
X020680Y015600D03*
X019680Y015600D03*
X019680Y016600D03*
X018680Y016600D03*
X018680Y015600D03*
X018680Y014600D03*
X018680Y013600D03*
X019680Y013600D03*
X019680Y014600D03*
X020680Y014600D03*
X020680Y013600D03*
X020680Y012600D03*
X020680Y011600D03*
X019680Y011600D03*
X019680Y012600D03*
X018680Y012600D03*
X018680Y011600D03*
X018680Y010600D03*
X018680Y009600D03*
X019680Y009600D03*
X019680Y010600D03*
X020680Y010600D03*
X020680Y009600D03*
X020680Y008600D03*
X020680Y007600D03*
X019680Y007600D03*
X019680Y008600D03*
X018680Y008600D03*
X018680Y007600D03*
X018680Y006600D03*
X018680Y005600D03*
X019680Y005600D03*
X019680Y006600D03*
X020680Y006600D03*
X020680Y005600D03*
X020680Y004600D03*
X020680Y003600D03*
X019680Y003600D03*
X019680Y004600D03*
X018680Y004600D03*
X018680Y003600D03*
X018680Y002600D03*
X019680Y002600D03*
X020680Y002600D03*
X021680Y002600D03*
X022680Y002600D03*
X023680Y002600D03*
X023680Y003600D03*
X023680Y004600D03*
X022680Y004600D03*
X022680Y003600D03*
X021680Y003600D03*
X021680Y004600D03*
X021680Y005600D03*
X021680Y006600D03*
X022680Y006600D03*
X022680Y005600D03*
X023680Y005600D03*
X023680Y006600D03*
X023680Y007600D03*
X023680Y008600D03*
X022680Y008600D03*
X022680Y007600D03*
X021680Y007600D03*
X021680Y008600D03*
X021680Y009600D03*
X021680Y010600D03*
X022680Y010600D03*
X022680Y009600D03*
X023680Y009600D03*
X023680Y010600D03*
X023680Y011600D03*
X023680Y012600D03*
X022680Y012600D03*
X022680Y011600D03*
X021680Y011600D03*
X021680Y012600D03*
X021680Y013600D03*
X021680Y014600D03*
X022680Y014600D03*
X022680Y013600D03*
X023680Y013600D03*
X023680Y014600D03*
X023680Y015600D03*
X023680Y016600D03*
X022680Y016600D03*
X022680Y015600D03*
X021680Y015600D03*
X021680Y016600D03*
X021680Y017600D03*
X022680Y017600D03*
X023680Y017600D03*
X023680Y018600D03*
X023680Y019600D03*
X022680Y019600D03*
X022680Y018600D03*
X021680Y018600D03*
X021680Y019600D03*
X021680Y020600D03*
X021680Y021600D03*
X022680Y021600D03*
X022680Y020600D03*
X023680Y020600D03*
X023680Y021600D03*
X023680Y022600D03*
X023680Y023600D03*
X022680Y023600D03*
X022680Y022600D03*
X021680Y022600D03*
X021680Y023600D03*
X021680Y024600D03*
X021680Y025600D03*
X022680Y025600D03*
X022680Y024600D03*
X023680Y024600D03*
X023680Y025600D03*
X023680Y026600D03*
X023680Y027600D03*
X022680Y027600D03*
X022680Y026600D03*
X021680Y026600D03*
X021680Y027600D03*
X021680Y028600D03*
X021680Y029600D03*
X022680Y029600D03*
X022680Y028600D03*
X023680Y028600D03*
X023680Y029600D03*
X023680Y030600D03*
X023680Y031600D03*
X022680Y031600D03*
X022680Y030600D03*
X021680Y030600D03*
X021680Y031600D03*
X021680Y032600D03*
X021680Y033600D03*
X022680Y033600D03*
X022680Y032600D03*
X023680Y032600D03*
X023680Y033600D03*
X023680Y034600D03*
X023680Y035600D03*
X022680Y035600D03*
X022680Y034600D03*
X021680Y034600D03*
X021680Y035600D03*
X021680Y036600D03*
X022680Y036600D03*
X023680Y036600D03*
X024680Y036600D03*
X025680Y036600D03*
X026680Y036600D03*
X026680Y035600D03*
X026680Y034600D03*
X025680Y034600D03*
X025680Y035600D03*
X024680Y035600D03*
X024680Y034600D03*
X024680Y033600D03*
X024680Y032600D03*
X025680Y032600D03*
X025680Y033600D03*
X026680Y033600D03*
X026680Y032600D03*
X026680Y031600D03*
X026680Y030600D03*
X025680Y030600D03*
X025680Y031600D03*
X024680Y031600D03*
X024680Y030600D03*
X024680Y029600D03*
X024680Y028600D03*
X025680Y028600D03*
X025680Y029600D03*
X026680Y029600D03*
X026680Y028600D03*
X026680Y027600D03*
X026680Y026600D03*
X025680Y026600D03*
X025680Y027600D03*
X024680Y027600D03*
X024680Y026600D03*
X024680Y025600D03*
X024680Y024600D03*
X025680Y024600D03*
X025680Y025600D03*
X026680Y025600D03*
X026680Y024600D03*
X026680Y023600D03*
X026680Y022600D03*
X025680Y022600D03*
X025680Y023600D03*
X024680Y023600D03*
X024680Y022600D03*
X024680Y021600D03*
X024680Y020600D03*
X025680Y020600D03*
X025680Y021600D03*
X026680Y021600D03*
X026680Y020600D03*
X026680Y019600D03*
X026680Y018600D03*
X025680Y018600D03*
X025680Y019600D03*
X024680Y019600D03*
X024680Y018600D03*
X024680Y017600D03*
X025680Y017600D03*
X026680Y017600D03*
X026680Y016600D03*
X026680Y015600D03*
X025680Y015600D03*
X025680Y016600D03*
X024680Y016600D03*
X024680Y015600D03*
X024680Y014600D03*
X024680Y013600D03*
X025680Y013600D03*
X025680Y014600D03*
X026680Y014600D03*
X026680Y013600D03*
X026680Y012600D03*
X026680Y011600D03*
X025680Y011600D03*
X025680Y012600D03*
X024680Y012600D03*
X024680Y011600D03*
X024680Y010600D03*
X024680Y009600D03*
X025680Y009600D03*
X025680Y010600D03*
X026680Y010600D03*
X026680Y009600D03*
X026680Y008600D03*
X026680Y007600D03*
X025680Y007600D03*
X025680Y008600D03*
X024680Y008600D03*
X024680Y007600D03*
X024680Y006600D03*
X024680Y005600D03*
X025680Y005600D03*
X025680Y006600D03*
X026680Y006600D03*
X026680Y005600D03*
X026680Y004600D03*
X026680Y003600D03*
X025680Y003600D03*
X025680Y004600D03*
X024680Y004600D03*
X024680Y003600D03*
X024680Y002600D03*
X025680Y002600D03*
X026680Y002600D03*
X027680Y002600D03*
X028680Y002600D03*
X029680Y002600D03*
X029680Y003600D03*
X029680Y004600D03*
X028680Y004600D03*
X028680Y003600D03*
X027680Y003600D03*
X027680Y004600D03*
X027680Y005600D03*
X027680Y006600D03*
X028680Y006600D03*
X028680Y005600D03*
X029680Y005600D03*
X029680Y006600D03*
X029680Y007600D03*
X029680Y008600D03*
X028680Y008600D03*
X028680Y007600D03*
X027680Y007600D03*
X027680Y008600D03*
X027680Y009600D03*
X027680Y010600D03*
X028680Y010600D03*
X028680Y009600D03*
X029680Y009600D03*
X029680Y010600D03*
X029680Y011600D03*
X029680Y012600D03*
X028680Y012600D03*
X028680Y011600D03*
X027680Y011600D03*
X027680Y012600D03*
X027680Y013600D03*
X027680Y014600D03*
X028680Y014600D03*
X028680Y013600D03*
X029680Y013600D03*
X029680Y014600D03*
X029680Y015600D03*
X029680Y016600D03*
X028680Y016600D03*
X028680Y015600D03*
X027680Y015600D03*
X027680Y016600D03*
X027680Y017600D03*
X028680Y017600D03*
X029680Y017600D03*
X029680Y018600D03*
X029680Y019600D03*
X028680Y019600D03*
X028680Y018600D03*
X027680Y018600D03*
X027680Y019600D03*
X027680Y020600D03*
X027680Y021600D03*
X028680Y021600D03*
X028680Y020600D03*
X029680Y020600D03*
X029680Y021600D03*
X029680Y022600D03*
X029680Y023600D03*
X028680Y023600D03*
X028680Y022600D03*
X027680Y022600D03*
X027680Y023600D03*
X027680Y024600D03*
X027680Y025600D03*
X028680Y025600D03*
X028680Y024600D03*
X029680Y024600D03*
X029680Y025600D03*
X029680Y026600D03*
X029680Y027600D03*
X028680Y027600D03*
X028680Y026600D03*
X027680Y026600D03*
X027680Y027600D03*
X027680Y028600D03*
X027680Y029600D03*
X028680Y029600D03*
X028680Y028600D03*
X029680Y028600D03*
X029680Y029600D03*
X029680Y030600D03*
X029680Y031600D03*
X028680Y031600D03*
X028680Y030600D03*
X027680Y030600D03*
X027680Y031600D03*
X027680Y032600D03*
X027680Y033600D03*
X028680Y033600D03*
X028680Y032600D03*
X029680Y032600D03*
X029680Y033600D03*
X029680Y034600D03*
X029680Y035600D03*
X028680Y035600D03*
X028680Y034600D03*
X027680Y034600D03*
X027680Y035600D03*
X027680Y036600D03*
X028680Y036600D03*
X029680Y036600D03*
X030680Y036600D03*
X031680Y036600D03*
X032680Y036600D03*
X032680Y035600D03*
X032680Y034600D03*
X031680Y034600D03*
X031680Y035600D03*
X030680Y035600D03*
X030680Y034600D03*
X030680Y033600D03*
X030680Y032600D03*
X031680Y032600D03*
X031680Y033600D03*
X032680Y033600D03*
X032680Y032600D03*
X032680Y031600D03*
X032680Y030600D03*
X031680Y030600D03*
X031680Y031600D03*
X030680Y031600D03*
X030680Y030600D03*
X030680Y029600D03*
X030680Y028600D03*
X031680Y028600D03*
X031680Y029600D03*
X032680Y029600D03*
X032680Y028600D03*
X032680Y027600D03*
X032680Y026600D03*
X031680Y026600D03*
X031680Y027600D03*
X030680Y027600D03*
X030680Y026600D03*
X030680Y025600D03*
X030680Y024600D03*
X031680Y024600D03*
X031680Y025600D03*
X032680Y025600D03*
X032680Y024600D03*
X032680Y023600D03*
X032680Y022600D03*
X031680Y022600D03*
X031680Y023600D03*
X030680Y023600D03*
X030680Y022600D03*
X030680Y021600D03*
X030680Y020600D03*
X031680Y020600D03*
X031680Y021600D03*
X032680Y021600D03*
X032680Y020600D03*
X032680Y019600D03*
X032680Y018600D03*
X031680Y018600D03*
X031680Y019600D03*
X030680Y019600D03*
X030680Y018600D03*
X030680Y017600D03*
X031680Y017600D03*
X032680Y017600D03*
X032680Y016600D03*
X032680Y015600D03*
X031680Y015600D03*
X031680Y016600D03*
X030680Y016600D03*
X030680Y015600D03*
X030680Y014600D03*
X030680Y013600D03*
X031680Y013600D03*
X031680Y014600D03*
X032680Y014600D03*
X032680Y013600D03*
X032680Y012600D03*
X032680Y011600D03*
X031680Y011600D03*
X031680Y012600D03*
X030680Y012600D03*
X030680Y011600D03*
X030680Y010600D03*
X030680Y009600D03*
X031680Y009600D03*
X031680Y010600D03*
X032680Y010600D03*
X032680Y009600D03*
X032680Y008600D03*
X032680Y007600D03*
X031680Y007600D03*
X031680Y008600D03*
X030680Y008600D03*
X030680Y007600D03*
X030680Y006600D03*
X030680Y005600D03*
X031680Y005600D03*
X031680Y006600D03*
X032680Y006600D03*
X032680Y005600D03*
X032680Y004600D03*
X032680Y003600D03*
X031680Y003600D03*
X031680Y004600D03*
X030680Y004600D03*
X030680Y003600D03*
X030680Y002600D03*
X031680Y002600D03*
X032680Y002600D03*
X033680Y002600D03*
X034680Y002600D03*
X035680Y002600D03*
X035680Y003600D03*
X035680Y004600D03*
X034680Y004600D03*
X034680Y003600D03*
X033680Y003600D03*
X033680Y004600D03*
X033680Y005600D03*
X033680Y006600D03*
X034680Y006600D03*
X034680Y005600D03*
X035680Y005600D03*
X035680Y006600D03*
X035680Y007600D03*
X035680Y008600D03*
X034680Y008600D03*
X034680Y007600D03*
X033680Y007600D03*
X033680Y008600D03*
X033680Y009600D03*
X033680Y010600D03*
X034680Y010600D03*
X034680Y009600D03*
X035680Y009600D03*
X035680Y010600D03*
X035680Y011600D03*
X035680Y012600D03*
X034680Y012600D03*
X034680Y011600D03*
X033680Y011600D03*
X033680Y012600D03*
X033680Y013600D03*
X033680Y014600D03*
X034680Y014600D03*
X034680Y013600D03*
X035680Y013600D03*
X035680Y014600D03*
X035680Y015600D03*
X035680Y016600D03*
X034680Y016600D03*
X034680Y015600D03*
X033680Y015600D03*
X033680Y016600D03*
X033680Y017600D03*
X034680Y017600D03*
X035680Y017600D03*
X035680Y018600D03*
X035680Y019600D03*
X034680Y019600D03*
X034680Y018600D03*
X033680Y018600D03*
X033680Y019600D03*
X033680Y020600D03*
X033680Y021600D03*
X034680Y021600D03*
X034680Y020600D03*
X035680Y020600D03*
X035680Y021600D03*
X035680Y022600D03*
X035680Y023600D03*
X034680Y023600D03*
X034680Y022600D03*
X033680Y022600D03*
X033680Y023600D03*
X033680Y024600D03*
X033680Y025600D03*
X034680Y025600D03*
X034680Y024600D03*
X035680Y024600D03*
X035680Y025600D03*
X035680Y026600D03*
X035680Y027600D03*
X034680Y027600D03*
X034680Y026600D03*
X033680Y026600D03*
X033680Y027600D03*
X033680Y028600D03*
X033680Y029600D03*
X034680Y029600D03*
X034680Y028600D03*
X035680Y028600D03*
X035680Y029600D03*
X035680Y030600D03*
X035680Y031600D03*
X034680Y031600D03*
X034680Y030600D03*
X033680Y030600D03*
X033680Y031600D03*
X033680Y032600D03*
X033680Y033600D03*
X034680Y033600D03*
X034680Y032600D03*
X035680Y032600D03*
X035680Y033600D03*
X035680Y034600D03*
X035680Y035600D03*
X034680Y035600D03*
X034680Y034600D03*
X033680Y034600D03*
X033680Y035600D03*
X033680Y036600D03*
X034680Y036600D03*
X035680Y036600D03*
X036680Y036600D03*
X037680Y036600D03*
X038680Y036600D03*
X038680Y035600D03*
X038680Y034600D03*
X037680Y034600D03*
X037680Y035600D03*
X036680Y035600D03*
X036680Y034600D03*
X036680Y033600D03*
X036680Y032600D03*
X037680Y032600D03*
X037680Y033600D03*
X038680Y033600D03*
X038680Y032600D03*
X038680Y031600D03*
X038680Y030600D03*
X037680Y030600D03*
X037680Y031600D03*
X036680Y031600D03*
X036680Y030600D03*
X036680Y029600D03*
X036680Y028600D03*
X037680Y028600D03*
X037680Y029600D03*
X038680Y029600D03*
X038680Y028600D03*
X038680Y027600D03*
X038680Y026600D03*
X037680Y026600D03*
X037680Y027600D03*
X036680Y027600D03*
X036680Y026600D03*
X036680Y025600D03*
X036680Y024600D03*
X037680Y024600D03*
X037680Y025600D03*
X038680Y025600D03*
X038680Y024600D03*
X038680Y023600D03*
X038680Y022600D03*
X037680Y022600D03*
X037680Y023600D03*
X036680Y023600D03*
X036680Y022600D03*
X036680Y021600D03*
X036680Y020600D03*
X037680Y020600D03*
X037680Y021600D03*
X038680Y021600D03*
X038680Y020600D03*
X038680Y019600D03*
X038680Y018600D03*
X037680Y018600D03*
X037680Y019600D03*
X036680Y019600D03*
X036680Y018600D03*
X036680Y017600D03*
X037680Y017600D03*
X038680Y017600D03*
X038680Y016600D03*
X038680Y015600D03*
X037680Y015600D03*
X037680Y016600D03*
X036680Y016600D03*
X036680Y015600D03*
X036680Y014600D03*
X036680Y013600D03*
X037680Y013600D03*
X037680Y014600D03*
X038680Y014600D03*
X038680Y013600D03*
X038680Y012600D03*
X038680Y011600D03*
X037680Y011600D03*
X037680Y012600D03*
X036680Y012600D03*
X036680Y011600D03*
X036680Y010600D03*
X036680Y009600D03*
X037680Y009600D03*
X037680Y010600D03*
X038680Y010600D03*
X038680Y009600D03*
X038680Y008600D03*
X038680Y007600D03*
X037680Y007600D03*
X037680Y008600D03*
X036680Y008600D03*
X036680Y007600D03*
X036680Y006600D03*
X036680Y005600D03*
X037680Y005600D03*
X037680Y006600D03*
X038680Y006600D03*
X038680Y005600D03*
X038680Y004600D03*
X038680Y003600D03*
X037680Y003600D03*
X037680Y004600D03*
X036680Y004600D03*
X036680Y003600D03*
X036680Y002600D03*
X037680Y002600D03*
X038680Y002600D03*
X017680Y002600D03*
X016680Y002600D03*
X015680Y002600D03*
X014680Y002600D03*
X014680Y003600D03*
X014680Y004600D03*
X015680Y004600D03*
X015680Y003600D03*
X016680Y003600D03*
X016680Y004600D03*
X017680Y004600D03*
X017680Y003600D03*
X017680Y005600D03*
X017680Y006600D03*
X016680Y006600D03*
X016680Y005600D03*
X015680Y005600D03*
X015680Y006600D03*
X014680Y006600D03*
X014680Y005600D03*
X014680Y007600D03*
X014680Y008600D03*
X015680Y008600D03*
X015680Y007600D03*
X016680Y007600D03*
X016680Y008600D03*
X017680Y008600D03*
X017680Y007600D03*
X017680Y009600D03*
X017680Y010600D03*
X016680Y010600D03*
X016680Y009600D03*
X015680Y009600D03*
X015680Y010600D03*
X014680Y010600D03*
X014680Y009600D03*
X014680Y011600D03*
X014680Y012600D03*
X015680Y012600D03*
X015680Y011600D03*
X016680Y011600D03*
X016680Y012600D03*
X017680Y012600D03*
X017680Y011600D03*
X017680Y013600D03*
X017680Y014600D03*
X016680Y014600D03*
X016680Y013600D03*
X015680Y013600D03*
X015680Y014600D03*
X014680Y014600D03*
X014680Y013600D03*
X014680Y015600D03*
X014680Y016600D03*
X015680Y016600D03*
X015680Y015600D03*
X016680Y015600D03*
X016680Y016600D03*
X017680Y016600D03*
X017680Y015600D03*
X017680Y017600D03*
X016680Y017600D03*
X015680Y017600D03*
X014680Y017600D03*
X014680Y018600D03*
X014680Y019600D03*
X015680Y019600D03*
X015680Y018600D03*
X016680Y018600D03*
X016680Y019600D03*
X017680Y019600D03*
X017680Y018600D03*
X017680Y020600D03*
X017680Y021600D03*
X016680Y021600D03*
X016680Y020600D03*
X015680Y020600D03*
X015680Y021600D03*
X014680Y021600D03*
X014680Y020600D03*
X014680Y022600D03*
X014680Y023600D03*
X015680Y023600D03*
X015680Y022600D03*
X016680Y022600D03*
X016680Y023600D03*
X017680Y023600D03*
X017680Y022600D03*
X017680Y024600D03*
X017680Y025600D03*
X016680Y025600D03*
X016680Y024600D03*
X015680Y024600D03*
X015680Y025600D03*
X014680Y025600D03*
X014680Y024600D03*
X014680Y026600D03*
X014680Y027600D03*
X015680Y027600D03*
X015680Y026600D03*
X016680Y026600D03*
X016680Y027600D03*
X017680Y027600D03*
X017680Y026600D03*
X018680Y030600D03*
X018680Y031600D03*
X019680Y031600D03*
X019680Y030600D03*
X020680Y030600D03*
X020680Y031600D03*
X020680Y032600D03*
X020680Y033600D03*
X019680Y033600D03*
X019680Y032600D03*
X018680Y032600D03*
X018680Y033600D03*
X018680Y034600D03*
X018680Y035600D03*
X019680Y035600D03*
X019680Y034600D03*
X020680Y034600D03*
X020680Y035600D03*
X020680Y036600D03*
X019680Y036600D03*
X018680Y036600D03*
X017680Y036600D03*
X016680Y036600D03*
X015680Y036600D03*
X014680Y036600D03*
X014680Y035600D03*
X014680Y034600D03*
X015680Y034600D03*
X015680Y035600D03*
X016680Y035600D03*
X016680Y034600D03*
X017680Y034600D03*
X017680Y035600D03*
D21*
X007180Y024600D03*
X005430Y024600D03*
D22*
X005510Y024668D02*
X006389Y024668D01*
X006389Y024757D02*
X006389Y024443D01*
X006510Y024152D01*
X006680Y023982D01*
X006680Y014099D01*
X006608Y014064D01*
X006496Y013994D01*
X006392Y013911D01*
X006299Y013818D01*
X006216Y013714D01*
X006146Y013602D01*
X006088Y013482D01*
X006044Y013357D01*
X006015Y013228D01*
X006002Y013110D01*
X006680Y013110D01*
X006680Y012950D01*
X006002Y012950D01*
X006015Y012832D01*
X006044Y012703D01*
X006088Y012578D01*
X006146Y012458D01*
X006216Y012346D01*
X006299Y012242D01*
X006392Y012149D01*
X006454Y012100D01*
X005680Y012100D01*
X005680Y004100D01*
X006454Y004100D01*
X006392Y004051D01*
X006299Y003958D01*
X006216Y003854D01*
X006146Y003742D01*
X006088Y003622D01*
X006044Y003497D01*
X006015Y003368D01*
X006002Y003250D01*
X006680Y003250D01*
X006680Y003090D01*
X006002Y003090D01*
X006015Y002972D01*
X006044Y002843D01*
X006088Y002718D01*
X006146Y002598D01*
X006216Y002486D01*
X006299Y002382D01*
X006392Y002289D01*
X006496Y002206D01*
X006608Y002136D01*
X006680Y002101D01*
X006680Y002100D01*
X006682Y002100D01*
X006728Y002078D01*
X006853Y002034D01*
X006982Y002005D01*
X007100Y001992D01*
X007100Y002100D01*
X007260Y002100D01*
X007260Y001992D01*
X007378Y002005D01*
X007507Y002034D01*
X007632Y002078D01*
X007678Y002100D01*
X011100Y002100D01*
X011100Y002020D01*
X011260Y002020D01*
X011260Y002100D01*
X014502Y002100D01*
X014575Y002070D01*
X014785Y002070D01*
X014858Y002100D01*
X015502Y002100D01*
X015575Y002070D01*
X015785Y002070D01*
X015858Y002100D01*
X016502Y002100D01*
X016575Y002070D01*
X016785Y002070D01*
X016858Y002100D01*
X017502Y002100D01*
X017575Y002070D01*
X017785Y002070D01*
X017858Y002100D01*
X018502Y002100D01*
X018575Y002070D01*
X018785Y002070D01*
X018858Y002100D01*
X019502Y002100D01*
X019575Y002070D01*
X019785Y002070D01*
X019858Y002100D01*
X020502Y002100D01*
X020575Y002070D01*
X020785Y002070D01*
X020858Y002100D01*
X021502Y002100D01*
X021575Y002070D01*
X021785Y002070D01*
X021858Y002100D01*
X022502Y002100D01*
X022575Y002070D01*
X022785Y002070D01*
X022858Y002100D01*
X023502Y002100D01*
X023575Y002070D01*
X023785Y002070D01*
X023858Y002100D01*
X024502Y002100D01*
X024575Y002070D01*
X024785Y002070D01*
X024858Y002100D01*
X025502Y002100D01*
X025575Y002070D01*
X025785Y002070D01*
X025858Y002100D01*
X026502Y002100D01*
X026575Y002070D01*
X026785Y002070D01*
X026858Y002100D01*
X027502Y002100D01*
X027575Y002070D01*
X027785Y002070D01*
X027858Y002100D01*
X028502Y002100D01*
X028575Y002070D01*
X028785Y002070D01*
X028858Y002100D01*
X029502Y002100D01*
X029575Y002070D01*
X029785Y002070D01*
X029858Y002100D01*
X030502Y002100D01*
X030575Y002070D01*
X030785Y002070D01*
X030858Y002100D01*
X031502Y002100D01*
X031575Y002070D01*
X031785Y002070D01*
X031858Y002100D01*
X032502Y002100D01*
X032575Y002070D01*
X032785Y002070D01*
X032858Y002100D01*
X033502Y002100D01*
X033575Y002070D01*
X033785Y002070D01*
X033858Y002100D01*
X034502Y002100D01*
X034575Y002070D01*
X034785Y002070D01*
X034858Y002100D01*
X035502Y002100D01*
X035575Y002070D01*
X035785Y002070D01*
X035858Y002100D01*
X036502Y002100D01*
X036575Y002070D01*
X036785Y002070D01*
X036858Y002100D01*
X037502Y002100D01*
X037575Y002070D01*
X037785Y002070D01*
X037858Y002100D01*
X038502Y002100D01*
X038575Y002070D01*
X038785Y002070D01*
X038858Y002100D01*
X041100Y002100D01*
X041100Y002020D01*
X041260Y002020D01*
X041260Y002180D01*
X042509Y002180D01*
X042497Y002295D01*
X042472Y002424D01*
X042434Y002549D01*
X042384Y002669D01*
X042322Y002785D01*
X042250Y002893D01*
X042167Y002994D01*
X042074Y003087D01*
X041973Y003170D01*
X041865Y003242D01*
X041749Y003304D01*
X041629Y003354D01*
X041504Y003392D01*
X041375Y003417D01*
X041260Y003429D01*
X041260Y002180D01*
X041100Y002180D01*
X041100Y003429D01*
X040985Y003417D01*
X040856Y003392D01*
X040731Y003354D01*
X040611Y003304D01*
X040495Y003242D01*
X040387Y003170D01*
X040286Y003087D01*
X040193Y002994D01*
X040110Y002893D01*
X040038Y002785D01*
X039976Y002669D01*
X039926Y002549D01*
X039888Y002424D01*
X039863Y002295D01*
X039851Y002180D01*
X041100Y002180D01*
X041100Y002020D01*
X041100Y000771D01*
X040985Y000783D01*
X040856Y000808D01*
X040731Y000846D01*
X040611Y000896D01*
X040495Y000958D01*
X040387Y001030D01*
X040286Y001113D01*
X040193Y001206D01*
X040110Y001307D01*
X040038Y001415D01*
X039976Y001531D01*
X039926Y001651D01*
X039888Y001776D01*
X039863Y001905D01*
X039851Y002020D01*
X041100Y002020D01*
X041260Y002020D01*
X042509Y002020D01*
X042497Y001905D01*
X042472Y001776D01*
X042434Y001651D01*
X042384Y001531D01*
X042322Y001415D01*
X042250Y001307D01*
X042167Y001206D01*
X042074Y001113D01*
X041973Y001030D01*
X041865Y000958D01*
X041749Y000896D01*
X041629Y000846D01*
X041504Y000808D01*
X041375Y000783D01*
X041260Y000771D01*
X041260Y002020D01*
X041260Y002100D01*
X042680Y002100D01*
X042680Y000600D01*
X039180Y000600D01*
X039180Y002422D01*
X039210Y002495D01*
X039210Y002705D01*
X039180Y002778D01*
X039180Y003422D01*
X039210Y003495D01*
X039210Y003705D01*
X039180Y003778D01*
X039180Y004422D01*
X039210Y004495D01*
X039210Y004705D01*
X039180Y004778D01*
X039180Y005422D01*
X039210Y005495D01*
X039210Y005705D01*
X039180Y005778D01*
X039180Y006422D01*
X039210Y006495D01*
X039210Y006705D01*
X039180Y006778D01*
X039180Y007422D01*
X039210Y007495D01*
X039210Y007705D01*
X039180Y007778D01*
X039180Y008422D01*
X039210Y008495D01*
X039210Y008705D01*
X039180Y008778D01*
X039180Y009422D01*
X039210Y009495D01*
X039210Y009705D01*
X039180Y009778D01*
X039180Y010422D01*
X039210Y010495D01*
X039210Y010705D01*
X039180Y010778D01*
X039180Y011422D01*
X039210Y011495D01*
X039210Y011705D01*
X039180Y011778D01*
X039180Y012422D01*
X039210Y012495D01*
X039210Y012705D01*
X039180Y012778D01*
X039180Y013422D01*
X039210Y013495D01*
X039210Y013705D01*
X039180Y013778D01*
X039180Y014422D01*
X039210Y014495D01*
X039210Y014705D01*
X039180Y014778D01*
X039180Y015422D01*
X039210Y015495D01*
X039210Y015705D01*
X039180Y015778D01*
X039180Y016422D01*
X039210Y016495D01*
X039210Y016705D01*
X039180Y016778D01*
X039180Y017422D01*
X039210Y017495D01*
X039210Y017705D01*
X039180Y017778D01*
X039180Y018422D01*
X039210Y018495D01*
X039210Y018705D01*
X039180Y018778D01*
X039180Y019422D01*
X039210Y019495D01*
X039210Y019705D01*
X039180Y019778D01*
X039180Y020422D01*
X039210Y020495D01*
X039210Y020705D01*
X042680Y020705D01*
X042680Y020547D02*
X039210Y020547D01*
X039210Y020705D02*
X039180Y020778D01*
X039180Y021422D01*
X039210Y021495D01*
X039210Y021705D01*
X039180Y021778D01*
X039180Y022422D01*
X039210Y022495D01*
X039210Y022705D01*
X039180Y022778D01*
X039180Y023422D01*
X039210Y023495D01*
X039210Y023705D01*
X039180Y023778D01*
X039180Y024422D01*
X039210Y024495D01*
X039210Y024705D01*
X039180Y024778D01*
X039180Y025422D01*
X039210Y025495D01*
X039210Y025705D01*
X039180Y025778D01*
X039180Y026422D01*
X039210Y026495D01*
X039210Y026705D01*
X039180Y026778D01*
X039180Y027422D01*
X039210Y027495D01*
X039210Y027705D01*
X039180Y027778D01*
X039180Y028422D01*
X039210Y028495D01*
X039210Y028705D01*
X039180Y028778D01*
X039180Y029422D01*
X039210Y029495D01*
X039210Y029705D01*
X039180Y029778D01*
X039180Y030422D01*
X039210Y030495D01*
X039210Y030705D01*
X039180Y030778D01*
X039180Y031422D01*
X039210Y031495D01*
X039210Y031705D01*
X039180Y031778D01*
X039180Y032422D01*
X039210Y032495D01*
X039210Y032705D01*
X039180Y032778D01*
X039180Y033422D01*
X039210Y033495D01*
X039210Y033705D01*
X039180Y033778D01*
X039180Y034422D01*
X039210Y034495D01*
X039210Y034705D01*
X039180Y034778D01*
X039180Y035422D01*
X039210Y035495D01*
X039210Y035705D01*
X039180Y035778D01*
X039180Y036422D01*
X039210Y036495D01*
X039210Y036705D01*
X039180Y036778D01*
X039180Y039100D01*
X042680Y039100D01*
X042680Y000600D01*
X004180Y000600D01*
X004180Y016019D01*
X004459Y015740D01*
X004661Y015740D01*
X004661Y016300D01*
X004761Y016300D01*
X004761Y015740D01*
X004964Y015740D01*
X005321Y016097D01*
X005321Y016300D01*
X004762Y016300D01*
X004762Y016400D01*
X005321Y016400D01*
X005321Y016603D01*
X005088Y016836D01*
X005341Y017089D01*
X005341Y017611D01*
X004972Y017980D01*
X004451Y017980D01*
X004180Y017709D01*
X004180Y018991D01*
X004451Y018720D01*
X004972Y018720D01*
X005341Y019089D01*
X005341Y019611D01*
X005088Y019864D01*
X005321Y020097D01*
X005321Y020300D01*
X004762Y020300D01*
X004762Y020400D01*
X005321Y020400D01*
X005321Y020603D01*
X004964Y020960D01*
X004761Y020960D01*
X004761Y020400D01*
X004661Y020400D01*
X004661Y020960D01*
X004459Y020960D01*
X004180Y020681D01*
X004180Y022224D01*
X004296Y022176D01*
X004564Y022176D01*
X004812Y022279D01*
X005001Y022468D01*
X005104Y022716D01*
X005104Y022984D01*
X005001Y023232D01*
X004812Y023421D01*
X004564Y023524D01*
X004296Y023524D01*
X004180Y023476D01*
X004180Y025724D01*
X004296Y025676D01*
X004564Y025676D01*
X004812Y025779D01*
X005001Y025968D01*
X005104Y026216D01*
X005104Y026484D01*
X005001Y026732D01*
X004850Y026883D01*
X004850Y027650D01*
X005010Y027650D01*
X005010Y027810D01*
X004850Y027810D01*
X004850Y028657D01*
X004774Y028648D01*
X004680Y028627D01*
X004680Y029850D01*
X005518Y029850D01*
X005487Y029819D01*
X005487Y029621D01*
X005930Y029621D01*
X005930Y029594D01*
X005487Y029594D01*
X005487Y029397D01*
X005786Y029098D01*
X005932Y029098D01*
X006430Y028600D01*
X005259Y028600D01*
X005188Y028625D01*
X005086Y028648D01*
X005010Y028657D01*
X005010Y028600D01*
X004850Y028600D01*
X004850Y028657D01*
X004774Y028648D01*
X004672Y028625D01*
X004574Y028590D01*
X004479Y028545D01*
X004391Y028490D01*
X004309Y028424D01*
X004235Y028351D01*
X004180Y028281D01*
X004180Y031919D01*
X004235Y031849D01*
X004309Y031776D01*
X004391Y031710D01*
X004479Y031655D01*
X004574Y031610D01*
X004672Y031575D01*
X004774Y031552D01*
X004850Y031543D01*
X004850Y032390D01*
X005010Y032390D01*
X005010Y031543D01*
X005086Y031552D01*
X005188Y031575D01*
X005286Y031610D01*
X005381Y031655D01*
X005469Y031710D01*
X005551Y031776D01*
X005625Y031849D01*
X005690Y031931D01*
X005745Y032020D01*
X005791Y032114D01*
X005825Y032212D01*
X005848Y032314D01*
X005857Y032390D01*
X005010Y032390D01*
X005010Y032550D01*
X005857Y032550D01*
X005848Y032626D01*
X005825Y032728D01*
X005791Y032827D01*
X005745Y032921D01*
X005690Y033009D01*
X005625Y033091D01*
X005551Y033165D01*
X005469Y033230D01*
X005381Y033285D01*
X005286Y033331D01*
X005188Y033365D01*
X005086Y033388D01*
X005010Y033397D01*
X005010Y032550D01*
X004850Y032550D01*
X004850Y033397D01*
X004774Y033388D01*
X004672Y033365D01*
X004574Y033331D01*
X004479Y033285D01*
X004391Y033230D01*
X004309Y033165D01*
X004235Y033091D01*
X004180Y033021D01*
X004180Y039100D01*
X042680Y039100D01*
X042680Y037100D01*
X042412Y037100D01*
X042434Y037151D01*
X042472Y037276D01*
X042497Y037405D01*
X042509Y037520D01*
X041260Y037520D01*
X041260Y037680D01*
X042509Y037680D01*
X042497Y037795D01*
X042472Y037924D01*
X042434Y038049D01*
X042384Y038169D01*
X042322Y038285D01*
X042250Y038393D01*
X042167Y038494D01*
X042074Y038587D01*
X041973Y038670D01*
X041865Y038742D01*
X041749Y038804D01*
X041629Y038854D01*
X041504Y038892D01*
X041375Y038917D01*
X041260Y038929D01*
X041260Y037680D01*
X041100Y037680D01*
X041100Y038929D01*
X040985Y038917D01*
X040856Y038892D01*
X040731Y038854D01*
X040611Y038804D01*
X040495Y038742D01*
X040387Y038670D01*
X040286Y038587D01*
X040193Y038494D01*
X040110Y038393D01*
X040038Y038285D01*
X039976Y038169D01*
X039926Y038049D01*
X039888Y037924D01*
X039863Y037795D01*
X039851Y037680D01*
X041100Y037680D01*
X041100Y038929D01*
X040985Y038917D01*
X040856Y038892D01*
X040731Y038854D01*
X040611Y038804D01*
X040495Y038742D01*
X040387Y038670D01*
X040286Y038587D01*
X040193Y038494D01*
X040110Y038393D01*
X040038Y038285D01*
X039976Y038169D01*
X039926Y038049D01*
X039888Y037924D01*
X039863Y037795D01*
X039851Y037680D01*
X041100Y037680D01*
X041260Y037680D01*
X041260Y038929D01*
X041375Y038917D01*
X041504Y038892D01*
X041629Y038854D01*
X041749Y038804D01*
X041865Y038742D01*
X041973Y038670D01*
X042074Y038587D01*
X042167Y038494D01*
X042250Y038393D01*
X042322Y038285D01*
X042384Y038169D01*
X042434Y038049D01*
X042472Y037924D01*
X042497Y037795D01*
X042509Y037680D01*
X041260Y037680D01*
X041260Y037520D01*
X042509Y037520D01*
X042497Y037405D01*
X042472Y037276D01*
X042434Y037151D01*
X042384Y037031D01*
X042322Y036915D01*
X042250Y036807D01*
X042167Y036706D01*
X042074Y036613D01*
X041973Y036530D01*
X041865Y036458D01*
X041749Y036396D01*
X041629Y036346D01*
X041504Y036308D01*
X041375Y036283D01*
X041260Y036271D01*
X041260Y037520D01*
X041100Y037520D01*
X041100Y036271D01*
X040985Y036283D01*
X040856Y036308D01*
X040731Y036346D01*
X040611Y036396D01*
X040495Y036458D01*
X040387Y036530D01*
X040286Y036613D01*
X040193Y036706D01*
X040110Y036807D01*
X040038Y036915D01*
X039976Y037031D01*
X039926Y037151D01*
X039888Y037276D01*
X039863Y037405D01*
X039851Y037520D01*
X041100Y037520D01*
X041100Y037680D01*
X041100Y037520D01*
X039851Y037520D01*
X039863Y037405D01*
X039888Y037276D01*
X039926Y037151D01*
X039948Y037100D01*
X038858Y037100D01*
X038785Y037130D01*
X038575Y037130D01*
X038502Y037100D01*
X037858Y037100D01*
X037785Y037130D01*
X037575Y037130D01*
X037502Y037100D01*
X036858Y037100D01*
X036785Y037130D01*
X036575Y037130D01*
X036502Y037100D01*
X035858Y037100D01*
X035785Y037130D01*
X035575Y037130D01*
X035502Y037100D01*
X034858Y037100D01*
X034785Y037130D01*
X034575Y037130D01*
X034502Y037100D01*
X033858Y037100D01*
X033785Y037130D01*
X033575Y037130D01*
X033502Y037100D01*
X032858Y037100D01*
X032785Y037130D01*
X032575Y037130D01*
X032502Y037100D01*
X031858Y037100D01*
X031785Y037130D01*
X031575Y037130D01*
X031502Y037100D01*
X030858Y037100D01*
X030785Y037130D01*
X030575Y037130D01*
X030502Y037100D01*
X029858Y037100D01*
X029785Y037130D01*
X029575Y037130D01*
X029502Y037100D01*
X028858Y037100D01*
X028785Y037130D01*
X028575Y037130D01*
X028502Y037100D01*
X027858Y037100D01*
X027785Y037130D01*
X027575Y037130D01*
X027502Y037100D01*
X026858Y037100D01*
X026785Y037130D01*
X026575Y037130D01*
X026502Y037100D01*
X025858Y037100D01*
X025785Y037130D01*
X025575Y037130D01*
X025502Y037100D01*
X024858Y037100D01*
X024785Y037130D01*
X024575Y037130D01*
X024502Y037100D01*
X023858Y037100D01*
X023785Y037130D01*
X023575Y037130D01*
X023502Y037100D01*
X022858Y037100D01*
X022785Y037130D01*
X022575Y037130D01*
X022502Y037100D01*
X021858Y037100D01*
X021785Y037130D01*
X021575Y037130D01*
X021502Y037100D01*
X020858Y037100D01*
X020785Y037130D01*
X020575Y037130D01*
X020502Y037100D01*
X019858Y037100D01*
X019785Y037130D01*
X019575Y037130D01*
X019502Y037100D01*
X018858Y037100D01*
X018785Y037130D01*
X018575Y037130D01*
X018502Y037100D01*
X017858Y037100D01*
X017785Y037130D01*
X017575Y037130D01*
X017502Y037100D01*
X016858Y037100D01*
X016785Y037130D01*
X016575Y037130D01*
X016502Y037100D01*
X015858Y037100D01*
X015785Y037130D01*
X015575Y037130D01*
X015502Y037100D01*
X014858Y037100D01*
X014785Y037130D01*
X014575Y037130D01*
X014502Y037100D01*
X012412Y037100D01*
X012434Y037151D01*
X012472Y037276D01*
X012497Y037405D01*
X012509Y037520D01*
X011260Y037520D01*
X011260Y037680D01*
X011100Y037680D01*
X011100Y038929D01*
X010985Y038917D01*
X010856Y038892D01*
X010731Y038854D01*
X010611Y038804D01*
X010495Y038742D01*
X010387Y038670D01*
X010286Y038587D01*
X010193Y038494D01*
X010110Y038393D01*
X010038Y038285D01*
X009976Y038169D01*
X009926Y038049D01*
X009888Y037924D01*
X009863Y037795D01*
X009851Y037680D01*
X011100Y037680D01*
X011100Y037520D01*
X009851Y037520D01*
X009863Y037405D01*
X009888Y037276D01*
X009926Y037151D01*
X009948Y037100D01*
X006680Y037100D01*
X006680Y033869D01*
X006576Y033869D01*
X006576Y033709D01*
X005533Y033709D01*
X005546Y033600D01*
X005574Y033477D01*
X005615Y033358D01*
X005670Y033244D01*
X005738Y033137D01*
X005816Y033038D01*
X005906Y032949D01*
X006004Y032870D01*
X006111Y032803D01*
X006225Y032748D01*
X006344Y032706D01*
X006468Y032678D01*
X006576Y032666D01*
X006576Y033709D01*
X006680Y033709D01*
X006680Y031880D01*
X006374Y031880D01*
X006271Y031837D01*
X006193Y031759D01*
X005760Y031326D01*
X005717Y031223D01*
X005717Y031062D01*
X005467Y030812D01*
X005467Y030373D01*
X005754Y030086D01*
X005487Y029819D01*
X005487Y029621D01*
X005983Y029621D01*
X005983Y029594D01*
X005487Y029594D01*
X005487Y029397D01*
X005786Y029098D01*
X005983Y029098D01*
X005983Y029594D01*
X006010Y029594D01*
X006010Y029098D01*
X006208Y029098D01*
X006376Y029266D01*
X006565Y029078D01*
X006680Y029078D01*
X006680Y025218D01*
X006510Y025048D01*
X006389Y024757D01*
X006418Y024826D02*
X006167Y024826D01*
X006161Y024848D02*
X006123Y024942D01*
X006072Y025029D01*
X006011Y025109D01*
X005939Y025181D01*
X005859Y025242D01*
X005772Y025293D01*
X005678Y025331D01*
X005581Y025357D01*
X005510Y025367D01*
X005510Y024680D01*
X006197Y024680D01*
X006187Y024751D01*
X006161Y024848D01*
X006098Y024985D02*
X006484Y024985D01*
X006605Y025143D02*
X005977Y025143D01*
X005750Y025302D02*
X006680Y025302D01*
X006680Y025460D02*
X004180Y025460D01*
X004180Y025302D02*
X005110Y025302D01*
X005088Y025293D02*
X005001Y025242D01*
X004921Y025181D01*
X004849Y025109D01*
X004788Y025029D01*
X004737Y024942D01*
X004699Y024848D01*
X004673Y024751D01*
X004663Y024680D01*
X005350Y024680D01*
X005350Y025367D01*
X005279Y025357D01*
X005182Y025331D01*
X005088Y025293D01*
X004883Y025143D02*
X004180Y025143D01*
X004180Y024985D02*
X004762Y024985D01*
X004693Y024826D02*
X004180Y024826D01*
X004180Y024668D02*
X005350Y024668D01*
X005350Y024680D02*
X005350Y024520D01*
X005510Y024520D01*
X005510Y024680D01*
X005350Y024680D01*
X005350Y024826D02*
X005510Y024826D01*
X005510Y024985D02*
X005350Y024985D01*
X005350Y025143D02*
X005510Y025143D01*
X005510Y025302D02*
X005350Y025302D01*
X004807Y025777D02*
X006680Y025777D01*
X006680Y025619D02*
X004180Y025619D01*
X004968Y025936D02*
X006680Y025936D01*
X006680Y026094D02*
X005053Y026094D01*
X005104Y026253D02*
X006680Y026253D01*
X006680Y026411D02*
X005104Y026411D01*
X005068Y026570D02*
X006680Y026570D01*
X006680Y026728D02*
X005003Y026728D01*
X005010Y026803D02*
X005086Y026812D01*
X005188Y026835D01*
X005286Y026869D01*
X005381Y026915D01*
X005469Y026970D01*
X005551Y027035D01*
X005625Y027109D01*
X005690Y027191D01*
X005745Y027279D01*
X005791Y027373D01*
X005825Y027472D01*
X005848Y027574D01*
X005857Y027650D01*
X005010Y027650D01*
X005010Y026803D01*
X005010Y026887D02*
X004850Y026887D01*
X004850Y027045D02*
X005010Y027045D01*
X005010Y027204D02*
X004850Y027204D01*
X004850Y027362D02*
X005010Y027362D01*
X005010Y027521D02*
X004850Y027521D01*
X005010Y027679D02*
X006680Y027679D01*
X006680Y027521D02*
X005836Y027521D01*
X005785Y027362D02*
X006680Y027362D01*
X006680Y027204D02*
X005698Y027204D01*
X005560Y027045D02*
X006680Y027045D01*
X006680Y026887D02*
X005322Y026887D01*
X005010Y027810D02*
X005857Y027810D01*
X005848Y027886D01*
X005825Y027988D01*
X005791Y028086D01*
X005745Y028180D01*
X005690Y028269D01*
X005625Y028351D01*
X005551Y028424D01*
X005469Y028490D01*
X005381Y028545D01*
X005286Y028590D01*
X005188Y028625D01*
X005086Y028648D01*
X005010Y028657D01*
X005010Y027810D01*
X005010Y027838D02*
X004850Y027838D01*
X004850Y027996D02*
X005010Y027996D01*
X005010Y028155D02*
X004850Y028155D01*
X004850Y028313D02*
X005010Y028313D01*
X005010Y028472D02*
X004850Y028472D01*
X004850Y028630D02*
X005010Y028630D01*
X004850Y028630D01*
X004694Y028630D02*
X004680Y028630D01*
X004694Y028630D02*
X004180Y028630D01*
X004180Y028472D02*
X004368Y028472D01*
X004206Y028313D02*
X004180Y028313D01*
X004180Y028789D02*
X006680Y028789D01*
X006680Y028947D02*
X004180Y028947D01*
X004180Y029106D02*
X005778Y029106D01*
X004680Y029106D01*
X004680Y029264D02*
X005620Y029264D01*
X004180Y029264D01*
X004180Y029423D02*
X005487Y029423D01*
X004680Y029423D01*
X004680Y029581D02*
X005487Y029581D01*
X004180Y029581D01*
X004180Y029740D02*
X005487Y029740D01*
X004680Y029740D01*
X004180Y029898D02*
X005566Y029898D01*
X005724Y030057D02*
X004180Y030057D01*
X004180Y030215D02*
X005624Y030215D01*
X005467Y030374D02*
X004180Y030374D01*
X004180Y030532D02*
X005467Y030532D01*
X005467Y030691D02*
X004180Y030691D01*
X004180Y030849D02*
X005504Y030849D01*
X005663Y031008D02*
X004180Y031008D01*
X004180Y031166D02*
X005717Y031166D01*
X005759Y031325D02*
X004180Y031325D01*
X004180Y031483D02*
X005917Y031483D01*
X006076Y031642D02*
X005353Y031642D01*
X005575Y031800D02*
X006234Y031800D01*
X006430Y031600D02*
X011180Y031600D01*
X012180Y031600D01*
X013180Y031600D01*
X013180Y030600D02*
X012180Y030600D01*
X011180Y030600D01*
X011172Y030592D01*
X006784Y030592D01*
X005997Y030592D02*
X005997Y031167D01*
X006430Y031600D01*
X006680Y031959D02*
X005707Y031959D01*
X005792Y032117D02*
X006680Y032117D01*
X006680Y032276D02*
X005840Y032276D01*
X005852Y032593D02*
X006680Y032593D01*
X006680Y032751D02*
X006576Y032751D01*
X006576Y032910D02*
X006680Y032910D01*
X006680Y033068D02*
X006576Y033068D01*
X006576Y033227D02*
X006680Y033227D01*
X006680Y033385D02*
X006576Y033385D01*
X006576Y033544D02*
X006680Y033544D01*
X006680Y033702D02*
X006576Y033702D01*
X006656Y033789D02*
X006845Y033600D01*
X011180Y033600D01*
X012180Y033600D01*
X013180Y033600D01*
X013180Y032600D02*
X012180Y032600D01*
X011180Y032600D01*
X011180Y033600D01*
X011180Y034600D02*
X013180Y034600D01*
X012180Y034600D01*
X012180Y035600D02*
X011180Y035600D01*
X011180Y034600D01*
X011180Y035600D02*
X010141Y035639D01*
X007837Y035639D01*
X006680Y035604D02*
X005595Y035604D01*
X005595Y035559D02*
X005595Y035719D01*
X006638Y035719D01*
X006625Y035828D01*
X006597Y035951D01*
X006556Y036071D01*
X006501Y036184D01*
X006434Y036291D01*
X006355Y036390D01*
X006265Y036479D01*
X006167Y036558D01*
X006060Y036625D01*
X005946Y036680D01*
X005827Y036722D01*
X005703Y036750D01*
X005595Y036762D01*
X005595Y035719D01*
X005435Y035719D01*
X005435Y035559D01*
X005595Y035559D01*
X006638Y035559D01*
X006625Y035451D01*
X006597Y035327D01*
X006556Y035208D01*
X006501Y035094D01*
X006434Y034987D01*
X006355Y034889D01*
X006334Y034868D01*
X006344Y034872D01*
X006468Y034900D01*
X006576Y034912D01*
X006576Y033869D01*
X005533Y033869D01*
X005546Y033978D01*
X005574Y034101D01*
X005615Y034220D01*
X005670Y034334D01*
X005738Y034441D01*
X005816Y034540D01*
X005837Y034560D01*
X005827Y034557D01*
X005703Y034529D01*
X005595Y034516D01*
X005595Y035559D01*
X005595Y035446D02*
X005435Y035446D01*
X005435Y035559D02*
X005435Y034516D01*
X005326Y034529D01*
X005203Y034557D01*
X005083Y034598D01*
X004970Y034653D01*
X004180Y034653D01*
X004180Y034495D02*
X005780Y034495D01*
X005672Y034336D02*
X004180Y034336D01*
X004180Y034178D02*
X005601Y034178D01*
X005555Y034019D02*
X004180Y034019D01*
X004180Y033861D02*
X006576Y033861D01*
X006656Y033789D02*
X005515Y034931D01*
X005515Y035639D01*
X005435Y035604D02*
X004180Y035604D01*
X004180Y035446D02*
X004405Y035446D01*
X004404Y035451D02*
X004432Y035327D01*
X004474Y035208D01*
X004529Y035094D01*
X004596Y034987D01*
X004675Y034889D01*
X004764Y034799D01*
X004863Y034721D01*
X004970Y034653D01*
X004752Y034812D02*
X004180Y034812D01*
X004180Y034970D02*
X004610Y034970D01*
X004512Y035129D02*
X004180Y035129D01*
X004180Y035287D02*
X004446Y035287D01*
X004404Y035451D02*
X004392Y035559D01*
X005435Y035559D01*
X005435Y035719D02*
X004392Y035719D01*
X004404Y035828D01*
X004432Y035951D01*
X004474Y036071D01*
X004529Y036184D01*
X004596Y036291D01*
X004675Y036390D01*
X004764Y036479D01*
X004863Y036558D01*
X004970Y036625D01*
X005083Y036680D01*
X005203Y036722D01*
X005326Y036750D01*
X005435Y036762D01*
X005435Y035719D01*
X005435Y035763D02*
X005595Y035763D01*
X005595Y035921D02*
X005435Y035921D01*
X005435Y036080D02*
X005595Y036080D01*
X005595Y036238D02*
X005435Y036238D01*
X005435Y036397D02*
X005595Y036397D01*
X005595Y036555D02*
X005435Y036555D01*
X005435Y036714D02*
X005595Y036714D01*
X005851Y036714D02*
X006680Y036714D01*
X006680Y036872D02*
X004180Y036872D01*
X004180Y036714D02*
X005179Y036714D01*
X004859Y036555D02*
X004180Y036555D01*
X004180Y036397D02*
X004681Y036397D01*
X004562Y036238D02*
X004180Y036238D01*
X004180Y036080D02*
X004478Y036080D01*
X004425Y035921D02*
X004180Y035921D01*
X004180Y035763D02*
X004397Y035763D01*
X005435Y035287D02*
X005595Y035287D01*
X005595Y035129D02*
X005435Y035129D01*
X005435Y034970D02*
X005595Y034970D01*
X005595Y034812D02*
X005435Y034812D01*
X005435Y034653D02*
X005595Y034653D01*
X006420Y034970D02*
X006680Y034970D01*
X006680Y034812D02*
X006576Y034812D01*
X006576Y034653D02*
X006680Y034653D01*
X006680Y034495D02*
X006576Y034495D01*
X006576Y034336D02*
X006680Y034336D01*
X006680Y034178D02*
X006576Y034178D01*
X006576Y034019D02*
X006680Y034019D01*
X005681Y033227D02*
X005473Y033227D01*
X005606Y033385D02*
X005101Y033385D01*
X005010Y033385D02*
X004850Y033385D01*
X004759Y033385D02*
X004180Y033385D01*
X004180Y033227D02*
X004387Y033227D01*
X004217Y033068D02*
X004180Y033068D01*
X004180Y033544D02*
X005559Y033544D01*
X005534Y033702D02*
X004180Y033702D01*
X004850Y033227D02*
X005010Y033227D01*
X005010Y033068D02*
X004850Y033068D01*
X004850Y032910D02*
X005010Y032910D01*
X005010Y032751D02*
X004850Y032751D01*
X004850Y032593D02*
X005010Y032593D01*
X005010Y032434D02*
X006680Y032434D01*
X006219Y032751D02*
X005817Y032751D01*
X005751Y032910D02*
X005955Y032910D01*
X005793Y033068D02*
X005643Y033068D01*
X005010Y032276D02*
X004850Y032276D01*
X004850Y032117D02*
X005010Y032117D01*
X005010Y031959D02*
X004850Y031959D01*
X004850Y031800D02*
X005010Y031800D01*
X005010Y031642D02*
X004850Y031642D01*
X004507Y031642D02*
X004180Y031642D01*
X004180Y031800D02*
X004285Y031800D01*
X005997Y029608D02*
X005997Y029033D01*
X006430Y028600D01*
X011180Y028600D01*
X012180Y028600D01*
X013180Y028600D01*
X013180Y029600D02*
X012180Y029600D01*
X011180Y029600D01*
X011172Y029608D01*
X006784Y029608D01*
X006379Y029264D02*
X006374Y029264D01*
X006216Y029106D02*
X006537Y029106D01*
X006241Y028789D02*
X004680Y028789D01*
X004680Y028947D02*
X006083Y028947D01*
X006010Y029106D02*
X005983Y029106D01*
X005983Y029264D02*
X006010Y029264D01*
X006010Y029423D02*
X005983Y029423D01*
X005983Y029581D02*
X006010Y029581D01*
X006400Y028630D02*
X005166Y028630D01*
X006680Y028630D01*
X006680Y028472D02*
X005492Y028472D01*
X005654Y028313D02*
X006680Y028313D01*
X006680Y028155D02*
X005758Y028155D01*
X005822Y027996D02*
X006680Y027996D01*
X006680Y027838D02*
X005854Y027838D01*
X007180Y024600D02*
X011180Y024600D01*
X012180Y024600D01*
X013180Y024600D01*
X009719Y021311D02*
X010680Y020350D01*
X011180Y020350D01*
X012180Y020350D01*
X013180Y020350D01*
X013180Y019350D02*
X012180Y019350D01*
X011180Y019350D01*
X010180Y019350D01*
X009593Y019937D01*
X009593Y020350D01*
X009719Y021311D02*
X008633Y021311D01*
X006680Y021339D02*
X004180Y021339D01*
X004180Y021181D02*
X006680Y021181D01*
X006680Y021022D02*
X004180Y021022D01*
X004180Y020864D02*
X004362Y020864D01*
X004204Y020705D02*
X004180Y020705D01*
X004661Y020705D02*
X004761Y020705D01*
X004761Y020547D02*
X004661Y020547D01*
X004762Y020388D02*
X006680Y020388D01*
X006680Y020230D02*
X005321Y020230D01*
X005295Y020071D02*
X006680Y020071D01*
X006680Y019913D02*
X005137Y019913D01*
X005198Y019754D02*
X006680Y019754D01*
X006680Y019596D02*
X005341Y019596D01*
X005341Y019437D02*
X006680Y019437D01*
X006680Y019279D02*
X005341Y019279D01*
X005341Y019120D02*
X006680Y019120D01*
X006680Y018962D02*
X005214Y018962D01*
X005055Y018803D02*
X006680Y018803D01*
X006680Y018645D02*
X004180Y018645D01*
X004180Y018803D02*
X004368Y018803D01*
X004209Y018962D02*
X004180Y018962D01*
X004180Y018486D02*
X006680Y018486D01*
X006680Y018328D02*
X004180Y018328D01*
X004180Y018169D02*
X006680Y018169D01*
X006680Y018011D02*
X004180Y018011D01*
X004180Y017852D02*
X004323Y017852D01*
X005100Y017852D02*
X006680Y017852D01*
X006680Y017694D02*
X005259Y017694D01*
X005341Y017535D02*
X006680Y017535D01*
X006680Y017377D02*
X005341Y017377D01*
X005341Y017218D02*
X006680Y017218D01*
X006680Y017060D02*
X005312Y017060D01*
X005153Y016901D02*
X006680Y016901D01*
X006680Y016743D02*
X005182Y016743D01*
X005321Y016584D02*
X006680Y016584D01*
X006680Y016426D02*
X005321Y016426D01*
X005321Y016267D02*
X006680Y016267D01*
X006680Y016109D02*
X005321Y016109D01*
X005174Y015950D02*
X006680Y015950D01*
X006680Y015792D02*
X005016Y015792D01*
X004761Y015792D02*
X004661Y015792D01*
X004661Y015950D02*
X004761Y015950D01*
X004761Y016109D02*
X004661Y016109D01*
X004661Y016267D02*
X004761Y016267D01*
X004407Y015792D02*
X004180Y015792D01*
X004180Y015950D02*
X004249Y015950D01*
X004180Y015633D02*
X006680Y015633D01*
X006680Y015475D02*
X004180Y015475D01*
X004180Y015316D02*
X006680Y015316D01*
X006680Y015158D02*
X004180Y015158D01*
X004180Y014999D02*
X006680Y014999D01*
X006680Y014841D02*
X004180Y014841D01*
X004180Y014682D02*
X006680Y014682D01*
X006680Y014524D02*
X004180Y014524D01*
X004180Y014365D02*
X006680Y014365D01*
X006680Y014207D02*
X004180Y014207D01*
X004180Y014048D02*
X006582Y014048D01*
X006371Y013890D02*
X004180Y013890D01*
X004180Y013731D02*
X006230Y013731D01*
X006132Y013573D02*
X004180Y013573D01*
X004180Y013414D02*
X006064Y013414D01*
X006021Y013256D02*
X004180Y013256D01*
X004180Y013097D02*
X006680Y013097D01*
X006003Y012939D02*
X004180Y012939D01*
X004180Y012780D02*
X006027Y012780D01*
X006073Y012622D02*
X004180Y012622D01*
X004180Y012463D02*
X006143Y012463D01*
X006249Y012305D02*
X004180Y012305D01*
X004180Y012146D02*
X006396Y012146D01*
X005680Y011988D02*
X004180Y011988D01*
X004180Y011829D02*
X005680Y011829D01*
X005680Y011671D02*
X004180Y011671D01*
X004180Y011512D02*
X005680Y011512D01*
X005680Y011354D02*
X004180Y011354D01*
X004180Y011195D02*
X005680Y011195D01*
X005680Y011037D02*
X004180Y011037D01*
X004180Y010878D02*
X005680Y010878D01*
X005680Y010720D02*
X004180Y010720D01*
X004180Y010561D02*
X005680Y010561D01*
X005680Y010403D02*
X004180Y010403D01*
X004180Y010244D02*
X005680Y010244D01*
X005680Y010086D02*
X004180Y010086D01*
X004180Y009927D02*
X005680Y009927D01*
X005680Y009769D02*
X004180Y009769D01*
X004180Y009610D02*
X005680Y009610D01*
X005680Y009452D02*
X004180Y009452D01*
X004180Y009293D02*
X005680Y009293D01*
X005680Y009135D02*
X004180Y009135D01*
X004180Y008976D02*
X005680Y008976D01*
X005680Y008818D02*
X004180Y008818D01*
X004180Y008659D02*
X005680Y008659D01*
X005680Y008501D02*
X004180Y008501D01*
X004180Y008342D02*
X005680Y008342D01*
X005680Y008184D02*
X004180Y008184D01*
X004180Y008025D02*
X005680Y008025D01*
X005680Y007867D02*
X004180Y007867D01*
X004180Y007708D02*
X005680Y007708D01*
X005680Y007550D02*
X004180Y007550D01*
X004180Y007391D02*
X005680Y007391D01*
X005680Y007233D02*
X004180Y007233D01*
X004180Y007074D02*
X005680Y007074D01*
X005680Y006916D02*
X004180Y006916D01*
X004180Y006757D02*
X005680Y006757D01*
X005680Y006599D02*
X004180Y006599D01*
X004180Y006440D02*
X005680Y006440D01*
X005680Y006282D02*
X004180Y006282D01*
X004180Y006123D02*
X005680Y006123D01*
X005680Y005965D02*
X004180Y005965D01*
X004180Y005806D02*
X005680Y005806D01*
X005680Y005648D02*
X004180Y005648D01*
X004180Y005489D02*
X005680Y005489D01*
X005680Y005331D02*
X004180Y005331D01*
X004180Y005172D02*
X005680Y005172D01*
X005680Y005014D02*
X004180Y005014D01*
X004180Y004855D02*
X005680Y004855D01*
X005680Y004697D02*
X004180Y004697D01*
X004180Y004538D02*
X005680Y004538D01*
X005680Y004380D02*
X004180Y004380D01*
X004180Y004221D02*
X005680Y004221D01*
X006256Y003904D02*
X004180Y003904D01*
X004180Y003746D02*
X006148Y003746D01*
X006076Y003587D02*
X004180Y003587D01*
X004180Y003429D02*
X006029Y003429D01*
X006004Y003270D02*
X004180Y003270D01*
X004180Y003112D02*
X006680Y003112D01*
X006061Y002795D02*
X004180Y002795D01*
X004180Y002953D02*
X006019Y002953D01*
X006127Y002636D02*
X004180Y002636D01*
X004180Y002478D02*
X006223Y002478D01*
X006362Y002319D02*
X004180Y002319D01*
X004180Y002161D02*
X006569Y002161D01*
X007007Y002002D02*
X004180Y002002D01*
X004180Y001844D02*
X009875Y001844D01*
X009863Y001905D02*
X009888Y001776D01*
X009926Y001651D01*
X009976Y001531D01*
X010038Y001415D01*
X010110Y001307D01*
X010193Y001206D01*
X010286Y001113D01*
X010387Y001030D01*
X010495Y000958D01*
X010611Y000896D01*
X010731Y000846D01*
X010856Y000808D01*
X010985Y000783D01*
X011100Y000771D01*
X011100Y002020D01*
X009851Y002020D01*
X009863Y001905D01*
X009853Y002002D02*
X007353Y002002D01*
X007260Y002002D02*
X007100Y002002D01*
X006407Y004063D02*
X004180Y004063D01*
X004180Y001685D02*
X009916Y001685D01*
X009978Y001527D02*
X004180Y001527D01*
X004180Y001368D02*
X010070Y001368D01*
X010190Y001210D02*
X004180Y001210D01*
X004180Y001051D02*
X010362Y001051D01*
X010620Y000893D02*
X004180Y000893D01*
X004180Y000734D02*
X042680Y000734D01*
X039180Y000734D01*
X039180Y000893D02*
X040620Y000893D01*
X011740Y000893D01*
X011749Y000896D02*
X011865Y000958D01*
X011973Y001030D01*
X012074Y001113D01*
X012167Y001206D01*
X012250Y001307D01*
X012322Y001415D01*
X012384Y001531D01*
X012434Y001651D01*
X012472Y001776D01*
X012497Y001905D01*
X012509Y002020D01*
X011260Y002020D01*
X011260Y000771D01*
X011375Y000783D01*
X011504Y000808D01*
X011629Y000846D01*
X011749Y000896D01*
X011998Y001051D02*
X040362Y001051D01*
X039180Y001051D01*
X039180Y001210D02*
X040190Y001210D01*
X012170Y001210D01*
X012290Y001368D02*
X040070Y001368D01*
X039180Y001368D01*
X039180Y001527D02*
X039978Y001527D01*
X012382Y001527D01*
X012444Y001685D02*
X039916Y001685D01*
X039180Y001685D01*
X039180Y001844D02*
X039875Y001844D01*
X012485Y001844D01*
X012507Y002002D02*
X039853Y002002D01*
X039180Y002002D01*
X039180Y002161D02*
X041100Y002161D01*
X041100Y002020D02*
X039851Y002020D01*
X039863Y001905D01*
X039888Y001776D01*
X039926Y001651D01*
X039976Y001531D01*
X040038Y001415D01*
X040110Y001307D01*
X040193Y001206D01*
X040286Y001113D01*
X040387Y001030D01*
X040495Y000958D01*
X040611Y000896D01*
X040731Y000846D01*
X040856Y000808D01*
X040985Y000783D01*
X041100Y000771D01*
X041100Y002020D01*
X041100Y002002D02*
X041260Y002002D01*
X041100Y002002D01*
X041100Y001844D02*
X041260Y001844D01*
X041100Y001844D01*
X041100Y001685D02*
X041260Y001685D01*
X041100Y001685D01*
X041100Y001527D02*
X041260Y001527D01*
X041100Y001527D01*
X041100Y001368D02*
X041260Y001368D01*
X041100Y001368D01*
X041100Y001210D02*
X041260Y001210D01*
X041100Y001210D01*
X041100Y001051D02*
X041260Y001051D01*
X041100Y001051D01*
X041100Y000893D02*
X041260Y000893D01*
X041100Y000893D01*
X041260Y000771D02*
X041375Y000783D01*
X041504Y000808D01*
X041629Y000846D01*
X041749Y000896D01*
X041865Y000958D01*
X041973Y001030D01*
X042074Y001113D01*
X042167Y001206D01*
X042250Y001307D01*
X042322Y001415D01*
X042384Y001531D01*
X042434Y001651D01*
X042472Y001776D01*
X042497Y001905D01*
X042509Y002020D01*
X041260Y002020D01*
X041260Y000771D01*
X041740Y000893D02*
X042680Y000893D01*
X041740Y000893D01*
X041998Y001051D02*
X042680Y001051D01*
X041998Y001051D01*
X042170Y001210D02*
X042680Y001210D01*
X042170Y001210D01*
X042290Y001368D02*
X042680Y001368D01*
X042290Y001368D01*
X042382Y001527D02*
X042680Y001527D01*
X042382Y001527D01*
X042444Y001685D02*
X042680Y001685D01*
X042444Y001685D01*
X042485Y001844D02*
X042680Y001844D01*
X042485Y001844D01*
X042507Y002002D02*
X042680Y002002D01*
X042507Y002002D01*
X042680Y002161D02*
X041260Y002161D01*
X041260Y002319D02*
X041100Y002319D01*
X041100Y002478D02*
X041260Y002478D01*
X041260Y002636D02*
X041100Y002636D01*
X041100Y002795D02*
X041260Y002795D01*
X041260Y002953D02*
X041100Y002953D01*
X041100Y003112D02*
X041260Y003112D01*
X041260Y003270D02*
X041100Y003270D01*
X041100Y003429D02*
X041260Y003429D01*
X042680Y003429D01*
X042680Y003587D02*
X039210Y003587D01*
X039193Y003746D02*
X042680Y003746D01*
X042680Y003904D02*
X039180Y003904D01*
X039180Y004063D02*
X042680Y004063D01*
X042680Y004221D02*
X039180Y004221D01*
X039180Y004380D02*
X042680Y004380D01*
X042680Y004538D02*
X039210Y004538D01*
X039210Y004697D02*
X042680Y004697D01*
X042680Y004855D02*
X039180Y004855D01*
X039180Y005014D02*
X042680Y005014D01*
X042680Y005172D02*
X039180Y005172D01*
X039180Y005331D02*
X042680Y005331D01*
X042680Y005489D02*
X039208Y005489D01*
X039210Y005648D02*
X042680Y005648D01*
X042680Y005806D02*
X039180Y005806D01*
X039180Y005965D02*
X042680Y005965D01*
X042680Y006123D02*
X039180Y006123D01*
X039180Y006282D02*
X042680Y006282D01*
X042680Y006440D02*
X039187Y006440D01*
X039210Y006599D02*
X042680Y006599D01*
X042680Y006757D02*
X039189Y006757D01*
X039180Y006916D02*
X042680Y006916D01*
X042680Y007074D02*
X039180Y007074D01*
X039180Y007233D02*
X042680Y007233D01*
X042680Y007391D02*
X039180Y007391D01*
X039210Y007550D02*
X042680Y007550D01*
X042680Y007708D02*
X039209Y007708D01*
X039180Y007867D02*
X042680Y007867D01*
X042680Y008025D02*
X039180Y008025D01*
X039180Y008184D02*
X042680Y008184D01*
X042680Y008342D02*
X039180Y008342D01*
X039210Y008501D02*
X042680Y008501D01*
X042680Y008659D02*
X039210Y008659D01*
X039180Y008818D02*
X042680Y008818D01*
X042680Y008976D02*
X039180Y008976D01*
X039180Y009135D02*
X042680Y009135D01*
X042680Y009293D02*
X039180Y009293D01*
X039192Y009452D02*
X042680Y009452D01*
X042680Y009610D02*
X039210Y009610D01*
X039184Y009769D02*
X042680Y009769D01*
X042680Y009927D02*
X039180Y009927D01*
X039180Y010086D02*
X042680Y010086D01*
X042680Y010244D02*
X039180Y010244D01*
X039180Y010403D02*
X042680Y010403D01*
X042680Y010561D02*
X039210Y010561D01*
X039204Y010720D02*
X042680Y010720D01*
X042680Y010878D02*
X039180Y010878D01*
X039180Y011037D02*
X042680Y011037D01*
X042680Y011195D02*
X039180Y011195D01*
X039180Y011354D02*
X042680Y011354D01*
X042680Y011512D02*
X039210Y011512D01*
X039210Y011671D02*
X042680Y011671D01*
X042680Y011829D02*
X039180Y011829D01*
X039180Y011988D02*
X042680Y011988D01*
X042680Y012146D02*
X039180Y012146D01*
X039180Y012305D02*
X042680Y012305D01*
X042680Y012463D02*
X039197Y012463D01*
X039210Y012622D02*
X042680Y012622D01*
X042680Y012780D02*
X039180Y012780D01*
X039180Y012939D02*
X042680Y012939D01*
X042680Y013097D02*
X039180Y013097D01*
X039180Y013256D02*
X042680Y013256D01*
X042680Y013414D02*
X039180Y013414D01*
X039210Y013573D02*
X042680Y013573D01*
X042680Y013731D02*
X039199Y013731D01*
X039180Y013890D02*
X042680Y013890D01*
X042680Y014048D02*
X039180Y014048D01*
X039180Y014207D02*
X042680Y014207D01*
X042680Y014365D02*
X039180Y014365D01*
X039210Y014524D02*
X042680Y014524D01*
X042680Y014682D02*
X039210Y014682D01*
X039180Y014841D02*
X042680Y014841D01*
X042680Y014999D02*
X039180Y014999D01*
X039180Y015158D02*
X042680Y015158D01*
X042680Y015316D02*
X039180Y015316D01*
X039202Y015475D02*
X042680Y015475D01*
X042680Y015633D02*
X039210Y015633D01*
X039180Y015792D02*
X042680Y015792D01*
X042680Y015950D02*
X039180Y015950D01*
X039180Y016109D02*
X042680Y016109D01*
X042680Y016267D02*
X039180Y016267D01*
X039181Y016426D02*
X042680Y016426D01*
X042680Y016584D02*
X039210Y016584D01*
X039195Y016743D02*
X042680Y016743D01*
X042680Y016901D02*
X039180Y016901D01*
X039180Y017060D02*
X042680Y017060D01*
X042680Y017218D02*
X039180Y017218D01*
X039180Y017377D02*
X042680Y017377D01*
X042680Y017535D02*
X039210Y017535D01*
X039210Y017694D02*
X042680Y017694D01*
X042680Y017852D02*
X039180Y017852D01*
X039180Y018011D02*
X042680Y018011D01*
X042680Y018169D02*
X039180Y018169D01*
X039180Y018328D02*
X042680Y018328D01*
X042680Y018486D02*
X039206Y018486D01*
X039210Y018645D02*
X042680Y018645D01*
X042680Y018803D02*
X039180Y018803D01*
X039180Y018962D02*
X042680Y018962D01*
X042680Y019120D02*
X039180Y019120D01*
X039180Y019279D02*
X042680Y019279D01*
X042680Y019437D02*
X039186Y019437D01*
X039210Y019596D02*
X042680Y019596D01*
X042680Y019754D02*
X039190Y019754D01*
X039180Y019913D02*
X042680Y019913D01*
X042680Y020071D02*
X039180Y020071D01*
X039180Y020230D02*
X042680Y020230D01*
X042680Y020388D02*
X039180Y020388D01*
X039180Y020864D02*
X042680Y020864D01*
X042680Y021022D02*
X039180Y021022D01*
X039180Y021181D02*
X042680Y021181D01*
X042680Y021339D02*
X039180Y021339D01*
X039210Y021498D02*
X042680Y021498D01*
X042680Y021656D02*
X039210Y021656D01*
X039180Y021815D02*
X042680Y021815D01*
X042680Y021973D02*
X039180Y021973D01*
X039180Y022132D02*
X042680Y022132D01*
X042680Y022290D02*
X039180Y022290D01*
X039191Y022449D02*
X042680Y022449D01*
X042680Y022607D02*
X039210Y022607D01*
X039185Y022766D02*
X042680Y022766D01*
X042680Y022924D02*
X039180Y022924D01*
X039180Y023083D02*
X042680Y023083D01*
X042680Y023241D02*
X039180Y023241D01*
X039180Y023400D02*
X042680Y023400D01*
X042680Y023558D02*
X039210Y023558D01*
X039205Y023717D02*
X042680Y023717D01*
X042680Y023875D02*
X039180Y023875D01*
X039180Y024034D02*
X042680Y024034D01*
X042680Y024192D02*
X039180Y024192D01*
X039180Y024351D02*
X042680Y024351D01*
X042680Y024509D02*
X039210Y024509D01*
X039210Y024668D02*
X042680Y024668D01*
X042680Y024826D02*
X039180Y024826D01*
X039180Y024985D02*
X042680Y024985D01*
X042680Y025143D02*
X039180Y025143D01*
X039180Y025302D02*
X042680Y025302D01*
X042680Y025460D02*
X039196Y025460D01*
X039210Y025619D02*
X042680Y025619D01*
X042680Y025777D02*
X039180Y025777D01*
X039180Y025936D02*
X042680Y025936D01*
X042680Y026094D02*
X039180Y026094D01*
X039180Y026253D02*
X042680Y026253D01*
X042680Y026411D02*
X039180Y026411D01*
X039210Y026570D02*
X042680Y026570D01*
X042680Y026728D02*
X039201Y026728D01*
X039180Y026887D02*
X042680Y026887D01*
X042680Y027045D02*
X039180Y027045D01*
X039180Y027204D02*
X042680Y027204D01*
X042680Y027362D02*
X039180Y027362D01*
X039210Y027521D02*
X042680Y027521D01*
X042680Y027679D02*
X039210Y027679D01*
X039180Y027838D02*
X042680Y027838D01*
X042680Y027996D02*
X039180Y027996D01*
X039180Y028155D02*
X042680Y028155D01*
X042680Y028313D02*
X039180Y028313D01*
X039200Y028472D02*
X042680Y028472D01*
X042680Y028630D02*
X039210Y028630D01*
X039180Y028789D02*
X042680Y028789D01*
X042680Y028947D02*
X039180Y028947D01*
X039180Y029106D02*
X042680Y029106D01*
X042680Y029264D02*
X039180Y029264D01*
X039180Y029423D02*
X042680Y029423D01*
X042680Y029581D02*
X039210Y029581D01*
X039196Y029740D02*
X042680Y029740D01*
X042680Y029898D02*
X039180Y029898D01*
X039180Y030057D02*
X042680Y030057D01*
X042680Y030215D02*
X039180Y030215D01*
X039180Y030374D02*
X042680Y030374D01*
X042680Y030532D02*
X039210Y030532D01*
X039210Y030691D02*
X042680Y030691D01*
X042680Y030849D02*
X039180Y030849D01*
X039180Y031008D02*
X042680Y031008D01*
X042680Y031166D02*
X039180Y031166D01*
X039180Y031325D02*
X042680Y031325D01*
X042680Y031483D02*
X039205Y031483D01*
X039210Y031642D02*
X042680Y031642D01*
X042680Y031800D02*
X039180Y031800D01*
X039180Y031959D02*
X042680Y031959D01*
X042680Y032117D02*
X039180Y032117D01*
X039180Y032276D02*
X042680Y032276D01*
X042680Y032434D02*
X039185Y032434D01*
X039210Y032593D02*
X042680Y032593D01*
X042680Y032751D02*
X039191Y032751D01*
X039180Y032910D02*
X042680Y032910D01*
X042680Y033068D02*
X039180Y033068D01*
X039180Y033227D02*
X042680Y033227D01*
X042680Y033385D02*
X039180Y033385D01*
X039210Y033544D02*
X042680Y033544D01*
X042680Y033702D02*
X039210Y033702D01*
X039180Y033861D02*
X042680Y033861D01*
X042680Y034019D02*
X039180Y034019D01*
X039180Y034178D02*
X042680Y034178D01*
X042680Y034336D02*
X039180Y034336D01*
X039210Y034495D02*
X042680Y034495D01*
X042680Y034653D02*
X039210Y034653D01*
X039180Y034812D02*
X042680Y034812D01*
X042680Y034970D02*
X039180Y034970D01*
X039180Y035129D02*
X042680Y035129D01*
X042680Y035287D02*
X039180Y035287D01*
X039190Y035446D02*
X042680Y035446D01*
X042680Y035604D02*
X039210Y035604D01*
X039186Y035763D02*
X042680Y035763D01*
X042680Y035921D02*
X039180Y035921D01*
X039180Y036080D02*
X042680Y036080D01*
X042680Y036238D02*
X039180Y036238D01*
X039180Y036397D02*
X040610Y036397D01*
X040357Y036555D02*
X039210Y036555D01*
X039207Y036714D02*
X040187Y036714D01*
X040067Y036872D02*
X039180Y036872D01*
X039180Y037031D02*
X039976Y037031D01*
X039915Y037189D02*
X039180Y037189D01*
X039180Y037348D02*
X039874Y037348D01*
X012486Y037348D01*
X012507Y037506D02*
X022821Y037506D01*
X022852Y037493D02*
X022948Y037493D01*
X023036Y037530D01*
X023103Y037597D01*
X023140Y037685D01*
X023140Y037719D01*
X023186Y037700D01*
X023489Y037700D01*
X023577Y037737D01*
X023660Y037819D01*
X023743Y037737D01*
X023831Y037700D01*
X024237Y037700D01*
X024325Y037737D01*
X024356Y037768D01*
X024387Y037737D01*
X024476Y037700D01*
X024778Y037700D01*
X024866Y037737D01*
X025037Y037907D01*
X025074Y037996D01*
X025074Y038105D01*
X025131Y038047D01*
X025131Y037892D01*
X025167Y037804D01*
X025235Y037737D01*
X025323Y037700D01*
X025418Y037700D01*
X025482Y037726D01*
X025546Y037700D01*
X025641Y037700D01*
X025729Y037737D01*
X025895Y037902D01*
X025895Y037892D01*
X025931Y037804D01*
X025999Y037737D01*
X026087Y037700D01*
X026389Y037700D01*
X026477Y037737D01*
X026509Y037768D01*
X026540Y037737D01*
X026628Y037700D01*
X026724Y037700D01*
X026812Y037737D01*
X026884Y037809D01*
X026886Y037804D01*
X026954Y037737D01*
X027042Y037700D01*
X027137Y037700D01*
X027225Y037737D01*
X027293Y037804D01*
X027329Y037892D01*
X027329Y038608D01*
X027293Y038696D01*
X027225Y038764D01*
X027137Y038801D01*
X026731Y038801D01*
X026643Y038764D01*
X026474Y038594D01*
X026472Y038593D01*
X026460Y038564D01*
X026389Y038594D01*
X026087Y038594D01*
X025999Y038557D01*
X025968Y038526D01*
X025936Y038557D01*
X025911Y038568D01*
X025900Y038593D01*
X025833Y038661D01*
X025745Y038697D01*
X025649Y038697D01*
X025561Y038661D01*
X025493Y038593D01*
X025483Y038568D01*
X025482Y038567D01*
X025418Y038594D01*
X025323Y038594D01*
X025267Y038571D01*
X025212Y038594D01*
X025013Y038594D01*
X024924Y038557D01*
X024895Y038528D01*
X024866Y038557D01*
X024778Y038594D01*
X024476Y038594D01*
X024429Y038574D01*
X024429Y038608D01*
X024392Y038696D01*
X024325Y038764D01*
X024237Y038801D01*
X023831Y038801D01*
X023743Y038764D01*
X023618Y038639D01*
X023572Y038593D01*
X023572Y038593D01*
X023572Y038593D01*
X023566Y038578D01*
X023560Y038564D01*
X023489Y038594D01*
X023186Y038594D01*
X023098Y038557D01*
X023067Y038526D01*
X023036Y038557D01*
X022948Y038594D01*
X022542Y038594D01*
X022454Y038557D01*
X022371Y038474D01*
X022288Y038557D01*
X022200Y038594D01*
X021897Y038594D01*
X021809Y038557D01*
X021778Y038526D01*
X021747Y038557D01*
X021721Y038568D01*
X021711Y038593D01*
X021643Y038661D01*
X021555Y038697D01*
X021460Y038697D01*
X021371Y038661D01*
X021304Y038593D01*
X021293Y038568D01*
X021268Y038557D01*
X021200Y038490D01*
X021164Y038401D01*
X021164Y038306D01*
X021173Y038283D01*
X021099Y038283D01*
X021099Y038401D01*
X021062Y038490D01*
X020995Y038557D01*
X020907Y038594D01*
X020501Y038594D01*
X020413Y038557D01*
X020330Y038474D01*
X020314Y038490D01*
X020247Y038557D01*
X020159Y038594D01*
X019856Y038594D01*
X019768Y038557D01*
X019737Y038526D01*
X019706Y038557D01*
X019680Y038568D01*
X019670Y038593D01*
X019602Y038661D01*
X019514Y038697D01*
X019419Y038697D01*
X019330Y038661D01*
X019263Y038593D01*
X019252Y038568D01*
X019227Y038557D01*
X019159Y038490D01*
X019123Y038401D01*
X019123Y038306D01*
X019159Y038218D01*
X019226Y038151D01*
X019226Y038143D01*
X019159Y038076D01*
X019123Y037988D01*
X019123Y037892D01*
X019159Y037804D01*
X019227Y037737D01*
X019315Y037700D01*
X019411Y037700D01*
X019499Y037737D01*
X019664Y037902D01*
X019664Y037892D01*
X019701Y037804D01*
X019768Y037737D01*
X019856Y037700D01*
X020159Y037700D01*
X020247Y037737D01*
X020278Y037768D01*
X020309Y037737D01*
X020397Y037700D01*
X020493Y037700D01*
X020581Y037737D01*
X020649Y037804D01*
X020652Y037812D01*
X020655Y037804D01*
X020723Y037737D01*
X020811Y037700D01*
X020907Y037700D01*
X020968Y037726D01*
X021030Y037700D01*
X021229Y037700D01*
X021293Y037726D01*
X021356Y037700D01*
X021452Y037700D01*
X021540Y037737D01*
X021675Y037871D01*
X021706Y037840D01*
X021809Y037737D01*
X021897Y037700D01*
X022200Y037700D01*
X022288Y037737D01*
X022371Y037819D01*
X022386Y037804D01*
X022454Y037737D01*
X022542Y037700D01*
X022660Y037700D01*
X022660Y037685D01*
X022696Y037597D01*
X022764Y037530D01*
X022852Y037493D01*
X022979Y037506D02*
X039853Y037506D01*
X039180Y037506D01*
X039180Y037665D02*
X041100Y037665D01*
X023131Y037665D01*
X022669Y037665D02*
X011260Y037665D01*
X011260Y037680D02*
X012509Y037680D01*
X012497Y037795D01*
X012472Y037924D01*
X012434Y038049D01*
X012384Y038169D01*
X012322Y038285D01*
X012250Y038393D01*
X012167Y038494D01*
X012074Y038587D01*
X011973Y038670D01*
X011865Y038742D01*
X011749Y038804D01*
X011629Y038854D01*
X011504Y038892D01*
X011375Y038917D01*
X011260Y038929D01*
X011260Y037680D01*
X011260Y037823D02*
X011100Y037823D01*
X011100Y037665D02*
X004180Y037665D01*
X004180Y037823D02*
X009868Y037823D01*
X009906Y037982D02*
X004180Y037982D01*
X004180Y038140D02*
X009964Y038140D01*
X010047Y038299D02*
X004180Y038299D01*
X004180Y038457D02*
X010163Y038457D01*
X010321Y038616D02*
X004180Y038616D01*
X004180Y038774D02*
X010555Y038774D01*
X011100Y038774D02*
X011260Y038774D01*
X011260Y038616D02*
X011100Y038616D01*
X011100Y038457D02*
X011260Y038457D01*
X011260Y038299D02*
X011100Y038299D01*
X011100Y038140D02*
X011260Y038140D01*
X011260Y037982D02*
X011100Y037982D01*
X011805Y038774D02*
X023767Y038774D01*
X023594Y038616D02*
X021688Y038616D01*
X021326Y038616D02*
X019647Y038616D01*
X019285Y038616D02*
X012039Y038616D01*
X012197Y038457D02*
X019146Y038457D01*
X019126Y038299D02*
X012313Y038299D01*
X012396Y038140D02*
X019224Y038140D01*
X019123Y037982D02*
X012454Y037982D01*
X012492Y037823D02*
X019152Y037823D01*
X019585Y037823D02*
X019693Y037823D01*
X020314Y038490D02*
X020314Y038490D01*
X021076Y038457D02*
X021187Y038457D01*
X021167Y038299D02*
X021099Y038299D01*
X021626Y037823D02*
X021723Y037823D01*
X024301Y038774D02*
X026668Y038774D01*
X026495Y038616D02*
X025878Y038616D01*
X025516Y038616D02*
X024426Y038616D01*
X025068Y037982D02*
X025131Y037982D01*
X025159Y037823D02*
X024953Y037823D01*
X025816Y037823D02*
X025923Y037823D01*
X026472Y038593D02*
X026472Y038593D01*
X027201Y038774D02*
X040555Y038774D01*
X039180Y038774D01*
X039180Y038616D02*
X040321Y038616D01*
X027326Y038616D01*
X027329Y038457D02*
X040163Y038457D01*
X039180Y038457D01*
X039180Y038299D02*
X040047Y038299D01*
X027329Y038299D01*
X027329Y038140D02*
X039964Y038140D01*
X039180Y038140D01*
X039180Y037982D02*
X039906Y037982D01*
X027329Y037982D01*
X027301Y037823D02*
X039868Y037823D01*
X039180Y037823D01*
X039915Y037189D02*
X012445Y037189D01*
X012180Y035600D02*
X013180Y035600D01*
X009915Y037189D02*
X004180Y037189D01*
X004180Y037031D02*
X006680Y037031D01*
X006680Y036555D02*
X006171Y036555D01*
X006348Y036397D02*
X006680Y036397D01*
X006680Y036238D02*
X006467Y036238D01*
X006551Y036080D02*
X006680Y036080D01*
X006680Y035921D02*
X006604Y035921D01*
X006633Y035763D02*
X006680Y035763D01*
X006680Y035446D02*
X006624Y035446D01*
X006583Y035287D02*
X006680Y035287D01*
X006680Y035129D02*
X006517Y035129D01*
X004180Y037348D02*
X009874Y037348D01*
X009853Y037506D02*
X004180Y037506D01*
X004180Y038933D02*
X042680Y038933D01*
X039180Y038933D01*
X039180Y039091D02*
X042680Y039091D01*
X004180Y039091D01*
X004663Y024520D02*
X004673Y024449D01*
X004699Y024352D01*
X004737Y024258D01*
X004788Y024171D01*
X004849Y024091D01*
X004921Y024019D01*
X005001Y023958D01*
X005088Y023907D01*
X005182Y023869D01*
X005279Y023843D01*
X005350Y023833D01*
X005350Y024520D01*
X004663Y024520D01*
X004665Y024509D02*
X004180Y024509D01*
X004180Y024351D02*
X004699Y024351D01*
X004776Y024192D02*
X004180Y024192D01*
X004180Y024034D02*
X004907Y024034D01*
X005167Y023875D02*
X004180Y023875D01*
X004180Y023717D02*
X006680Y023717D01*
X006680Y023875D02*
X005693Y023875D01*
X005678Y023869D02*
X005772Y023907D01*
X005859Y023958D01*
X005939Y024019D01*
X006011Y024091D01*
X006072Y024171D01*
X006123Y024258D01*
X006161Y024352D01*
X006187Y024449D01*
X006197Y024520D01*
X005510Y024520D01*
X005510Y023833D01*
X005581Y023843D01*
X005678Y023869D01*
X005510Y023875D02*
X005350Y023875D01*
X005350Y024034D02*
X005510Y024034D01*
X005510Y024192D02*
X005350Y024192D01*
X005350Y024351D02*
X005510Y024351D01*
X005510Y024509D02*
X005350Y024509D01*
X005953Y024034D02*
X006628Y024034D01*
X006493Y024192D02*
X006084Y024192D01*
X006161Y024351D02*
X006428Y024351D01*
X006389Y024509D02*
X006195Y024509D01*
X006680Y023558D02*
X004180Y023558D01*
X004833Y023400D02*
X006680Y023400D01*
X006680Y023241D02*
X004992Y023241D01*
X005063Y023083D02*
X006680Y023083D01*
X006680Y022924D02*
X005104Y022924D01*
X005104Y022766D02*
X006680Y022766D01*
X006680Y022607D02*
X005059Y022607D01*
X004981Y022449D02*
X006680Y022449D01*
X006680Y022290D02*
X004823Y022290D01*
X004180Y022132D02*
X006680Y022132D01*
X006680Y021973D02*
X004180Y021973D01*
X004180Y021815D02*
X006680Y021815D01*
X006680Y021656D02*
X004180Y021656D01*
X004180Y021498D02*
X006680Y021498D01*
X006680Y020864D02*
X005061Y020864D01*
X005219Y020705D02*
X006680Y020705D01*
X006680Y020547D02*
X005321Y020547D01*
X004761Y020864D02*
X004661Y020864D01*
X008672Y018350D02*
X011180Y018350D01*
X012180Y018350D01*
X013180Y018350D01*
X013180Y017350D02*
X012180Y017350D01*
X011180Y017350D01*
X010180Y017350D01*
X009593Y016763D01*
X009593Y016350D01*
X009680Y015350D02*
X010680Y016350D01*
X011180Y016350D01*
X012180Y016350D01*
X013180Y016350D01*
X009680Y015350D02*
X008633Y015350D01*
X008680Y012100D02*
X011180Y012100D01*
X012180Y012100D01*
X013180Y012100D01*
X013180Y011100D02*
X012180Y011100D01*
X011180Y011100D01*
X009430Y011100D01*
X008050Y009720D01*
X006680Y009720D01*
X007680Y009180D02*
X008260Y009180D01*
X009180Y010100D01*
X011180Y010100D01*
X012180Y010100D01*
X013180Y010100D01*
X013180Y009100D02*
X012180Y009100D01*
X011180Y009100D01*
X009180Y009100D01*
X008720Y008640D01*
X006680Y008640D01*
X006680Y007560D02*
X008720Y007560D01*
X009180Y007100D01*
X011180Y007100D01*
X012180Y007100D01*
X013180Y007100D01*
X013180Y006100D02*
X012180Y006100D01*
X011180Y006100D01*
X009180Y006100D01*
X008260Y007020D01*
X007680Y007020D01*
X008050Y006480D02*
X009430Y005100D01*
X011180Y005100D01*
X012180Y005100D01*
X013180Y005100D01*
X013180Y004100D02*
X012180Y004100D01*
X011180Y004100D01*
X008680Y004100D01*
X007680Y005100D01*
X007680Y005940D01*
X008050Y006480D02*
X006680Y006480D01*
X007680Y008100D02*
X011180Y008100D01*
X012180Y008100D01*
X013180Y008100D01*
X008680Y012100D02*
X007680Y011100D01*
X007680Y010260D01*
X011100Y002002D02*
X011260Y002002D01*
X011260Y001844D02*
X011100Y001844D01*
X011100Y001685D02*
X011260Y001685D01*
X011260Y001527D02*
X011100Y001527D01*
X011100Y001368D02*
X011260Y001368D01*
X011260Y001210D02*
X011100Y001210D01*
X011100Y001051D02*
X011260Y001051D01*
X011260Y000893D02*
X011100Y000893D01*
X039180Y002319D02*
X039868Y002319D01*
X039905Y002478D02*
X039203Y002478D01*
X039210Y002636D02*
X039962Y002636D01*
X040044Y002795D02*
X039180Y002795D01*
X039180Y002953D02*
X040159Y002953D01*
X040316Y003112D02*
X039180Y003112D01*
X039180Y003270D02*
X040548Y003270D01*
X041100Y003429D02*
X039183Y003429D01*
X041812Y003270D02*
X042680Y003270D01*
X042680Y003112D02*
X042044Y003112D01*
X042201Y002953D02*
X042680Y002953D01*
X042680Y002795D02*
X042316Y002795D01*
X042398Y002636D02*
X042680Y002636D01*
X042680Y002478D02*
X042455Y002478D01*
X042492Y002319D02*
X042680Y002319D01*
X042680Y036397D02*
X041750Y036397D01*
X042003Y036555D02*
X042680Y036555D01*
X042680Y036714D02*
X042173Y036714D01*
X042293Y036872D02*
X042680Y036872D01*
X042680Y037031D02*
X042384Y037031D01*
X042445Y037189D02*
X042680Y037189D01*
X042445Y037189D01*
X042486Y037348D02*
X042680Y037348D01*
X042486Y037348D01*
X042507Y037506D02*
X042680Y037506D01*
X042507Y037506D01*
X042680Y037665D02*
X041260Y037665D01*
X042680Y037665D01*
X042680Y037823D02*
X042492Y037823D01*
X042680Y037823D01*
X042680Y037982D02*
X042454Y037982D01*
X042680Y037982D01*
X042680Y038140D02*
X042396Y038140D01*
X042680Y038140D01*
X042680Y038299D02*
X042313Y038299D01*
X042680Y038299D01*
X042680Y038457D02*
X042197Y038457D01*
X042680Y038457D01*
X042680Y038616D02*
X042039Y038616D01*
X042680Y038616D01*
X042680Y038774D02*
X041805Y038774D01*
X042680Y038774D01*
X041260Y038774D02*
X041100Y038774D01*
X041260Y038774D01*
X041260Y038616D02*
X041100Y038616D01*
X041260Y038616D01*
X041260Y038457D02*
X041100Y038457D01*
X041260Y038457D01*
X041260Y038299D02*
X041100Y038299D01*
X041260Y038299D01*
X041260Y038140D02*
X041100Y038140D01*
X041260Y038140D01*
X041260Y037982D02*
X041100Y037982D01*
X041260Y037982D01*
X041260Y037823D02*
X041100Y037823D01*
X041260Y037823D01*
X041260Y037506D02*
X041100Y037506D01*
X041100Y037348D02*
X041260Y037348D01*
X041260Y037189D02*
X041100Y037189D01*
X041100Y037031D02*
X041260Y037031D01*
X041260Y036872D02*
X041100Y036872D01*
X041100Y036714D02*
X041260Y036714D01*
X041260Y036555D02*
X041100Y036555D01*
X041100Y036397D02*
X041260Y036397D01*
M02*
