G75*
%MOIN*%
%OFA0B0*%
%FSLAX24Y24*%
%IPPOS*%
%LPD*%
%AMOC8*
5,1,8,0,0,1.08239X$1,22.5*
%
%ADD10C,0.0000*%
%ADD11C,0.1890*%
%ADD12OC8,0.0660*%
%ADD13C,0.2000*%
%ADD14C,0.2300*%
%ADD15C,0.0560*%
%ADD16C,0.0780*%
%ADD17OC8,0.0860*%
%ADD18C,0.1500*%
%ADD19C,0.0660*%
%ADD20C,0.1181*%
%ADD21C,0.0787*%
D10*
X003680Y000100D02*
X003680Y039470D01*
X043050Y039470D01*
X043050Y000100D01*
X003680Y000100D01*
X004036Y022850D02*
X004038Y022889D01*
X004044Y022928D01*
X004054Y022966D01*
X004067Y023003D01*
X004084Y023038D01*
X004104Y023072D01*
X004128Y023103D01*
X004155Y023132D01*
X004184Y023158D01*
X004216Y023181D01*
X004250Y023201D01*
X004286Y023217D01*
X004323Y023229D01*
X004362Y023238D01*
X004401Y023243D01*
X004440Y023244D01*
X004479Y023241D01*
X004518Y023234D01*
X004555Y023223D01*
X004592Y023209D01*
X004627Y023191D01*
X004660Y023170D01*
X004691Y023145D01*
X004719Y023118D01*
X004744Y023088D01*
X004766Y023055D01*
X004785Y023021D01*
X004800Y022985D01*
X004812Y022947D01*
X004820Y022909D01*
X004824Y022870D01*
X004824Y022830D01*
X004820Y022791D01*
X004812Y022753D01*
X004800Y022715D01*
X004785Y022679D01*
X004766Y022645D01*
X004744Y022612D01*
X004719Y022582D01*
X004691Y022555D01*
X004660Y022530D01*
X004627Y022509D01*
X004592Y022491D01*
X004555Y022477D01*
X004518Y022466D01*
X004479Y022459D01*
X004440Y022456D01*
X004401Y022457D01*
X004362Y022462D01*
X004323Y022471D01*
X004286Y022483D01*
X004250Y022499D01*
X004216Y022519D01*
X004184Y022542D01*
X004155Y022568D01*
X004128Y022597D01*
X004104Y022628D01*
X004084Y022662D01*
X004067Y022697D01*
X004054Y022734D01*
X004044Y022772D01*
X004038Y022811D01*
X004036Y022850D01*
X004036Y026350D02*
X004038Y026389D01*
X004044Y026428D01*
X004054Y026466D01*
X004067Y026503D01*
X004084Y026538D01*
X004104Y026572D01*
X004128Y026603D01*
X004155Y026632D01*
X004184Y026658D01*
X004216Y026681D01*
X004250Y026701D01*
X004286Y026717D01*
X004323Y026729D01*
X004362Y026738D01*
X004401Y026743D01*
X004440Y026744D01*
X004479Y026741D01*
X004518Y026734D01*
X004555Y026723D01*
X004592Y026709D01*
X004627Y026691D01*
X004660Y026670D01*
X004691Y026645D01*
X004719Y026618D01*
X004744Y026588D01*
X004766Y026555D01*
X004785Y026521D01*
X004800Y026485D01*
X004812Y026447D01*
X004820Y026409D01*
X004824Y026370D01*
X004824Y026330D01*
X004820Y026291D01*
X004812Y026253D01*
X004800Y026215D01*
X004785Y026179D01*
X004766Y026145D01*
X004744Y026112D01*
X004719Y026082D01*
X004691Y026055D01*
X004660Y026030D01*
X004627Y026009D01*
X004592Y025991D01*
X004555Y025977D01*
X004518Y025966D01*
X004479Y025959D01*
X004440Y025956D01*
X004401Y025957D01*
X004362Y025962D01*
X004323Y025971D01*
X004286Y025983D01*
X004250Y025999D01*
X004216Y026019D01*
X004184Y026042D01*
X004155Y026068D01*
X004128Y026097D01*
X004104Y026128D01*
X004084Y026162D01*
X004067Y026197D01*
X004054Y026234D01*
X004044Y026272D01*
X004038Y026311D01*
X004036Y026350D01*
D11*
X006656Y033789D03*
X005515Y035639D03*
X007837Y035639D03*
D12*
X006784Y030592D03*
X005997Y030592D03*
X005997Y029608D03*
X006784Y029608D03*
X007680Y010260D03*
X007680Y009180D03*
X006680Y008640D03*
X006680Y007560D03*
X007680Y007020D03*
X007680Y005940D03*
X006680Y006480D03*
X007680Y008100D03*
X006680Y009720D03*
D13*
X007180Y013030D03*
X007180Y003170D03*
D14*
X011180Y002100D03*
X041180Y002100D03*
X041180Y037600D03*
X011180Y037600D03*
D15*
X011180Y035600D03*
X011180Y034600D03*
X011180Y033600D03*
X011180Y032600D03*
X011180Y031600D03*
X011180Y030600D03*
X011180Y029600D03*
X011180Y028600D03*
X012180Y028600D03*
X012180Y029600D03*
X013180Y029600D03*
X013180Y028600D03*
X013180Y030600D03*
X013180Y031600D03*
X012180Y031600D03*
X012180Y030600D03*
X012180Y032600D03*
X012180Y033600D03*
X013180Y033600D03*
X013180Y032600D03*
X013180Y034600D03*
X013180Y035600D03*
X012180Y035600D03*
X012180Y034600D03*
X012180Y024600D03*
X013180Y024600D03*
X011180Y024600D03*
X011180Y020350D03*
X011180Y019350D03*
X011180Y018350D03*
X011180Y017350D03*
X011180Y016350D03*
X012180Y016350D03*
X012180Y017350D03*
X013180Y017350D03*
X013180Y016350D03*
X013180Y018350D03*
X013180Y019350D03*
X012180Y019350D03*
X012180Y018350D03*
X012180Y020350D03*
X013180Y020350D03*
X013180Y012100D03*
X013180Y011100D03*
X012180Y011100D03*
X012180Y012100D03*
X011180Y012100D03*
X011180Y011100D03*
X011180Y010100D03*
X011180Y009100D03*
X011180Y008100D03*
X011180Y007100D03*
X011180Y006100D03*
X011180Y005100D03*
X011180Y004100D03*
X012180Y004100D03*
X012180Y005100D03*
X013180Y005100D03*
X013180Y004100D03*
X013180Y006100D03*
X013180Y007100D03*
X012180Y007100D03*
X012180Y006100D03*
X012180Y008100D03*
X012180Y009100D03*
X013180Y009100D03*
X013180Y008100D03*
X013180Y010100D03*
X012180Y010100D03*
D16*
X009062Y018350D02*
X008282Y018350D01*
D17*
X009593Y016350D03*
X008633Y015350D03*
X004711Y016350D03*
X004711Y017350D03*
X004711Y019350D03*
X004711Y020350D03*
X008633Y021311D03*
X009593Y020350D03*
D18*
X004930Y027730D03*
X004930Y032470D03*
D19*
X014680Y032600D03*
X014680Y033600D03*
X015680Y033600D03*
X015680Y032600D03*
X016680Y032600D03*
X016680Y033600D03*
X017680Y033600D03*
X017680Y032600D03*
X017680Y031600D03*
X017680Y030600D03*
X016680Y030600D03*
X016680Y031600D03*
X015680Y031600D03*
X015680Y030600D03*
X014680Y030600D03*
X014680Y031600D03*
X014680Y029600D03*
X014680Y028600D03*
X015680Y028600D03*
X015680Y029600D03*
X016680Y029600D03*
X016680Y028600D03*
X017680Y028600D03*
X017680Y029600D03*
X018680Y029600D03*
X018680Y028600D03*
X019680Y028600D03*
X019680Y029600D03*
X020680Y029600D03*
X020680Y028600D03*
X020680Y027600D03*
X020680Y026600D03*
X019680Y026600D03*
X019680Y027600D03*
X018680Y027600D03*
X018680Y026600D03*
X018680Y025600D03*
X018680Y024600D03*
X019680Y024600D03*
X019680Y025600D03*
X020680Y025600D03*
X020680Y024600D03*
X020680Y023600D03*
X020680Y022600D03*
X019680Y022600D03*
X019680Y023600D03*
X018680Y023600D03*
X018680Y022600D03*
X018680Y021600D03*
X018680Y020600D03*
X019680Y020600D03*
X019680Y021600D03*
X020680Y021600D03*
X020680Y020600D03*
X020680Y019600D03*
X020680Y018600D03*
X019680Y018600D03*
X019680Y019600D03*
X018680Y019600D03*
X018680Y018600D03*
X018680Y017600D03*
X019680Y017600D03*
X020680Y017600D03*
X020680Y016600D03*
X020680Y015600D03*
X019680Y015600D03*
X019680Y016600D03*
X018680Y016600D03*
X018680Y015600D03*
X018680Y014600D03*
X018680Y013600D03*
X019680Y013600D03*
X019680Y014600D03*
X020680Y014600D03*
X020680Y013600D03*
X020680Y012600D03*
X020680Y011600D03*
X019680Y011600D03*
X019680Y012600D03*
X018680Y012600D03*
X018680Y011600D03*
X018680Y010600D03*
X018680Y009600D03*
X019680Y009600D03*
X019680Y010600D03*
X020680Y010600D03*
X020680Y009600D03*
X020680Y008600D03*
X020680Y007600D03*
X019680Y007600D03*
X019680Y008600D03*
X018680Y008600D03*
X018680Y007600D03*
X018680Y006600D03*
X018680Y005600D03*
X019680Y005600D03*
X019680Y006600D03*
X020680Y006600D03*
X020680Y005600D03*
X020680Y004600D03*
X020680Y003600D03*
X019680Y003600D03*
X019680Y004600D03*
X018680Y004600D03*
X018680Y003600D03*
X018680Y002600D03*
X019680Y002600D03*
X020680Y002600D03*
X021680Y002600D03*
X022680Y002600D03*
X023680Y002600D03*
X023680Y003600D03*
X023680Y004600D03*
X022680Y004600D03*
X022680Y003600D03*
X021680Y003600D03*
X021680Y004600D03*
X021680Y005600D03*
X021680Y006600D03*
X022680Y006600D03*
X022680Y005600D03*
X023680Y005600D03*
X023680Y006600D03*
X023680Y007600D03*
X023680Y008600D03*
X022680Y008600D03*
X022680Y007600D03*
X021680Y007600D03*
X021680Y008600D03*
X021680Y009600D03*
X021680Y010600D03*
X022680Y010600D03*
X022680Y009600D03*
X023680Y009600D03*
X023680Y010600D03*
X023680Y011600D03*
X023680Y012600D03*
X022680Y012600D03*
X022680Y011600D03*
X021680Y011600D03*
X021680Y012600D03*
X021680Y013600D03*
X021680Y014600D03*
X022680Y014600D03*
X022680Y013600D03*
X023680Y013600D03*
X023680Y014600D03*
X023680Y015600D03*
X023680Y016600D03*
X022680Y016600D03*
X022680Y015600D03*
X021680Y015600D03*
X021680Y016600D03*
X021680Y017600D03*
X022680Y017600D03*
X023680Y017600D03*
X023680Y018600D03*
X023680Y019600D03*
X022680Y019600D03*
X022680Y018600D03*
X021680Y018600D03*
X021680Y019600D03*
X021680Y020600D03*
X021680Y021600D03*
X022680Y021600D03*
X022680Y020600D03*
X023680Y020600D03*
X023680Y021600D03*
X023680Y022600D03*
X023680Y023600D03*
X022680Y023600D03*
X022680Y022600D03*
X021680Y022600D03*
X021680Y023600D03*
X021680Y024600D03*
X021680Y025600D03*
X022680Y025600D03*
X022680Y024600D03*
X023680Y024600D03*
X023680Y025600D03*
X023680Y026600D03*
X023680Y027600D03*
X022680Y027600D03*
X022680Y026600D03*
X021680Y026600D03*
X021680Y027600D03*
X021680Y028600D03*
X021680Y029600D03*
X022680Y029600D03*
X022680Y028600D03*
X023680Y028600D03*
X023680Y029600D03*
X023680Y030600D03*
X023680Y031600D03*
X022680Y031600D03*
X022680Y030600D03*
X021680Y030600D03*
X021680Y031600D03*
X021680Y032600D03*
X021680Y033600D03*
X022680Y033600D03*
X022680Y032600D03*
X023680Y032600D03*
X023680Y033600D03*
X023680Y034600D03*
X023680Y035600D03*
X022680Y035600D03*
X022680Y034600D03*
X021680Y034600D03*
X021680Y035600D03*
X021680Y036600D03*
X022680Y036600D03*
X023680Y036600D03*
X024680Y036600D03*
X025680Y036600D03*
X026680Y036600D03*
X026680Y035600D03*
X026680Y034600D03*
X025680Y034600D03*
X025680Y035600D03*
X024680Y035600D03*
X024680Y034600D03*
X024680Y033600D03*
X024680Y032600D03*
X025680Y032600D03*
X025680Y033600D03*
X026680Y033600D03*
X026680Y032600D03*
X026680Y031600D03*
X026680Y030600D03*
X025680Y030600D03*
X025680Y031600D03*
X024680Y031600D03*
X024680Y030600D03*
X024680Y029600D03*
X024680Y028600D03*
X025680Y028600D03*
X025680Y029600D03*
X026680Y029600D03*
X026680Y028600D03*
X026680Y027600D03*
X026680Y026600D03*
X025680Y026600D03*
X025680Y027600D03*
X024680Y027600D03*
X024680Y026600D03*
X024680Y025600D03*
X024680Y024600D03*
X025680Y024600D03*
X025680Y025600D03*
X026680Y025600D03*
X026680Y024600D03*
X026680Y023600D03*
X026680Y022600D03*
X025680Y022600D03*
X025680Y023600D03*
X024680Y023600D03*
X024680Y022600D03*
X024680Y021600D03*
X024680Y020600D03*
X025680Y020600D03*
X025680Y021600D03*
X026680Y021600D03*
X026680Y020600D03*
X026680Y019600D03*
X026680Y018600D03*
X025680Y018600D03*
X025680Y019600D03*
X024680Y019600D03*
X024680Y018600D03*
X024680Y017600D03*
X025680Y017600D03*
X026680Y017600D03*
X026680Y016600D03*
X026680Y015600D03*
X025680Y015600D03*
X025680Y016600D03*
X024680Y016600D03*
X024680Y015600D03*
X024680Y014600D03*
X024680Y013600D03*
X025680Y013600D03*
X025680Y014600D03*
X026680Y014600D03*
X026680Y013600D03*
X026680Y012600D03*
X026680Y011600D03*
X025680Y011600D03*
X025680Y012600D03*
X024680Y012600D03*
X024680Y011600D03*
X024680Y010600D03*
X024680Y009600D03*
X025680Y009600D03*
X025680Y010600D03*
X026680Y010600D03*
X026680Y009600D03*
X026680Y008600D03*
X026680Y007600D03*
X025680Y007600D03*
X025680Y008600D03*
X024680Y008600D03*
X024680Y007600D03*
X024680Y006600D03*
X024680Y005600D03*
X025680Y005600D03*
X025680Y006600D03*
X026680Y006600D03*
X026680Y005600D03*
X026680Y004600D03*
X026680Y003600D03*
X025680Y003600D03*
X025680Y004600D03*
X024680Y004600D03*
X024680Y003600D03*
X024680Y002600D03*
X025680Y002600D03*
X026680Y002600D03*
X027680Y002600D03*
X028680Y002600D03*
X029680Y002600D03*
X029680Y003600D03*
X029680Y004600D03*
X028680Y004600D03*
X028680Y003600D03*
X027680Y003600D03*
X027680Y004600D03*
X027680Y005600D03*
X027680Y006600D03*
X028680Y006600D03*
X028680Y005600D03*
X029680Y005600D03*
X029680Y006600D03*
X029680Y007600D03*
X029680Y008600D03*
X028680Y008600D03*
X028680Y007600D03*
X027680Y007600D03*
X027680Y008600D03*
X027680Y009600D03*
X027680Y010600D03*
X028680Y010600D03*
X028680Y009600D03*
X029680Y009600D03*
X029680Y010600D03*
X029680Y011600D03*
X029680Y012600D03*
X028680Y012600D03*
X028680Y011600D03*
X027680Y011600D03*
X027680Y012600D03*
X027680Y013600D03*
X027680Y014600D03*
X028680Y014600D03*
X028680Y013600D03*
X029680Y013600D03*
X029680Y014600D03*
X029680Y015600D03*
X029680Y016600D03*
X028680Y016600D03*
X028680Y015600D03*
X027680Y015600D03*
X027680Y016600D03*
X027680Y017600D03*
X028680Y017600D03*
X029680Y017600D03*
X029680Y018600D03*
X029680Y019600D03*
X028680Y019600D03*
X028680Y018600D03*
X027680Y018600D03*
X027680Y019600D03*
X027680Y020600D03*
X027680Y021600D03*
X028680Y021600D03*
X028680Y020600D03*
X029680Y020600D03*
X029680Y021600D03*
X029680Y022600D03*
X029680Y023600D03*
X028680Y023600D03*
X028680Y022600D03*
X027680Y022600D03*
X027680Y023600D03*
X027680Y024600D03*
X027680Y025600D03*
X028680Y025600D03*
X028680Y024600D03*
X029680Y024600D03*
X029680Y025600D03*
X029680Y026600D03*
X029680Y027600D03*
X028680Y027600D03*
X028680Y026600D03*
X027680Y026600D03*
X027680Y027600D03*
X027680Y028600D03*
X027680Y029600D03*
X028680Y029600D03*
X028680Y028600D03*
X029680Y028600D03*
X029680Y029600D03*
X029680Y030600D03*
X029680Y031600D03*
X028680Y031600D03*
X028680Y030600D03*
X027680Y030600D03*
X027680Y031600D03*
X027680Y032600D03*
X027680Y033600D03*
X028680Y033600D03*
X028680Y032600D03*
X029680Y032600D03*
X029680Y033600D03*
X029680Y034600D03*
X029680Y035600D03*
X028680Y035600D03*
X028680Y034600D03*
X027680Y034600D03*
X027680Y035600D03*
X027680Y036600D03*
X028680Y036600D03*
X029680Y036600D03*
X030680Y036600D03*
X031680Y036600D03*
X032680Y036600D03*
X032680Y035600D03*
X032680Y034600D03*
X031680Y034600D03*
X031680Y035600D03*
X030680Y035600D03*
X030680Y034600D03*
X030680Y033600D03*
X030680Y032600D03*
X031680Y032600D03*
X031680Y033600D03*
X032680Y033600D03*
X032680Y032600D03*
X032680Y031600D03*
X032680Y030600D03*
X031680Y030600D03*
X031680Y031600D03*
X030680Y031600D03*
X030680Y030600D03*
X030680Y029600D03*
X030680Y028600D03*
X031680Y028600D03*
X031680Y029600D03*
X032680Y029600D03*
X032680Y028600D03*
X032680Y027600D03*
X032680Y026600D03*
X031680Y026600D03*
X031680Y027600D03*
X030680Y027600D03*
X030680Y026600D03*
X030680Y025600D03*
X030680Y024600D03*
X031680Y024600D03*
X031680Y025600D03*
X032680Y025600D03*
X032680Y024600D03*
X032680Y023600D03*
X032680Y022600D03*
X031680Y022600D03*
X031680Y023600D03*
X030680Y023600D03*
X030680Y022600D03*
X030680Y021600D03*
X030680Y020600D03*
X031680Y020600D03*
X031680Y021600D03*
X032680Y021600D03*
X032680Y020600D03*
X032680Y019600D03*
X032680Y018600D03*
X031680Y018600D03*
X031680Y019600D03*
X030680Y019600D03*
X030680Y018600D03*
X030680Y017600D03*
X031680Y017600D03*
X032680Y017600D03*
X032680Y016600D03*
X032680Y015600D03*
X031680Y015600D03*
X031680Y016600D03*
X030680Y016600D03*
X030680Y015600D03*
X030680Y014600D03*
X030680Y013600D03*
X031680Y013600D03*
X031680Y014600D03*
X032680Y014600D03*
X032680Y013600D03*
X032680Y012600D03*
X032680Y011600D03*
X031680Y011600D03*
X031680Y012600D03*
X030680Y012600D03*
X030680Y011600D03*
X030680Y010600D03*
X030680Y009600D03*
X031680Y009600D03*
X031680Y010600D03*
X032680Y010600D03*
X032680Y009600D03*
X032680Y008600D03*
X032680Y007600D03*
X031680Y007600D03*
X031680Y008600D03*
X030680Y008600D03*
X030680Y007600D03*
X030680Y006600D03*
X030680Y005600D03*
X031680Y005600D03*
X031680Y006600D03*
X032680Y006600D03*
X032680Y005600D03*
X032680Y004600D03*
X032680Y003600D03*
X031680Y003600D03*
X031680Y004600D03*
X030680Y004600D03*
X030680Y003600D03*
X030680Y002600D03*
X031680Y002600D03*
X032680Y002600D03*
X033680Y002600D03*
X034680Y002600D03*
X035680Y002600D03*
X035680Y003600D03*
X035680Y004600D03*
X034680Y004600D03*
X034680Y003600D03*
X033680Y003600D03*
X033680Y004600D03*
X033680Y005600D03*
X033680Y006600D03*
X034680Y006600D03*
X034680Y005600D03*
X035680Y005600D03*
X035680Y006600D03*
X035680Y007600D03*
X035680Y008600D03*
X034680Y008600D03*
X034680Y007600D03*
X033680Y007600D03*
X033680Y008600D03*
X033680Y009600D03*
X033680Y010600D03*
X034680Y010600D03*
X034680Y009600D03*
X035680Y009600D03*
X035680Y010600D03*
X035680Y011600D03*
X035680Y012600D03*
X034680Y012600D03*
X034680Y011600D03*
X033680Y011600D03*
X033680Y012600D03*
X033680Y013600D03*
X033680Y014600D03*
X034680Y014600D03*
X034680Y013600D03*
X035680Y013600D03*
X035680Y014600D03*
X035680Y015600D03*
X035680Y016600D03*
X034680Y016600D03*
X034680Y015600D03*
X033680Y015600D03*
X033680Y016600D03*
X033680Y017600D03*
X034680Y017600D03*
X035680Y017600D03*
X035680Y018600D03*
X035680Y019600D03*
X034680Y019600D03*
X034680Y018600D03*
X033680Y018600D03*
X033680Y019600D03*
X033680Y020600D03*
X033680Y021600D03*
X034680Y021600D03*
X034680Y020600D03*
X035680Y020600D03*
X035680Y021600D03*
X035680Y022600D03*
X035680Y023600D03*
X034680Y023600D03*
X034680Y022600D03*
X033680Y022600D03*
X033680Y023600D03*
X033680Y024600D03*
X033680Y025600D03*
X034680Y025600D03*
X034680Y024600D03*
X035680Y024600D03*
X035680Y025600D03*
X035680Y026600D03*
X035680Y027600D03*
X034680Y027600D03*
X034680Y026600D03*
X033680Y026600D03*
X033680Y027600D03*
X033680Y028600D03*
X033680Y029600D03*
X034680Y029600D03*
X034680Y028600D03*
X035680Y028600D03*
X035680Y029600D03*
X035680Y030600D03*
X035680Y031600D03*
X034680Y031600D03*
X034680Y030600D03*
X033680Y030600D03*
X033680Y031600D03*
X033680Y032600D03*
X033680Y033600D03*
X034680Y033600D03*
X034680Y032600D03*
X035680Y032600D03*
X035680Y033600D03*
X035680Y034600D03*
X035680Y035600D03*
X034680Y035600D03*
X034680Y034600D03*
X033680Y034600D03*
X033680Y035600D03*
X033680Y036600D03*
X034680Y036600D03*
X035680Y036600D03*
X036680Y036600D03*
X037680Y036600D03*
X038680Y036600D03*
X038680Y035600D03*
X038680Y034600D03*
X037680Y034600D03*
X037680Y035600D03*
X036680Y035600D03*
X036680Y034600D03*
X036680Y033600D03*
X036680Y032600D03*
X037680Y032600D03*
X037680Y033600D03*
X038680Y033600D03*
X038680Y032600D03*
X038680Y031600D03*
X038680Y030600D03*
X037680Y030600D03*
X037680Y031600D03*
X036680Y031600D03*
X036680Y030600D03*
X036680Y029600D03*
X036680Y028600D03*
X037680Y028600D03*
X037680Y029600D03*
X038680Y029600D03*
X038680Y028600D03*
X038680Y027600D03*
X038680Y026600D03*
X037680Y026600D03*
X037680Y027600D03*
X036680Y027600D03*
X036680Y026600D03*
X036680Y025600D03*
X036680Y024600D03*
X037680Y024600D03*
X037680Y025600D03*
X038680Y025600D03*
X038680Y024600D03*
X038680Y023600D03*
X038680Y022600D03*
X037680Y022600D03*
X037680Y023600D03*
X036680Y023600D03*
X036680Y022600D03*
X036680Y021600D03*
X036680Y020600D03*
X037680Y020600D03*
X037680Y021600D03*
X038680Y021600D03*
X038680Y020600D03*
X038680Y019600D03*
X038680Y018600D03*
X037680Y018600D03*
X037680Y019600D03*
X036680Y019600D03*
X036680Y018600D03*
X036680Y017600D03*
X037680Y017600D03*
X038680Y017600D03*
X038680Y016600D03*
X038680Y015600D03*
X037680Y015600D03*
X037680Y016600D03*
X036680Y016600D03*
X036680Y015600D03*
X036680Y014600D03*
X036680Y013600D03*
X037680Y013600D03*
X037680Y014600D03*
X038680Y014600D03*
X038680Y013600D03*
X038680Y012600D03*
X038680Y011600D03*
X037680Y011600D03*
X037680Y012600D03*
X036680Y012600D03*
X036680Y011600D03*
X036680Y010600D03*
X036680Y009600D03*
X037680Y009600D03*
X037680Y010600D03*
X038680Y010600D03*
X038680Y009600D03*
X038680Y008600D03*
X038680Y007600D03*
X037680Y007600D03*
X037680Y008600D03*
X036680Y008600D03*
X036680Y007600D03*
X036680Y006600D03*
X036680Y005600D03*
X037680Y005600D03*
X037680Y006600D03*
X038680Y006600D03*
X038680Y005600D03*
X038680Y004600D03*
X038680Y003600D03*
X037680Y003600D03*
X037680Y004600D03*
X036680Y004600D03*
X036680Y003600D03*
X036680Y002600D03*
X037680Y002600D03*
X038680Y002600D03*
X017680Y002600D03*
X016680Y002600D03*
X015680Y002600D03*
X014680Y002600D03*
X014680Y003600D03*
X014680Y004600D03*
X015680Y004600D03*
X015680Y003600D03*
X016680Y003600D03*
X016680Y004600D03*
X017680Y004600D03*
X017680Y003600D03*
X017680Y005600D03*
X017680Y006600D03*
X016680Y006600D03*
X016680Y005600D03*
X015680Y005600D03*
X015680Y006600D03*
X014680Y006600D03*
X014680Y005600D03*
X014680Y007600D03*
X014680Y008600D03*
X015680Y008600D03*
X015680Y007600D03*
X016680Y007600D03*
X016680Y008600D03*
X017680Y008600D03*
X017680Y007600D03*
X017680Y009600D03*
X017680Y010600D03*
X016680Y010600D03*
X016680Y009600D03*
X015680Y009600D03*
X015680Y010600D03*
X014680Y010600D03*
X014680Y009600D03*
X014680Y011600D03*
X014680Y012600D03*
X015680Y012600D03*
X015680Y011600D03*
X016680Y011600D03*
X016680Y012600D03*
X017680Y012600D03*
X017680Y011600D03*
X017680Y013600D03*
X017680Y014600D03*
X016680Y014600D03*
X016680Y013600D03*
X015680Y013600D03*
X015680Y014600D03*
X014680Y014600D03*
X014680Y013600D03*
X014680Y015600D03*
X014680Y016600D03*
X015680Y016600D03*
X015680Y015600D03*
X016680Y015600D03*
X016680Y016600D03*
X017680Y016600D03*
X017680Y015600D03*
X017680Y017600D03*
X016680Y017600D03*
X015680Y017600D03*
X014680Y017600D03*
X014680Y018600D03*
X014680Y019600D03*
X015680Y019600D03*
X015680Y018600D03*
X016680Y018600D03*
X016680Y019600D03*
X017680Y019600D03*
X017680Y018600D03*
X017680Y020600D03*
X017680Y021600D03*
X016680Y021600D03*
X016680Y020600D03*
X015680Y020600D03*
X015680Y021600D03*
X014680Y021600D03*
X014680Y020600D03*
X014680Y022600D03*
X014680Y023600D03*
X015680Y023600D03*
X015680Y022600D03*
X016680Y022600D03*
X016680Y023600D03*
X017680Y023600D03*
X017680Y022600D03*
X017680Y024600D03*
X017680Y025600D03*
X016680Y025600D03*
X016680Y024600D03*
X015680Y024600D03*
X015680Y025600D03*
X014680Y025600D03*
X014680Y024600D03*
X014680Y026600D03*
X014680Y027600D03*
X015680Y027600D03*
X015680Y026600D03*
X016680Y026600D03*
X016680Y027600D03*
X017680Y027600D03*
X017680Y026600D03*
X018680Y030600D03*
X018680Y031600D03*
X019680Y031600D03*
X019680Y030600D03*
X020680Y030600D03*
X020680Y031600D03*
X020680Y032600D03*
X020680Y033600D03*
X019680Y033600D03*
X019680Y032600D03*
X018680Y032600D03*
X018680Y033600D03*
X018680Y034600D03*
X018680Y035600D03*
X019680Y035600D03*
X019680Y034600D03*
X020680Y034600D03*
X020680Y035600D03*
X020680Y036600D03*
X019680Y036600D03*
X018680Y036600D03*
X017680Y036600D03*
X016680Y036600D03*
X015680Y036600D03*
X014680Y036600D03*
X014680Y035600D03*
X014680Y034600D03*
X015680Y034600D03*
X015680Y035600D03*
X016680Y035600D03*
X016680Y034600D03*
X017680Y034600D03*
X017680Y035600D03*
D20*
X007180Y024600D03*
X005430Y024600D03*
D21*
X004430Y026350D03*
X004430Y022850D03*
M02*
