%
M48
M72
T01C0.0315
T02C0.0374
T03C0.0400
T04C0.0520
T05C0.0787
T06C0.0906
T07C0.1181
T08C0.1300
%
T01
X11180Y4100
X11180Y5100
X11180Y6100
X11180Y7100
X11180Y8100
X11180Y9100
X11180Y10100
X11180Y11100
X11180Y12100
X12180Y12100
X12180Y11100
X13180Y11100
X13180Y12100
X14680Y11600
X14680Y12600
X15680Y12600
X15680Y11600
X16680Y11600
X16680Y12600
X17680Y12600
X17680Y11600
X17680Y10600
X17680Y9600
X16680Y9600
X16680Y10600
X15680Y10600
X15680Y9600
X14680Y9600
X14680Y10600
X13180Y10100
X12180Y10100
X12180Y9100
X12180Y8100
X13180Y8100
X13180Y9100
X14680Y8600
X14680Y7600
X15680Y7600
X15680Y8600
X16680Y8600
X16680Y7600
X17680Y7600
X17680Y8600
X18680Y8600
X18680Y7600
X19680Y7600
X19680Y8600
X20680Y8600
X20680Y7600
X20680Y6600
X20680Y5600
X19680Y5600
X19680Y6600
X18680Y6600
X18680Y5600
X18680Y4600
X18680Y3600
X19680Y3600
X19680Y4600
X20680Y4600
X20680Y3600
X20680Y2600
X19680Y2600
X18680Y2600
X17680Y2600
X16680Y2600
X15680Y2600
X14680Y2600
X14680Y3600
X14680Y4600
X15680Y4600
X15680Y3600
X16680Y3600
X16680Y4600
X17680Y4600
X17680Y3600
X17680Y5600
X17680Y6600
X16680Y6600
X16680Y5600
X15680Y5600
X15680Y6600
X14680Y6600
X14680Y5600
X13180Y5100
X13180Y4100
X12180Y4100
X12180Y5100
X12180Y6100
X12180Y7100
X13180Y7100
X13180Y6100
X18680Y9600
X18680Y10600
X19680Y10600
X19680Y9600
X20680Y9600
X20680Y10600
X20680Y11600
X20680Y12600
X19680Y12600
X19680Y11600
X18680Y11600
X18680Y12600
X18680Y13600
X18680Y14600
X19680Y14600
X19680Y13600
X20680Y13600
X20680Y14600
X20680Y15600
X20680Y16600
X19680Y16600
X19680Y15600
X18680Y15600
X18680Y16600
X18680Y17600
X19680Y17600
X20680Y17600
X20680Y18600
X20680Y19600
X19680Y19600
X19680Y18600
X18680Y18600
X18680Y19600
X18680Y20600
X18680Y21600
X19680Y21600
X19680Y20600
X20680Y20600
X20680Y21600
X20680Y22600
X20680Y23600
X19680Y23600
X19680Y22600
X18680Y22600
X18680Y23600
X18680Y24600
X18680Y25600
X19680Y25600
X19680Y24600
X20680Y24600
X20680Y25600
X20680Y26600
X20680Y27600
X19680Y27600
X19680Y26600
X18680Y26600
X18680Y27600
X18680Y28600
X18680Y29600
X19680Y29600
X19680Y28600
X20680Y28600
X20680Y29600
X20680Y30600
X20680Y31600
X19680Y31600
X19680Y30600
X18680Y30600
X18680Y31600
X18680Y32600
X18680Y33600
X19680Y33600
X19680Y32600
X20680Y32600
X20680Y33600
X20680Y34600
X20680Y35600
X19680Y35600
X19680Y34600
X18680Y34600
X18680Y35600
X18680Y36600
X19680Y36600
X20680Y36600
X21680Y36600
X22680Y36600
X23680Y36600
X23680Y35600
X23680Y34600
X22680Y34600
X22680Y35600
X21680Y35600
X21680Y34600
X21680Y33600
X21680Y32600
X22680Y32600
X22680Y33600
X23680Y33600
X23680Y32600
X23680Y31600
X23680Y30600
X22680Y30600
X22680Y31600
X21680Y31600
X21680Y30600
X21680Y29600
X21680Y28600
X22680Y28600
X22680Y29600
X23680Y29600
X23680Y28600
X23680Y27600
X23680Y26600
X22680Y26600
X22680Y27600
X21680Y27600
X21680Y26600
X21680Y25600
X21680Y24600
X22680Y24600
X22680Y25600
X23680Y25600
X23680Y24600
X23680Y23600
X23680Y22600
X22680Y22600
X22680Y23600
X21680Y23600
X21680Y22600
X21680Y21600
X21680Y20600
X22680Y20600
X22680Y21600
X23680Y21600
X23680Y20600
X23680Y19600
X23680Y18600
X22680Y18600
X22680Y19600
X21680Y19600
X21680Y18600
X21680Y17600
X22680Y17600
X23680Y17600
X23680Y16600
X23680Y15600
X22680Y15600
X22680Y16600
X21680Y16600
X21680Y15600
X21680Y14600
X21680Y13600
X22680Y13600
X22680Y14600
X23680Y14600
X23680Y13600
X23680Y12600
X23680Y11600
X22680Y11600
X22680Y12600
X21680Y12600
X21680Y11600
X21680Y10600
X21680Y9600
X22680Y9600
X22680Y10600
X23680Y10600
X23680Y9600
X23680Y8600
X23680Y7600
X22680Y7600
X22680Y8600
X21680Y8600
X21680Y7600
X21680Y6600
X21680Y5600
X22680Y5600
X22680Y6600
X23680Y6600
X23680Y5600
X23680Y4600
X23680Y3600
X22680Y3600
X22680Y4600
X21680Y4600
X21680Y3600
X21680Y2600
X22680Y2600
X23680Y2600
X24680Y2600
X25680Y2600
X26680Y2600
X26680Y3600
X26680Y4600
X25680Y4600
X25680Y3600
X24680Y3600
X24680Y4600
X24680Y5600
X24680Y6600
X25680Y6600
X25680Y5600
X26680Y5600
X26680Y6600
X26680Y7600
X26680Y8600
X25680Y8600
X25680Y7600
X24680Y7600
X24680Y8600
X24680Y9600
X24680Y10600
X25680Y10600
X25680Y9600
X26680Y9600
X26680Y10600
X26680Y11600
X26680Y12600
X25680Y12600
X25680Y11600
X24680Y11600
X24680Y12600
X24680Y13600
X24680Y14600
X25680Y14600
X25680Y13600
X26680Y13600
X26680Y14600
X26680Y15600
X26680Y16600
X25680Y16600
X25680Y15600
X24680Y15600
X24680Y16600
X24680Y17600
X25680Y17600
X26680Y17600
X26680Y18600
X26680Y19600
X25680Y19600
X25680Y18600
X24680Y18600
X24680Y19600
X24680Y20600
X24680Y21600
X25680Y21600
X25680Y20600
X26680Y20600
X26680Y21600
X26680Y22600
X26680Y23600
X25680Y23600
X25680Y22600
X24680Y22600
X24680Y23600
X24680Y24600
X24680Y25600
X25680Y25600
X25680Y24600
X26680Y24600
X26680Y25600
X26680Y26600
X26680Y27600
X25680Y27600
X25680Y26600
X24680Y26600
X24680Y27600
X24680Y28600
X24680Y29600
X25680Y29600
X25680Y28600
X26680Y28600
X26680Y29600
X26680Y30600
X26680Y31600
X25680Y31600
X25680Y30600
X24680Y30600
X24680Y31600
X24680Y32600
X24680Y33600
X25680Y33600
X25680Y32600
X26680Y32600
X26680Y33600
X26680Y34600
X26680Y35600
X25680Y35600
X25680Y34600
X24680Y34600
X24680Y35600
X24680Y36600
X25680Y36600
X26680Y36600
X27680Y36600
X28680Y36600
X29680Y36600
X29680Y35600
X29680Y34600
X28680Y34600
X28680Y35600
X27680Y35600
X27680Y34600
X27680Y33600
X27680Y32600
X28680Y32600
X28680Y33600
X29680Y33600
X29680Y32600
X29680Y31600
X29680Y30600
X28680Y30600
X28680Y31600
X27680Y31600
X27680Y30600
X27680Y29600
X27680Y28600
X28680Y28600
X28680Y29600
X29680Y29600
X29680Y28600
X29680Y27600
X29680Y26600
X28680Y26600
X28680Y27600
X27680Y27600
X27680Y26600
X27680Y25600
X27680Y24600
X28680Y24600
X28680Y25600
X29680Y25600
X29680Y24600
X29680Y23600
X29680Y22600
X28680Y22600
X28680Y23600
X27680Y23600
X27680Y22600
X27680Y21600
X27680Y20600
X28680Y20600
X28680Y21600
X29680Y21600
X29680Y20600
X29680Y19600
X29680Y18600
X28680Y18600
X28680Y19600
X27680Y19600
X27680Y18600
X27680Y17600
X28680Y17600
X29680Y17600
X29680Y16600
X29680Y15600
X28680Y15600
X28680Y16600
X27680Y16600
X27680Y15600
X27680Y14600
X27680Y13600
X28680Y13600
X28680Y14600
X29680Y14600
X29680Y13600
X29680Y12600
X29680Y11600
X28680Y11600
X28680Y12600
X27680Y12600
X27680Y11600
X27680Y10600
X27680Y9600
X28680Y9600
X28680Y10600
X29680Y10600
X29680Y9600
X29680Y8600
X29680Y7600
X28680Y7600
X28680Y8600
X27680Y8600
X27680Y7600
X27680Y6600
X27680Y5600
X28680Y5600
X28680Y6600
X29680Y6600
X29680Y5600
X29680Y4600
X29680Y3600
X28680Y3600
X28680Y4600
X27680Y4600
X27680Y3600
X27680Y2600
X28680Y2600
X29680Y2600
X30680Y2600
X31680Y2600
X32680Y2600
X32680Y3600
X32680Y4600
X31680Y4600
X31680Y3600
X30680Y3600
X30680Y4600
X30680Y5600
X30680Y6600
X31680Y6600
X31680Y5600
X32680Y5600
X32680Y6600
X32680Y7600
X32680Y8600
X31680Y8600
X31680Y7600
X30680Y7600
X30680Y8600
X30680Y9600
X30680Y10600
X31680Y10600
X31680Y9600
X32680Y9600
X32680Y10600
X32680Y11600
X32680Y12600
X31680Y12600
X31680Y11600
X30680Y11600
X30680Y12600
X30680Y13600
X30680Y14600
X31680Y14600
X31680Y13600
X32680Y13600
X32680Y14600
X32680Y15600
X32680Y16600
X31680Y16600
X31680Y15600
X30680Y15600
X30680Y16600
X30680Y17600
X31680Y17600
X32680Y17600
X32680Y18600
X32680Y19600
X31680Y19600
X31680Y18600
X30680Y18600
X30680Y19600
X30680Y20600
X30680Y21600
X31680Y21600
X31680Y20600
X32680Y20600
X32680Y21600
X32680Y22600
X32680Y23600
X31680Y23600
X31680Y22600
X30680Y22600
X30680Y23600
X30680Y24600
X30680Y25600
X31680Y25600
X31680Y24600
X32680Y24600
X32680Y25600
X32680Y26600
X32680Y27600
X31680Y27600
X31680Y26600
X30680Y26600
X30680Y27600
X30680Y28600
X30680Y29600
X31680Y29600
X31680Y28600
X32680Y28600
X32680Y29600
X32680Y30600
X32680Y31600
X31680Y31600
X31680Y30600
X30680Y30600
X30680Y31600
X30680Y32600
X30680Y33600
X31680Y33600
X31680Y32600
X32680Y32600
X32680Y33600
X32680Y34600
X32680Y35600
X31680Y35600
X31680Y34600
X30680Y34600
X30680Y35600
X30680Y36600
X31680Y36600
X32680Y36600
X33680Y36600
X34680Y36600
X35680Y36600
X35680Y35600
X35680Y34600
X34680Y34600
X34680Y35600
X33680Y35600
X33680Y34600
X33680Y33600
X33680Y32600
X34680Y32600
X34680Y33600
X35680Y33600
X35680Y32600
X35680Y31600
X35680Y30600
X34680Y30600
X34680Y31600
X33680Y31600
X33680Y30600
X33680Y29600
X33680Y28600
X34680Y28600
X34680Y29600
X35680Y29600
X35680Y28600
X35680Y27600
X35680Y26600
X34680Y26600
X34680Y27600
X33680Y27600
X33680Y26600
X33680Y25600
X33680Y24600
X34680Y24600
X34680Y25600
X35680Y25600
X35680Y24600
X35680Y23600
X35680Y22600
X34680Y22600
X34680Y23600
X33680Y23600
X33680Y22600
X33680Y21600
X33680Y20600
X34680Y20600
X34680Y21600
X35680Y21600
X35680Y20600
X35680Y19600
X35680Y18600
X34680Y18600
X34680Y19600
X33680Y19600
X33680Y18600
X33680Y17600
X34680Y17600
X35680Y17600
X35680Y16600
X35680Y15600
X34680Y15600
X34680Y16600
X33680Y16600
X33680Y15600
X33680Y14600
X33680Y13600
X34680Y13600
X34680Y14600
X35680Y14600
X35680Y13600
X35680Y12600
X35680Y11600
X34680Y11600
X34680Y12600
X33680Y12600
X33680Y11600
X33680Y10600
X33680Y9600
X34680Y9600
X34680Y10600
X35680Y10600
X35680Y9600
X35680Y8600
X35680Y7600
X34680Y7600
X34680Y8600
X33680Y8600
X33680Y7600
X33680Y6600
X33680Y5600
X34680Y5600
X34680Y6600
X35680Y6600
X35680Y5600
X35680Y4600
X35680Y3600
X34680Y3600
X34680Y4600
X33680Y4600
X33680Y3600
X33680Y2600
X34680Y2600
X35680Y2600
X36680Y2600
X37680Y2600
X38680Y2600
X38680Y3600
X38680Y4600
X37680Y4600
X37680Y3600
X36680Y3600
X36680Y4600
X36680Y5600
X36680Y6600
X37680Y6600
X37680Y5600
X38680Y5600
X38680Y6600
X38680Y7600
X38680Y8600
X37680Y8600
X37680Y7600
X36680Y7600
X36680Y8600
X36680Y9600
X36680Y10600
X37680Y10600
X37680Y9600
X38680Y9600
X38680Y10600
X38680Y11600
X38680Y12600
X37680Y12600
X37680Y11600
X36680Y11600
X36680Y12600
X36680Y13600
X36680Y14600
X37680Y14600
X37680Y13600
X38680Y13600
X38680Y14600
X38680Y15600
X38680Y16600
X37680Y16600
X37680Y15600
X36680Y15600
X36680Y16600
X36680Y17600
X37680Y17600
X38680Y17600
X38680Y18600
X38680Y19600
X37680Y19600
X37680Y18600
X36680Y18600
X36680Y19600
X36680Y20600
X36680Y21600
X37680Y21600
X37680Y20600
X38680Y20600
X38680Y21600
X38680Y22600
X38680Y23600
X37680Y23600
X37680Y22600
X36680Y22600
X36680Y23600
X36680Y24600
X36680Y25600
X37680Y25600
X37680Y24600
X38680Y24600
X38680Y25600
X38680Y26600
X38680Y27600
X37680Y27600
X37680Y26600
X36680Y26600
X36680Y27600
X36680Y28600
X36680Y29600
X37680Y29600
X37680Y28600
X38680Y28600
X38680Y29600
X38680Y30600
X38680Y31600
X37680Y31600
X37680Y30600
X36680Y30600
X36680Y31600
X36680Y32600
X36680Y33600
X37680Y33600
X37680Y32600
X38680Y32600
X38680Y33600
X38680Y34600
X38680Y35600
X37680Y35600
X37680Y34600
X36680Y34600
X36680Y35600
X36680Y36600
X37680Y36600
X38680Y36600
X17680Y36600
X16680Y36600
X15680Y36600
X14680Y36600
X14680Y35600
X14680Y34600
X15680Y34600
X15680Y35600
X16680Y35600
X16680Y34600
X17680Y34600
X17680Y35600
X17680Y33600
X17680Y32600
X16680Y32600
X16680Y33600
X15680Y33600
X15680Y32600
X14680Y32600
X14680Y33600
X13180Y33600
X13180Y32600
X12180Y32600
X12180Y33600
X12180Y34600
X12180Y35600
X13180Y35600
X13180Y34600
X11180Y34600
X11180Y35600
X11180Y33600
X11180Y32600
X11180Y31600
X11180Y30600
X11180Y29600
X11180Y28600
X12180Y28600
X12180Y29600
X13180Y29600
X13180Y28600
X14680Y28600
X14680Y29600
X15680Y29600
X15680Y28600
X16680Y28600
X16680Y29600
X17680Y29600
X17680Y28600
X17680Y27600
X17680Y26600
X16680Y26600
X16680Y27600
X15680Y27600
X15680Y26600
X14680Y26600
X14680Y27600
X14680Y25600
X14680Y24600
X15680Y24600
X15680Y25600
X16680Y25600
X16680Y24600
X17680Y24600
X17680Y25600
X17680Y23600
X17680Y22600
X16680Y22600
X16680Y23600
X15680Y23600
X15680Y22600
X14680Y22600
X14680Y23600
X13180Y24600
X12180Y24600
X11180Y24600
X14680Y21600
X14680Y20600
X15680Y20600
X15680Y21600
X16680Y21600
X16680Y20600
X17680Y20600
X17680Y21600
X17680Y19600
X17680Y18600
X16680Y18600
X16680Y19600
X15680Y19600
X15680Y18600
X14680Y18600
X14680Y19600
X13180Y19350
X13180Y18350
X12180Y18350
X12180Y19350
X12180Y20350
X13180Y20350
X11180Y20350
X11180Y19350
X11180Y18350
X11180Y17350
X11180Y16350
X12180Y16350
X12180Y17350
X13180Y17350
X13180Y16350
X14680Y16600
X14680Y15600
X15680Y15600
X15680Y16600
X16680Y16600
X16680Y15600
X17680Y15600
X17680Y16600
X17680Y17600
X16680Y17600
X15680Y17600
X14680Y17600
X14680Y14600
X14680Y13600
X15680Y13600
X15680Y14600
X16680Y14600
X16680Y13600
X17680Y13600
X17680Y14600
X17680Y30600
X17680Y31600
X16680Y31600
X16680Y30600
X15680Y30600
X15680Y31600
X14680Y31600
X14680Y30600
X13180Y30600
X13180Y31600
X12180Y31600
X12180Y30600
T02
X6784Y30592
X5997Y30592
X5997Y29608
X6784Y29608
T03
X7680Y10260
X7680Y9180
X6680Y8640
X6680Y7560
X7680Y7020
X7680Y5940
X6680Y6480
X7680Y8100
X6680Y9720
T04
X8633Y15350
X9593Y16350
X8672Y18350
X9593Y20350
X8633Y21311
X4711Y20350
X4711Y19350
X4711Y17350
X4711Y16350
T05
X4430Y22850
X5430Y24600
X7180Y24600
X4430Y26350
T06
X4930Y27730
X4930Y32470
T07
X6656Y33789
X5515Y35639
X7837Y35639
X11180Y37600
X41180Y37600
X41180Y2100
X11180Y2100
T08
X7180Y3170
X7180Y13030
M30
