G75*
%MOIN*%
%OFA0B0*%
%FSLAX24Y24*%
%IPPOS*%
%LPD*%
%AMOC8*
5,1,8,0,0,1.08239X$1,22.5*
%
%ADD10C,0.0000*%
D10*
X003680Y000100D02*
X003680Y039470D01*
X043050Y039470D01*
X043050Y000100D01*
X003680Y000100D01*
X004036Y022850D02*
X004038Y022889D01*
X004044Y022928D01*
X004054Y022966D01*
X004067Y023003D01*
X004084Y023038D01*
X004104Y023072D01*
X004128Y023103D01*
X004155Y023132D01*
X004184Y023158D01*
X004216Y023181D01*
X004250Y023201D01*
X004286Y023217D01*
X004323Y023229D01*
X004362Y023238D01*
X004401Y023243D01*
X004440Y023244D01*
X004479Y023241D01*
X004518Y023234D01*
X004555Y023223D01*
X004592Y023209D01*
X004627Y023191D01*
X004660Y023170D01*
X004691Y023145D01*
X004719Y023118D01*
X004744Y023088D01*
X004766Y023055D01*
X004785Y023021D01*
X004800Y022985D01*
X004812Y022947D01*
X004820Y022909D01*
X004824Y022870D01*
X004824Y022830D01*
X004820Y022791D01*
X004812Y022753D01*
X004800Y022715D01*
X004785Y022679D01*
X004766Y022645D01*
X004744Y022612D01*
X004719Y022582D01*
X004691Y022555D01*
X004660Y022530D01*
X004627Y022509D01*
X004592Y022491D01*
X004555Y022477D01*
X004518Y022466D01*
X004479Y022459D01*
X004440Y022456D01*
X004401Y022457D01*
X004362Y022462D01*
X004323Y022471D01*
X004286Y022483D01*
X004250Y022499D01*
X004216Y022519D01*
X004184Y022542D01*
X004155Y022568D01*
X004128Y022597D01*
X004104Y022628D01*
X004084Y022662D01*
X004067Y022697D01*
X004054Y022734D01*
X004044Y022772D01*
X004038Y022811D01*
X004036Y022850D01*
X004036Y026350D02*
X004038Y026389D01*
X004044Y026428D01*
X004054Y026466D01*
X004067Y026503D01*
X004084Y026538D01*
X004104Y026572D01*
X004128Y026603D01*
X004155Y026632D01*
X004184Y026658D01*
X004216Y026681D01*
X004250Y026701D01*
X004286Y026717D01*
X004323Y026729D01*
X004362Y026738D01*
X004401Y026743D01*
X004440Y026744D01*
X004479Y026741D01*
X004518Y026734D01*
X004555Y026723D01*
X004592Y026709D01*
X004627Y026691D01*
X004660Y026670D01*
X004691Y026645D01*
X004719Y026618D01*
X004744Y026588D01*
X004766Y026555D01*
X004785Y026521D01*
X004800Y026485D01*
X004812Y026447D01*
X004820Y026409D01*
X004824Y026370D01*
X004824Y026330D01*
X004820Y026291D01*
X004812Y026253D01*
X004800Y026215D01*
X004785Y026179D01*
X004766Y026145D01*
X004744Y026112D01*
X004719Y026082D01*
X004691Y026055D01*
X004660Y026030D01*
X004627Y026009D01*
X004592Y025991D01*
X004555Y025977D01*
X004518Y025966D01*
X004479Y025959D01*
X004440Y025956D01*
X004401Y025957D01*
X004362Y025962D01*
X004323Y025971D01*
X004286Y025983D01*
X004250Y025999D01*
X004216Y026019D01*
X004184Y026042D01*
X004155Y026068D01*
X004128Y026097D01*
X004104Y026128D01*
X004084Y026162D01*
X004067Y026197D01*
X004054Y026234D01*
X004044Y026272D01*
X004038Y026311D01*
X004036Y026350D01*
M02*
